if (_typeface_js && _typeface_js.loadFace) _typeface_js.loadFace({"glyphs":{"0":{"ha":772,"x_min":58,"x_max":706,"o":"m 58 490 q 94 774 58 667 q 202 940 130 882 q 382 998 273 998 q 522 966 462 998 q 622 873 583 934 q 684 725 661 812 q 706 490 706 638 q 670 208 706 315 q 563 42 634 100 q 382 -17 491 -17 q 156 86 238 -17 q 58 490 58 210 m 183 490 q 240 164 183 245 q 382 83 298 83 q 523 165 466 83 q 581 490 581 246 q 523 817 581 736 q 380 897 466 897 q 246 826 296 897 q 183 490 183 735 z "},"1":{"ha":772,"x_min":151,"x_max":517,"o":"m 517 0 l 395 0 l 395 778 q 280 694 351 736 q 151 631 208 652 l 151 749 q 330 865 254 797 q 439 998 407 934 l 517 998 l 517 0 z "},"2":{"ha":772,"x_min":41,"x_max":699,"o":"m 699 117 l 699 0 l 42 0 q 56 85 41 44 q 137 217 81 152 q 296 368 192 282 q 515 578 458 500 q 572 725 572 656 q 520 847 572 798 q 385 897 469 897 q 244 844 297 897 q 191 698 191 791 l 65 711 q 162 925 78 851 q 388 998 246 998 q 614 919 531 998 q 698 722 698 840 q 673 605 698 663 q 592 484 649 547 q 404 309 536 420 q 263 183 294 216 q 212 117 232 151 l 699 117 z "},"3":{"ha":772,"x_min":58,"x_max":709,"o":"m 58 262 l 180 279 q 252 129 201 175 q 375 83 302 83 q 520 143 461 83 q 580 291 580 203 q 525 430 580 375 q 385 484 470 484 q 299 471 351 484 l 313 578 q 332 576 325 576 q 473 617 410 576 q 535 743 535 658 q 490 854 535 810 q 372 898 444 898 q 254 853 301 898 q 193 719 206 808 l 71 741 q 172 931 93 863 q 370 998 252 998 q 519 963 451 998 q 624 868 588 928 q 661 740 661 808 q 626 623 661 675 q 524 538 591 570 q 661 454 612 518 q 709 294 709 390 q 614 73 709 163 q 374 -18 519 -18 q 157 60 243 -18 q 58 262 71 138 z "},"4":{"ha":772,"x_min":18,"x_max":705,"o":"m 449 0 l 449 238 l 18 238 l 18 350 l 471 994 l 571 994 l 571 350 l 705 350 l 705 238 l 571 238 l 571 0 l 449 0 m 449 350 l 449 798 l 138 350 l 449 350 z "},"5":{"ha":772,"x_min":58,"x_max":717,"o":"m 58 260 l 186 271 q 252 131 200 178 q 377 83 304 83 q 526 150 465 83 q 587 326 587 216 q 529 491 587 431 q 375 551 470 551 q 269 525 316 551 q 194 455 221 498 l 79 470 l 176 981 l 670 981 l 670 864 l 273 864 l 220 597 q 408 659 309 659 q 627 569 538 659 q 717 337 717 479 q 638 104 717 202 q 377 -17 543 -17 q 156 59 241 -17 q 58 260 70 135 z "},"6":{"ha":772,"x_min":52,"x_max":709,"o":"m 691 751 l 570 741 q 524 846 553 813 q 401 898 474 898 q 299 865 343 898 q 208 743 241 823 q 174 513 175 662 q 281 612 218 580 q 415 645 345 645 q 623 555 537 645 q 709 323 709 465 q 668 149 709 229 q 557 26 628 68 q 397 -17 487 -17 q 149 95 245 -17 q 52 465 52 208 q 159 884 52 753 q 409 998 252 998 q 601 932 526 998 q 691 751 676 867 m 193 322 q 219 201 193 259 q 294 114 246 144 q 395 83 342 83 q 528 146 473 83 q 584 315 584 208 q 529 478 584 418 q 391 537 474 537 q 250 478 308 537 q 193 322 193 418 z "},"7":{"ha":772,"x_min":66,"x_max":709,"o":"m 66 864 l 66 981 l 709 981 l 709 886 q 521 618 614 785 q 377 273 428 450 q 330 0 340 149 l 205 0 q 251 283 207 117 q 377 604 295 450 q 553 864 460 758 l 66 864 z "},"8":{"ha":772,"x_min":56,"x_max":711,"o":"m 245 539 q 133 618 170 567 q 96 742 96 670 q 174 924 96 850 q 382 998 252 998 q 591 923 512 998 q 671 739 671 847 q 634 618 671 669 q 524 539 598 567 q 664 443 616 509 q 711 284 711 376 q 621 70 711 157 q 384 -17 531 -17 q 146 70 237 -17 q 56 288 56 157 q 105 450 56 385 q 245 539 155 515 m 221 746 q 267 631 221 675 q 385 586 312 586 q 500 630 455 586 q 545 739 545 675 q 499 852 545 806 q 383 898 452 898 q 267 853 313 898 q 221 746 221 808 m 182 287 q 207 186 182 235 q 280 110 231 137 q 385 83 329 83 q 530 140 473 83 q 587 283 587 196 q 528 429 587 371 q 381 486 469 486 q 238 429 295 486 q 182 287 182 372 z "},"9":{"ha":772,"x_min":58,"x_max":711,"o":"m 76 230 l 193 241 q 250 121 208 158 q 358 83 292 83 q 457 109 414 83 q 526 178 499 135 q 572 294 553 221 q 590 444 590 368 q 589 468 590 452 q 489 373 553 410 q 352 337 426 337 q 143 427 229 337 q 58 663 58 516 q 147 906 58 814 q 370 998 236 998 q 548 946 467 998 q 670 797 628 894 q 711 517 711 701 q 670 214 711 327 q 547 42 629 101 q 355 -17 465 -17 q 165 48 239 -17 q 76 230 91 113 m 576 669 q 520 836 576 774 q 385 897 464 897 q 243 831 304 897 q 183 659 183 764 q 240 504 183 564 q 382 445 298 445 q 521 504 467 445 q 576 669 576 564 z "}," ":{"ha":386,"x_min":0,"x_max":0,"o":""},"!":{"ha":386,"x_min":119,"x_max":271,"o":"m 157 247 l 119 774 l 119 994 l 271 994 l 271 774 l 235 247 l 157 247 m 125 0 l 125 139 l 265 139 l 265 0 l 125 0 z "},"\"":{"ha":493,"x_min":64,"x_max":428,"o":"m 98 642 l 64 831 l 64 994 l 203 994 l 203 831 l 172 642 l 98 642 m 322 642 l 289 831 l 289 994 l 428 994 l 428 831 l 395 642 l 322 642 z "},"#":{"ha":772,"x_min":14,"x_max":755,"o":"m 70 -17 l 129 272 l 14 272 l 14 373 l 149 373 l 199 619 l 14 619 l 14 720 l 220 720 l 279 1011 l 380 1011 l 321 720 l 535 720 l 594 1011 l 696 1011 l 637 720 l 755 720 l 755 619 l 617 619 l 566 373 l 755 373 l 755 272 l 546 272 l 487 -17 l 385 -17 l 444 272 l 231 272 l 172 -17 l 70 -17 m 251 373 l 464 373 l 515 619 l 301 619 l 251 373 z "},"$":{"ha":772,"x_min":50,"x_max":707,"o":"m 346 -143 l 346 -21 q 197 20 254 -9 q 98 115 140 50 q 50 276 56 181 l 172 299 q 222 155 186 201 q 346 82 274 90 l 346 471 q 192 529 271 485 q 102 619 134 562 q 71 750 71 677 q 163 961 71 880 q 346 1027 224 1015 l 346 1086 l 418 1086 l 418 1027 q 587 965 524 1017 q 683 783 667 899 l 557 764 q 512 874 546 836 q 418 924 477 912 l 418 572 q 540 536 510 549 q 633 475 597 511 q 688 390 669 439 q 707 283 707 340 q 627 71 707 156 q 418 -20 546 -14 l 418 -143 l 346 -143 m 346 926 q 234 869 275 915 q 193 760 193 823 q 228 655 193 697 q 346 588 262 613 l 346 926 m 418 82 q 535 144 489 91 q 582 275 582 197 q 549 381 582 341 q 418 454 516 422 l 418 82 z "},"%":{"ha":1235,"x_min":81,"x_max":1149,"o":"m 81 755 q 134 937 81 862 q 290 1011 188 1011 q 445 944 383 1011 q 506 748 506 878 q 444 554 506 622 q 291 486 382 486 q 141 553 201 486 q 81 755 81 620 m 293 927 q 217 888 248 927 q 187 743 187 848 q 218 609 187 648 q 293 570 248 570 q 369 609 339 570 q 399 753 399 648 q 369 888 399 849 q 293 927 338 927 m 294 -37 l 838 1011 l 937 1011 l 395 -37 l 294 -37 m 724 233 q 777 415 724 340 q 933 489 831 489 q 1088 422 1027 489 q 1149 226 1149 355 q 1087 32 1149 100 q 934 -37 1025 -37 q 784 31 844 -37 q 724 233 724 98 m 937 405 q 860 366 890 405 q 830 221 830 326 q 861 87 830 126 q 936 47 891 47 q 1013 87 983 47 q 1043 231 1043 126 q 1013 366 1043 327 q 937 405 982 405 z "},"&":{"ha":926,"x_min":60,"x_max":895,"o":"m 660 117 q 528 17 600 50 q 374 -17 457 -17 q 132 86 222 -17 q 60 274 60 170 q 119 440 60 366 q 296 571 178 515 q 207 696 229 648 q 184 789 184 745 q 255 945 184 879 q 431 1011 325 1011 q 598 949 533 1011 q 663 799 663 886 q 475 557 663 657 l 653 330 q 701 468 684 389 l 827 441 q 739 227 795 311 q 895 74 808 136 l 812 -23 q 660 117 739 24 m 412 635 q 514 718 491 682 q 538 795 538 753 q 506 879 538 846 q 425 911 473 911 q 343 879 376 911 q 310 801 310 847 q 322 752 310 778 q 357 699 334 727 l 412 635 m 583 214 l 359 491 q 226 381 260 432 q 191 281 191 331 q 239 156 191 221 q 376 91 288 91 q 489 125 431 91 q 583 214 548 159 z "},"'":{"ha":265,"x_min":61,"x_max":200,"o":"m 92 642 l 61 828 l 61 994 l 200 994 l 200 828 l 168 642 l 92 642 z "},"(":{"ha":463,"x_min":84,"x_max":412,"o":"m 325 -292 q 154 6 224 -165 q 84 360 84 177 q 136 669 84 522 q 325 1011 197 841 l 412 1011 q 304 810 330 870 q 239 614 262 716 q 210 359 210 488 q 412 -292 210 33 l 325 -292 z "},")":{"ha":463,"x_min":84,"x_max":412,"o":"m 172 -292 l 84 -292 q 287 359 287 33 q 258 612 287 487 q 193 808 235 714 q 84 1011 167 869 l 172 1011 q 360 669 299 841 q 412 360 412 522 q 342 6 412 177 q 172 -292 272 -165 z "},"*":{"ha":541,"x_min":43,"x_max":492,"o":"m 43 812 l 75 908 q 231 842 182 870 q 218 1011 218 965 l 316 1011 q 300 843 314 944 q 460 908 370 878 l 492 812 q 323 774 406 783 q 439 646 364 738 l 358 588 q 265 734 319 642 q 177 588 215 638 l 97 646 q 210 774 176 743 q 43 812 122 791 z "},"+":{"ha":811,"x_min":77,"x_max":734,"o":"m 348 161 l 348 433 l 77 433 l 77 547 l 348 547 l 348 818 l 463 818 l 463 547 l 734 547 l 734 433 l 463 433 l 463 161 l 348 161 z "},",":{"ha":386,"x_min":115,"x_max":262,"o":"m 123 0 l 123 139 l 262 139 l 262 0 q 235 -124 262 -77 q 149 -197 208 -171 l 115 -144 q 172 -95 154 -127 q 193 0 191 -62 l 123 0 z "},"-":{"ha":463,"x_min":44,"x_max":419,"o":"m 44 298 l 44 421 l 419 421 l 419 298 l 44 298 z "},".":{"ha":386,"x_min":126,"x_max":265,"o":"m 126 0 l 126 139 l 265 139 l 265 0 l 126 0 z "},"/":{"ha":386,"x_min":0,"x_max":386,"o":"m 0 -17 l 288 1011 l 386 1011 l 98 -17 l 0 -17 z "},":":{"ha":386,"x_min":125,"x_max":264,"o":"m 125 581 l 125 720 l 264 720 l 264 581 l 125 581 m 125 0 l 125 139 l 264 139 l 264 0 l 125 0 z "},";":{"ha":386,"x_min":115,"x_max":262,"o":"m 123 581 l 123 720 l 262 720 l 262 581 l 123 581 m 123 0 l 123 139 l 262 139 l 262 0 q 235 -124 262 -77 q 149 -197 208 -171 l 115 -144 q 172 -95 154 -127 q 193 0 191 -62 l 123 0 z "},"<":{"ha":811,"x_min":76,"x_max":734,"o":"m 76 435 l 76 549 l 734 827 l 734 705 l 212 491 l 734 275 l 734 153 l 76 435 z "},"=":{"ha":811,"x_min":77,"x_max":734,"o":"m 734 585 l 77 585 l 77 699 l 734 699 l 734 585 m 734 283 l 77 283 l 77 397 l 734 397 l 734 283 z "},">":{"ha":811,"x_min":76,"x_max":734,"o":"m 734 435 l 76 153 l 76 275 l 597 491 l 76 705 l 76 827 l 734 549 l 734 435 z "},"?":{"ha":772,"x_min":61,"x_max":703,"o":"m 320 245 q 319 281 319 269 q 340 406 319 353 q 388 485 355 445 q 476 570 412 514 q 558 659 539 626 q 577 732 577 692 q 522 857 577 803 q 385 911 466 911 q 255 862 307 911 q 186 709 203 813 l 61 724 q 162 937 78 863 q 383 1011 245 1011 q 616 932 529 1011 q 703 740 703 852 q 672 620 703 675 q 553 486 642 565 q 475 408 493 433 q 448 351 456 383 q 437 245 439 318 l 320 245 m 313 0 l 313 139 l 452 139 l 452 0 l 313 0 z "},"@":{"ha":1410,"x_min":75,"x_max":1360,"o":"m 787 111 q 689 29 743 60 q 579 -2 634 -2 q 462 33 519 -2 q 369 142 405 68 q 334 302 334 215 q 389 518 334 410 q 526 681 444 627 q 686 735 608 735 q 798 704 745 735 q 890 610 852 673 l 913 715 l 1035 715 l 937 260 q 917 155 917 165 q 931 124 917 137 q 964 111 945 111 q 1059 152 1000 111 q 1181 297 1136 206 q 1226 486 1226 389 q 1168 697 1226 599 q 995 854 1110 795 q 741 913 880 913 q 451 839 583 913 q 248 626 320 765 q 176 329 176 488 q 248 43 176 163 q 457 -135 320 -77 q 760 -192 593 -192 q 1057 -132 937 -192 q 1237 13 1177 -73 l 1360 13 q 1241 -132 1325 -58 q 1041 -249 1157 -206 q 762 -292 925 -292 q 484 -254 611 -292 q 267 -137 357 -215 q 132 41 178 -60 q 75 318 75 170 q 143 633 75 484 q 378 915 226 817 q 747 1013 530 1013 q 1049 944 916 1013 q 1261 739 1183 875 q 1326 484 1326 621 q 1188 134 1326 287 q 918 -3 1065 -3 q 843 12 871 -3 q 800 52 814 26 q 787 111 791 69 m 459 294 q 503 150 459 201 q 604 98 547 98 q 684 121 642 98 q 765 189 726 144 q 827 302 803 233 q 852 440 852 371 q 806 583 852 532 q 694 634 760 634 q 613 612 651 634 q 538 541 574 590 q 481 422 503 492 q 459 294 459 353 z "},"A":{"ha":926,"x_min":-2,"x_max":928,"o":"m -2 0 l 380 994 l 522 994 l 928 0 l 779 0 l 663 301 l 247 301 l 138 0 l -2 0 m 285 408 l 622 408 l 518 684 q 448 890 471 809 q 394 700 429 794 l 285 408 z "},"B":{"ha":926,"x_min":102,"x_max":852,"o":"m 102 0 l 102 994 l 475 994 q 657 964 589 994 q 765 871 726 934 q 804 740 804 808 q 770 620 804 676 q 665 529 735 564 q 804 439 755 503 q 852 288 852 375 q 823 158 852 218 q 750 66 793 98 q 641 17 707 33 q 481 0 576 0 l 102 0 m 233 576 l 448 576 q 574 588 536 576 q 649 637 624 603 q 675 724 675 672 q 651 811 675 774 q 583 863 627 849 q 432 877 539 877 l 233 877 l 233 576 m 233 117 l 481 117 q 570 122 545 117 q 646 149 616 130 q 696 204 677 168 q 716 288 716 241 q 688 385 716 344 q 609 443 659 426 q 463 459 558 459 l 233 459 l 233 117 z "},"C":{"ha":1003,"x_min":69,"x_max":948,"o":"m 817 349 l 948 315 q 799 68 907 153 q 536 -17 692 -17 q 275 48 376 -17 q 122 238 174 114 q 69 505 69 362 q 129 775 69 660 q 297 951 188 891 q 538 1011 407 1011 q 789 935 688 1011 q 931 722 891 859 l 802 691 q 701 849 767 800 q 536 899 635 899 q 344 844 421 899 q 236 696 267 789 q 205 505 205 604 q 242 284 205 378 q 357 142 279 189 q 526 96 435 96 q 713 159 636 96 q 817 349 789 223 z "},"D":{"ha":1003,"x_min":107,"x_max":929,"o":"m 107 0 l 107 994 l 450 994 q 627 980 566 994 q 772 909 712 960 q 890 739 851 842 q 929 503 929 635 q 903 302 929 389 q 835 157 876 214 q 744 67 793 100 q 626 17 695 34 q 466 0 556 0 l 107 0 m 239 117 l 451 117 q 605 136 549 117 q 694 187 661 154 q 767 313 741 234 q 793 505 793 392 q 742 744 793 661 q 618 857 691 828 q 448 877 565 877 l 239 877 l 239 117 z "},"E":{"ha":926,"x_min":110,"x_max":852,"o":"m 110 0 l 110 994 l 829 994 l 829 877 l 241 877 l 241 572 l 791 572 l 791 456 l 241 456 l 241 117 l 852 117 l 852 0 l 110 0 z "},"F":{"ha":848,"x_min":114,"x_max":785,"o":"m 114 0 l 114 994 l 785 994 l 785 877 l 245 877 l 245 569 l 712 569 l 712 452 l 245 452 l 245 0 l 114 0 z "},"G":{"ha":1080,"x_min":74,"x_max":994,"o":"m 572 390 l 572 507 l 994 507 l 994 138 q 793 22 897 61 q 582 -17 690 -17 q 316 46 435 -17 q 135 227 196 109 q 74 492 74 346 q 135 763 74 637 q 309 950 195 889 q 572 1011 423 1011 q 767 976 680 1011 q 903 879 854 941 q 979 716 953 817 l 860 684 q 804 803 838 760 q 709 872 771 846 q 572 899 648 899 q 416 871 482 899 q 310 799 351 844 q 248 701 270 754 q 210 500 210 608 q 255 278 210 368 q 389 145 301 189 q 574 102 476 102 q 741 135 660 102 q 865 205 823 168 l 865 390 l 572 390 z "},"H":{"ha":1003,"x_min":111,"x_max":891,"o":"m 111 0 l 111 994 l 243 994 l 243 586 l 760 586 l 760 994 l 891 994 l 891 0 l 760 0 l 760 469 l 243 469 l 243 0 l 111 0 z "},"I":{"ha":386,"x_min":130,"x_max":261,"o":"m 130 0 l 130 994 l 261 994 l 261 0 l 130 0 z "},"J":{"ha":694,"x_min":37,"x_max":587,"o":"m 40 282 l 159 298 q 201 142 163 184 q 307 100 239 100 q 392 123 356 100 q 441 185 428 146 q 455 309 455 224 l 455 994 l 587 994 l 587 317 q 556 123 587 192 q 461 19 526 55 q 307 -17 395 -17 q 107 58 176 -17 q 40 282 37 134 z "},"K":{"ha":926,"x_min":102,"x_max":924,"o":"m 102 0 l 102 994 l 233 994 l 233 501 l 727 994 l 905 994 l 488 591 l 924 0 l 750 0 l 396 503 l 233 345 l 233 0 l 102 0 z "},"L":{"ha":772,"x_min":102,"x_max":723,"o":"m 102 0 l 102 994 l 233 994 l 233 117 l 723 117 l 723 0 l 102 0 z "},"M":{"ha":1157,"x_min":103,"x_max":1052,"o":"m 103 0 l 103 994 l 301 994 l 536 290 q 584 143 569 192 q 637 302 601 197 l 875 994 l 1052 994 l 1052 0 l 925 0 l 925 832 l 636 0 l 517 0 l 230 846 l 230 0 l 103 0 z "},"N":{"ha":1003,"x_min":106,"x_max":889,"o":"m 106 0 l 106 994 l 241 994 l 763 214 l 763 994 l 889 994 l 889 0 l 754 0 l 232 781 l 232 0 l 106 0 z "},"O":{"ha":1080,"x_min":67,"x_max":1018,"o":"m 67 484 q 200 872 67 732 q 543 1012 333 1012 q 791 946 681 1012 q 960 763 902 880 q 1018 496 1018 645 q 957 225 1018 345 q 784 44 896 106 q 543 -17 672 -17 q 292 51 402 -17 q 124 236 181 119 q 67 484 67 353 m 203 482 q 299 199 203 302 q 542 96 396 96 q 786 200 690 96 q 882 496 882 304 q 841 708 882 618 q 721 849 800 799 q 544 899 642 899 q 303 803 404 899 q 203 482 203 707 z "},"P":{"ha":926,"x_min":107,"x_max":866,"o":"m 107 0 l 107 994 l 482 994 q 633 985 581 994 q 756 938 707 972 q 836 842 806 904 q 866 707 866 781 q 785 492 866 580 q 494 404 705 404 l 239 404 l 239 0 l 107 0 m 239 522 l 496 522 q 677 569 623 522 q 730 703 730 616 q 699 809 730 765 q 616 868 667 854 q 493 877 583 877 l 239 877 l 239 522 z "},"Q":{"ha":1080,"x_min":60,"x_max":1029,"o":"m 861 106 q 1029 14 952 43 l 991 -77 q 777 45 884 -39 q 533 -17 667 -17 q 288 48 398 -17 q 119 231 178 113 q 60 497 60 349 q 119 765 60 644 q 289 949 179 886 q 536 1012 399 1012 q 784 946 673 1012 q 952 763 895 881 q 1010 498 1010 646 q 973 277 1010 375 q 861 106 936 179 m 571 275 q 759 180 685 243 q 875 498 875 286 q 834 709 875 618 q 714 849 793 799 q 536 899 635 899 q 292 798 389 899 q 195 497 195 697 q 291 199 195 303 q 536 96 387 96 q 669 122 607 96 q 539 179 608 162 l 571 275 z "},"R":{"ha":1003,"x_min":109,"x_max":985,"o":"m 109 0 l 109 994 l 550 994 q 752 967 683 994 q 863 873 821 941 q 904 723 904 805 q 836 545 904 617 q 624 452 767 472 q 703 403 676 427 q 812 271 761 350 l 985 0 l 820 0 l 688 207 q 593 344 631 296 q 527 410 556 391 q 467 437 497 429 q 393 441 444 441 l 241 441 l 241 0 l 109 0 m 241 555 l 524 555 q 665 574 614 555 q 742 634 715 593 q 768 723 768 675 q 717 839 768 793 q 555 884 666 884 l 241 884 l 241 555 z "},"S":{"ha":926,"x_min":62,"x_max":854,"o":"m 62 319 l 186 330 q 228 208 195 256 q 328 131 260 160 q 480 101 395 101 q 613 123 555 101 q 699 185 671 146 q 727 270 727 224 q 700 352 727 317 q 610 410 673 387 q 433 459 570 426 q 241 521 296 492 q 135 613 170 558 q 100 737 100 669 q 143 878 100 812 q 268 977 186 943 q 450 1011 350 1011 q 645 976 561 1011 q 775 871 730 940 q 824 714 821 802 l 698 705 q 629 847 688 799 q 456 895 570 895 q 282 851 336 895 q 227 746 227 808 q 266 658 227 692 q 464 587 304 623 q 684 524 625 551 q 812 422 771 484 q 854 281 854 361 q 808 131 854 201 q 678 22 763 61 q 486 -17 593 -17 q 260 22 351 -17 q 117 141 169 62 q 62 319 65 220 z "},"T":{"ha":848,"x_min":33,"x_max":821,"o":"m 360 0 l 360 877 l 33 877 l 33 994 l 821 994 l 821 877 l 492 877 l 492 0 l 360 0 z "},"U":{"ha":1003,"x_min":109,"x_max":891,"o":"m 760 994 l 891 994 l 891 420 q 857 182 891 270 q 735 38 823 94 q 503 -17 646 -17 q 274 31 363 -17 q 147 171 185 79 q 109 420 109 262 l 109 994 l 241 994 l 241 420 q 265 230 241 291 q 348 135 289 168 q 491 102 406 102 q 698 168 636 102 q 760 420 760 233 l 760 994 z "},"V":{"ha":926,"x_min":6,"x_max":916,"o":"m 391 0 l 6 994 l 149 994 l 407 272 q 459 109 438 185 q 513 272 482 191 l 781 994 l 916 994 l 526 0 l 391 0 z "},"W":{"ha":1311,"x_min":17,"x_max":1295,"o":"m 281 0 l 17 994 l 152 994 l 303 342 q 345 139 328 240 q 390 323 383 298 l 579 994 l 738 994 l 880 491 q 958 139 934 304 q 1007 355 977 233 l 1163 994 l 1295 994 l 1023 0 l 896 0 l 686 758 q 655 874 660 852 q 626 758 640 806 l 415 0 l 281 0 z "},"X":{"ha":926,"x_min":6,"x_max":918,"o":"m 6 0 l 391 518 l 52 994 l 208 994 l 389 739 q 469 617 445 660 q 547 730 502 671 l 747 994 l 890 994 l 541 526 l 918 0 l 755 0 l 505 355 q 461 421 484 385 q 414 347 428 367 l 164 0 l 6 0 z "},"Y":{"ha":926,"x_min":4,"x_max":916,"o":"m 387 0 l 387 421 l 4 994 l 164 994 l 360 694 q 461 526 414 610 q 570 702 506 604 l 762 994 l 916 994 l 519 421 l 519 0 l 387 0 z "},"Z":{"ha":848,"x_min":28,"x_max":814,"o":"m 28 0 l 28 122 l 537 759 q 640 877 591 827 l 85 877 l 85 994 l 798 994 l 798 877 l 239 187 l 179 117 l 814 117 l 814 0 l 28 0 z "},"[":{"ha":386,"x_min":94,"x_max":363,"o":"m 94 -276 l 94 994 l 363 994 l 363 893 l 216 893 l 216 -175 l 363 -175 l 363 -276 l 94 -276 z "},"\\":{"ha":386,"x_min":0,"x_max":386,"o":"m 288 -17 l 0 1011 l 98 1011 l 386 -17 l 288 -17 z "},"]":{"ha":386,"x_min":26,"x_max":296,"o":"m 296 -276 l 26 -276 l 26 -175 l 174 -175 l 174 893 l 26 893 l 26 994 l 296 994 l 296 -276 z "},"^":{"ha":652,"x_min":37,"x_max":615,"o":"m 162 468 l 37 468 l 276 1011 l 374 1011 l 615 468 l 492 468 l 325 873 l 162 468 z "},"_":{"ha":772,"x_min":-21,"x_max":788,"o":"m -21 -276 l -21 -188 l 788 -188 l 788 -276 l -21 -276 z "},"`":{"ha":463,"x_min":60,"x_max":315,"o":"m 315 810 l 217 810 l 60 1000 l 224 1000 l 315 810 z "},"a":{"ha":772,"x_min":50,"x_max":713,"o":"m 562 89 q 431 7 494 31 q 296 -16 368 -16 q 114 42 178 -16 q 50 190 50 100 q 74 287 50 243 q 137 357 98 330 q 225 397 176 383 q 334 415 261 406 q 551 457 481 433 q 552 489 552 482 q 517 594 552 564 q 378 635 471 635 q 251 605 292 635 q 191 498 210 575 l 71 515 q 125 638 87 591 q 233 711 162 686 q 396 736 303 736 q 546 715 488 736 q 631 660 604 693 q 669 577 658 627 q 675 465 675 546 l 675 302 q 683 86 675 132 q 713 0 690 41 l 586 0 q 562 89 567 38 m 551 361 q 352 315 485 334 q 245 291 277 304 q 197 251 214 277 q 180 193 180 225 q 217 112 180 144 q 326 79 254 79 q 451 110 396 79 q 532 195 506 141 q 551 317 551 236 l 551 361 z "},"b":{"ha":772,"x_min":91,"x_max":715,"o":"m 204 0 l 91 0 l 91 994 l 213 994 l 213 640 q 410 736 290 736 q 536 710 477 736 q 634 634 595 683 q 694 517 672 586 q 715 371 715 449 q 624 85 715 186 q 404 -16 532 -16 q 204 90 277 -16 l 204 0 m 203 366 q 238 178 203 236 q 394 84 296 84 q 532 154 474 84 q 591 361 591 223 q 535 569 591 502 q 399 636 479 636 q 261 567 319 636 q 203 366 203 497 z "},"c":{"ha":694,"x_min":54,"x_max":682,"o":"m 562 264 l 682 248 q 581 54 662 124 q 382 -16 500 -16 q 144 80 234 -16 q 54 357 54 177 q 93 562 54 474 q 211 693 132 649 q 382 736 290 736 q 574 677 500 736 q 670 509 649 618 l 551 490 q 491 600 534 563 q 387 636 448 636 q 237 570 295 636 q 180 361 180 504 q 235 150 180 216 q 380 84 291 84 q 500 128 452 84 q 562 264 549 172 z "},"d":{"ha":772,"x_min":47,"x_max":672,"o":"m 559 0 l 559 91 q 357 -16 490 -16 q 199 31 271 -16 q 87 164 127 79 q 47 359 47 249 q 83 555 47 467 q 191 690 119 643 q 352 736 263 736 q 468 709 417 736 q 551 637 519 682 l 551 994 l 672 994 l 672 0 l 559 0 m 173 359 q 231 153 173 221 q 369 84 290 84 q 505 150 449 84 q 561 349 561 215 q 504 566 561 497 q 363 635 447 635 q 228 569 282 635 q 173 359 173 503 z "},"e":{"ha":772,"x_min":51,"x_max":715,"o":"m 585 232 l 711 216 q 600 45 681 106 q 394 -16 519 -16 q 143 81 236 -16 q 51 354 51 178 q 144 636 51 536 q 387 736 238 736 q 623 638 532 736 q 715 361 715 540 q 714 329 715 351 l 177 329 q 244 147 184 210 q 395 84 304 84 q 509 119 462 84 q 585 232 557 155 m 184 429 l 586 429 q 540 566 578 520 q 389 636 481 636 q 247 580 304 636 q 184 429 190 524 z "},"f":{"ha":386,"x_min":13,"x_max":434,"o":"m 121 0 l 121 625 l 13 625 l 13 720 l 121 720 l 121 797 q 134 905 121 869 q 196 982 151 952 q 320 1011 240 1011 q 434 999 372 1011 l 416 892 q 344 899 378 899 q 265 876 288 899 q 242 787 242 852 l 242 720 l 382 720 l 382 625 l 242 625 l 242 0 l 121 0 z "},"g":{"ha":772,"x_min":45,"x_max":680,"o":"m 69 -60 l 188 -77 q 229 -157 195 -132 q 353 -191 275 -191 q 484 -157 438 -191 q 547 -62 530 -123 q 555 94 556 -25 q 356 0 475 0 q 126 107 208 0 q 45 364 45 214 q 82 554 45 467 q 190 689 119 642 q 357 736 261 736 q 567 633 484 736 l 567 720 l 680 720 l 680 98 q 645 -141 680 -71 q 537 -252 611 -211 q 354 -292 463 -292 q 146 -234 225 -292 q 69 -60 66 -176 m 170 373 q 227 166 170 231 q 368 101 283 101 q 509 166 452 101 q 566 369 566 231 q 507 568 566 501 q 366 635 448 635 q 227 569 284 635 q 170 373 170 503 z "},"h":{"ha":772,"x_min":92,"x_max":678,"o":"m 92 0 l 92 994 l 214 994 l 214 637 q 429 736 299 736 q 568 705 509 736 q 653 618 627 673 q 678 456 678 562 l 678 0 l 556 0 l 556 456 q 516 590 556 548 q 404 631 477 631 q 302 603 350 631 q 234 527 254 575 q 214 394 214 479 l 214 0 l 92 0 z "},"i":{"ha":309,"x_min":92,"x_max":214,"o":"m 92 854 l 92 994 l 214 994 l 214 854 l 92 854 m 92 0 l 92 720 l 214 720 l 214 0 l 92 0 z "},"j":{"ha":309,"x_min":-64,"x_max":213,"o":"m 91 852 l 91 994 l 213 994 l 213 852 l 91 852 m -64 -279 l -41 -176 q 17 -185 -4 -185 q 73 -160 54 -185 q 91 -37 91 -136 l 91 720 l 213 720 l 213 -39 q 178 -224 213 -172 q 32 -292 134 -292 q -64 -279 -18 -292 z "},"k":{"ha":694,"x_min":92,"x_max":689,"o":"m 92 0 l 92 994 l 214 994 l 214 427 l 503 720 l 661 720 l 386 453 l 689 0 l 538 0 l 300 368 l 214 286 l 214 0 l 92 0 z "},"l":{"ha":309,"x_min":89,"x_max":211,"o":"m 89 0 l 89 994 l 211 994 l 211 0 l 89 0 z "},"m":{"ha":1157,"x_min":92,"x_max":1067,"o":"m 92 0 l 92 720 l 201 720 l 201 619 q 291 704 235 672 q 419 736 347 736 q 550 703 499 736 q 623 610 602 670 q 845 736 708 736 q 1010 677 952 736 q 1067 494 1067 618 l 1067 0 l 946 0 l 946 454 q 934 559 946 527 q 891 611 922 591 q 818 631 860 631 q 692 580 742 631 q 642 418 642 530 l 642 0 l 519 0 l 519 468 q 490 590 519 549 q 392 631 460 631 q 297 604 340 631 q 233 524 253 576 q 214 374 214 472 l 214 0 l 92 0 z "},"n":{"ha":772,"x_min":92,"x_max":677,"o":"m 92 0 l 92 720 l 201 720 l 201 618 q 431 736 281 736 q 550 713 496 736 q 632 652 605 690 q 670 562 659 614 q 677 443 677 528 l 677 0 l 555 0 l 555 438 q 541 550 555 513 q 490 609 526 587 q 405 631 454 631 q 270 581 327 631 q 214 393 214 532 l 214 0 l 92 0 z "},"o":{"ha":772,"x_min":46,"x_max":721,"o":"m 46 360 q 157 656 46 560 q 384 736 250 736 q 627 639 532 736 q 721 370 721 542 q 679 152 721 231 q 558 28 637 72 q 384 -16 478 -16 q 139 81 233 -16 q 46 360 46 178 m 172 360 q 232 153 172 222 q 384 84 292 84 q 535 153 475 84 q 595 364 595 222 q 535 567 595 498 q 384 635 474 635 q 232 567 292 635 q 172 360 172 498 z "},"p":{"ha":772,"x_min":92,"x_max":717,"o":"m 92 -276 l 92 720 l 203 720 l 203 627 q 292 709 242 682 q 412 736 341 736 q 574 689 504 736 q 681 555 645 642 q 717 366 717 469 q 677 166 717 255 q 562 31 637 78 q 403 -16 486 -16 q 293 9 342 -16 q 214 75 245 35 l 214 -276 l 92 -276 m 202 356 q 258 151 202 217 q 395 84 315 84 q 534 153 476 84 q 592 366 592 222 q 535 572 592 504 q 400 641 479 641 q 262 568 322 641 q 202 356 202 495 z "},"q":{"ha":772,"x_min":49,"x_max":673,"o":"m 551 -276 l 551 77 q 471 10 522 37 q 362 -16 420 -16 q 141 86 234 -16 q 49 367 49 189 q 86 562 49 475 q 196 692 124 648 q 353 736 267 736 q 563 624 486 736 l 563 720 l 673 720 l 673 -276 l 551 -276 m 174 362 q 233 154 174 223 q 372 84 291 84 q 507 150 450 84 q 563 351 563 216 q 504 568 563 495 q 364 640 444 640 q 230 573 285 640 q 174 362 174 505 z "},"r":{"ha":463,"x_min":90,"x_max":481,"o":"m 90 0 l 90 720 l 200 720 l 200 611 q 278 712 242 688 q 356 736 313 736 q 481 697 418 736 l 439 584 q 350 610 395 610 q 278 586 310 610 q 233 519 246 562 q 212 377 212 454 l 212 0 l 90 0 z "},"s":{"ha":694,"x_min":43,"x_max":641,"o":"m 43 215 l 163 234 q 220 123 174 161 q 350 84 267 84 q 475 118 434 84 q 515 199 515 153 q 479 264 515 240 q 355 305 454 280 q 169 364 220 339 q 90 432 117 389 q 63 529 63 476 q 85 618 63 577 q 145 686 107 659 q 223 722 174 707 q 328 736 272 736 q 477 712 413 736 q 572 646 541 688 q 614 534 602 604 l 494 518 q 447 605 486 574 q 337 636 408 636 q 217 608 253 636 q 181 543 181 581 q 196 500 181 519 q 243 468 211 481 q 351 437 261 461 q 531 380 480 402 q 612 316 583 358 q 641 212 641 274 q 605 97 641 151 q 503 13 570 43 q 351 -16 435 -16 q 137 42 210 -16 q 43 215 63 100 z "},"t":{"ha":386,"x_min":24,"x_max":376,"o":"m 358 109 l 376 1 q 283 -9 324 -9 q 180 12 217 -9 q 129 67 144 33 q 114 211 114 101 l 114 625 l 24 625 l 24 720 l 114 720 l 114 899 l 235 972 l 235 720 l 358 720 l 358 625 l 235 625 l 235 204 q 242 137 235 152 q 263 113 248 122 q 304 104 277 104 q 358 109 325 104 z "},"u":{"ha":772,"x_min":89,"x_max":673,"o":"m 564 0 l 564 106 q 335 -16 479 -16 q 216 8 271 -16 q 134 70 161 33 q 96 160 107 106 q 89 274 89 196 l 89 720 l 211 720 l 211 321 q 218 192 211 225 q 267 116 230 144 q 359 89 304 89 q 463 117 414 89 q 531 194 511 145 q 551 334 551 242 l 551 720 l 673 720 l 673 0 l 564 0 z "},"v":{"ha":694,"x_min":18,"x_max":678,"o":"m 292 0 l 18 720 l 146 720 l 301 289 q 347 144 326 219 q 393 281 363 201 l 553 720 l 678 720 l 406 0 l 292 0 z "},"w":{"ha":1003,"x_min":4,"x_max":992,"o":"m 224 0 l 4 720 l 130 720 l 245 304 l 288 150 q 325 298 290 161 l 439 720 l 565 720 l 673 302 l 709 165 l 750 304 l 873 720 l 992 720 l 767 0 l 640 0 l 526 431 l 498 554 l 352 0 l 224 0 z "},"x":{"ha":694,"x_min":10,"x_max":684,"o":"m 10 0 l 273 374 l 30 720 l 182 720 l 293 551 q 343 471 324 503 q 398 550 373 515 l 519 720 l 665 720 l 416 381 l 684 0 l 534 0 l 387 224 l 347 284 l 158 0 l 10 0 z "},"y":{"ha":694,"x_min":22,"x_max":682,"o":"m 86 -277 l 73 -163 q 142 -174 113 -174 q 208 -160 183 -174 q 248 -122 232 -146 q 285 -31 259 -104 q 296 -1 288 -21 l 22 720 l 154 720 l 304 303 q 356 136 333 224 q 406 300 377 220 l 560 720 l 682 720 l 408 -12 q 340 -176 364 -131 q 265 -264 307 -236 q 165 -292 223 -292 q 86 -277 130 -292 z "},"z":{"ha":694,"x_min":27,"x_max":665,"o":"m 27 0 l 27 99 l 486 625 q 348 621 408 621 l 54 621 l 54 720 l 643 720 l 643 640 l 253 182 l 178 99 q 332 105 260 105 l 665 105 l 665 0 l 27 0 z "},"{":{"ha":464,"x_min":39,"x_max":431,"o":"m 39 415 q 124 443 91 416 q 168 517 157 470 q 179 677 178 564 q 183 826 180 790 q 206 918 189 883 q 247 973 222 952 q 309 1004 271 994 q 393 1011 335 1011 l 431 1011 l 431 905 l 410 905 q 317 879 340 905 q 294 766 294 854 q 286 541 294 588 q 244 429 274 469 q 152 359 215 390 q 260 264 227 328 q 294 54 294 200 q 296 -103 294 -78 q 324 -168 302 -149 q 410 -186 346 -186 l 431 -186 l 431 -292 l 393 -292 q 297 -281 327 -292 q 225 -231 254 -266 q 188 -142 197 -196 q 179 33 180 -89 q 168 202 178 155 q 124 276 157 249 q 39 304 91 303 l 39 415 z "},"|":{"ha":361,"x_min":127,"x_max":234,"o":"m 127 -292 l 127 1011 l 234 1011 l 234 -292 l 127 -292 z "},"}":{"ha":464,"x_min":32,"x_max":425,"o":"m 425 415 l 425 304 q 339 276 372 303 q 296 202 307 249 q 284 43 285 156 q 280 -106 283 -71 q 257 -198 274 -164 q 216 -253 241 -233 q 154 -285 192 -274 q 70 -292 128 -292 l 32 -292 l 32 -186 l 53 -186 q 146 -160 123 -186 q 170 -46 170 -135 q 176 169 170 123 q 219 289 186 244 q 311 359 252 334 q 201 458 233 397 q 170 665 170 519 q 166 823 170 798 q 139 887 161 869 q 53 905 117 905 l 32 905 l 32 1011 l 70 1011 q 166 1000 136 1011 q 238 950 210 985 q 275 861 267 915 q 284 686 283 808 q 296 517 285 564 q 339 444 307 471 q 425 415 372 416 z "},"~":{"ha":811,"x_min":59,"x_max":753,"o":"m 59 378 l 59 517 q 248 598 131 598 q 333 586 288 598 q 460 539 378 574 q 531 513 507 519 q 578 507 554 507 q 669 534 622 507 q 753 600 716 560 l 753 456 q 665 397 709 416 q 565 379 621 379 q 487 389 524 379 q 370 434 450 398 q 236 470 290 470 q 154 451 193 470 q 59 378 116 433 z "},"Ä":{"ha":926,"x_min":-2,"x_max":928,"o":"m -2 0 l 380 994 l 522 994 l 928 0 l 779 0 l 663 301 l 247 301 l 138 0 l -2 0 m 285 408 l 622 408 l 518 684 q 448 890 471 809 q 394 700 429 794 l 285 408 m 257 1055 l 257 1194 l 385 1194 l 385 1055 l 257 1055 m 510 1055 l 510 1194 l 637 1194 l 637 1055 l 510 1055 z "},"Å":{"ha":926,"x_min":-2,"x_max":928,"o":"m -2 0 l 380 994 l 522 994 l 928 0 l 779 0 l 663 301 l 247 301 l 138 0 l -2 0 m 285 408 l 622 408 l 518 684 q 448 890 471 809 q 394 700 429 794 l 285 408 m 326 1086 q 362 1171 326 1135 q 448 1207 399 1207 q 534 1171 498 1207 q 570 1083 570 1135 q 534 995 570 1031 q 449 959 498 959 q 362 995 398 959 q 326 1086 326 1031 m 378 1085 q 399 1031 378 1053 q 450 1010 420 1010 q 500 1031 479 1010 q 522 1084 522 1053 q 500 1136 522 1114 q 450 1158 479 1158 q 399 1136 420 1158 q 378 1085 378 1115 z "},"Ç":{"ha":1003,"x_min":69,"x_max":948,"o":"m 817 349 l 948 315 q 799 68 907 153 q 536 -17 692 -17 q 275 48 376 -17 q 122 238 174 114 q 69 505 69 362 q 129 775 69 660 q 297 951 188 891 q 538 1011 407 1011 q 789 935 688 1011 q 931 722 891 859 l 802 691 q 701 849 767 800 q 536 899 635 899 q 344 844 421 899 q 236 696 267 789 q 205 505 205 604 q 242 284 205 378 q 357 142 279 189 q 526 96 435 96 q 713 159 636 96 q 817 349 789 223 m 420 -104 l 456 16 l 547 16 l 524 -57 q 611 -93 582 -64 q 640 -157 640 -121 q 591 -247 640 -208 q 444 -286 543 -286 q 347 -277 389 -286 l 354 -198 q 418 -201 397 -201 q 507 -183 481 -201 q 527 -150 527 -170 q 519 -128 527 -138 q 490 -112 511 -119 q 420 -104 469 -105 z "},"É":{"ha":926,"x_min":110,"x_max":852,"o":"m 110 0 l 110 994 l 829 994 l 829 877 l 241 877 l 241 572 l 791 572 l 791 456 l 241 456 l 241 117 l 852 117 l 852 0 l 110 0 m 381 1055 l 471 1245 l 631 1245 l 482 1055 l 381 1055 z "},"Ñ":{"ha":1003,"x_min":106,"x_max":889,"o":"m 106 0 l 106 994 l 241 994 l 763 214 l 763 994 l 889 994 l 889 0 l 754 0 l 232 781 l 232 0 l 106 0 m 292 1055 q 330 1168 291 1126 q 429 1210 369 1210 q 544 1173 471 1210 q 608 1153 584 1153 q 641 1165 629 1153 q 657 1212 652 1177 l 745 1212 q 706 1096 743 1135 q 612 1057 669 1057 q 500 1095 570 1057 q 433 1120 454 1120 q 396 1103 410 1120 q 382 1055 381 1087 l 292 1055 z "},"Ö":{"ha":1080,"x_min":67,"x_max":1018,"o":"m 67 484 q 200 872 67 732 q 543 1012 333 1012 q 791 946 681 1012 q 960 763 902 880 q 1018 496 1018 645 q 957 225 1018 345 q 784 44 896 106 q 543 -17 672 -17 q 292 51 402 -17 q 124 236 181 119 q 67 484 67 353 m 203 482 q 299 199 203 302 q 542 96 396 96 q 786 200 690 96 q 882 496 882 304 q 841 708 882 618 q 721 849 800 799 q 544 899 642 899 q 303 803 404 899 q 203 482 203 707 m 350 1055 l 350 1194 l 477 1194 l 477 1055 l 350 1055 m 603 1055 l 603 1194 l 730 1194 l 730 1055 l 603 1055 z "},"Ü":{"ha":1003,"x_min":109,"x_max":891,"o":"m 760 994 l 891 994 l 891 420 q 857 182 891 270 q 735 38 823 94 q 503 -17 646 -17 q 274 31 363 -17 q 147 171 185 79 q 109 420 109 262 l 109 994 l 241 994 l 241 420 q 265 230 241 291 q 348 135 289 168 q 491 102 406 102 q 698 168 636 102 q 760 420 760 233 l 760 994 m 308 1055 l 308 1194 l 435 1194 l 435 1055 l 308 1055 m 561 1055 l 561 1194 l 688 1194 l 688 1055 l 561 1055 z "},"á":{"ha":772,"x_min":50,"x_max":713,"o":"m 562 89 q 431 7 494 31 q 296 -16 368 -16 q 114 42 178 -16 q 50 190 50 100 q 74 287 50 243 q 137 357 98 330 q 225 397 176 383 q 334 415 261 406 q 551 457 481 433 q 552 489 552 482 q 517 594 552 564 q 378 635 471 635 q 251 605 292 635 q 191 498 210 575 l 71 515 q 125 638 87 591 q 233 711 162 686 q 396 736 303 736 q 546 715 488 736 q 631 660 604 693 q 669 577 658 627 q 675 465 675 546 l 675 302 q 683 86 675 132 q 713 0 690 41 l 586 0 q 562 89 567 38 m 551 361 q 352 315 485 334 q 245 291 277 304 q 197 251 214 277 q 180 193 180 225 q 217 112 180 144 q 326 79 254 79 q 451 110 396 79 q 532 195 506 141 q 551 317 551 236 l 551 361 m 314 810 l 404 1000 l 564 1000 l 415 810 l 314 810 z "},"à":{"ha":772,"x_min":50,"x_max":713,"o":"m 562 89 q 431 7 494 31 q 296 -16 368 -16 q 114 42 178 -16 q 50 190 50 100 q 74 287 50 243 q 137 357 98 330 q 225 397 176 383 q 334 415 261 406 q 551 457 481 433 q 552 489 552 482 q 517 594 552 564 q 378 635 471 635 q 251 605 292 635 q 191 498 210 575 l 71 515 q 125 638 87 591 q 233 711 162 686 q 396 736 303 736 q 546 715 488 736 q 631 660 604 693 q 669 577 658 627 q 675 465 675 546 l 675 302 q 683 86 675 132 q 713 0 690 41 l 586 0 q 562 89 567 38 m 551 361 q 352 315 485 334 q 245 291 277 304 q 197 251 214 277 q 180 193 180 225 q 217 112 180 144 q 326 79 254 79 q 451 110 396 79 q 532 195 506 141 q 551 317 551 236 l 551 361 m 485 810 l 387 810 l 230 1000 l 393 1000 l 485 810 z "},"â":{"ha":772,"x_min":50,"x_max":713,"o":"m 562 89 q 431 7 494 31 q 296 -16 368 -16 q 114 42 178 -16 q 50 190 50 100 q 74 287 50 243 q 137 357 98 330 q 225 397 176 383 q 334 415 261 406 q 551 457 481 433 q 552 489 552 482 q 517 594 552 564 q 378 635 471 635 q 251 605 292 635 q 191 498 210 575 l 71 515 q 125 638 87 591 q 233 711 162 686 q 396 736 303 736 q 546 715 488 736 q 631 660 604 693 q 669 577 658 627 q 675 465 675 546 l 675 302 q 683 86 675 132 q 713 0 690 41 l 586 0 q 562 89 567 38 m 551 361 q 352 315 485 334 q 245 291 277 304 q 197 251 214 277 q 180 193 180 225 q 217 112 180 144 q 326 79 254 79 q 451 110 396 79 q 532 195 506 141 q 551 317 551 236 l 551 361 m 384 925 l 307 810 l 168 810 l 314 1000 l 444 1000 l 597 810 l 458 810 l 384 925 z "},"ä":{"ha":772,"x_min":50,"x_max":713,"o":"m 562 89 q 431 7 494 31 q 296 -16 368 -16 q 114 42 178 -16 q 50 190 50 100 q 74 287 50 243 q 137 357 98 330 q 225 397 176 383 q 334 415 261 406 q 551 457 481 433 q 552 489 552 482 q 517 594 552 564 q 378 635 471 635 q 251 605 292 635 q 191 498 210 575 l 71 515 q 125 638 87 591 q 233 711 162 686 q 396 736 303 736 q 546 715 488 736 q 631 660 604 693 q 669 577 658 627 q 675 465 675 546 l 675 302 q 683 86 675 132 q 713 0 690 41 l 586 0 q 562 89 567 38 m 551 361 q 352 315 485 334 q 245 291 277 304 q 197 251 214 277 q 180 193 180 225 q 217 112 180 144 q 326 79 254 79 q 451 110 396 79 q 532 195 506 141 q 551 317 551 236 l 551 361 m 192 861 l 192 1000 l 319 1000 l 319 861 l 192 861 m 445 861 l 445 1000 l 572 1000 l 572 861 l 445 861 z "},"ã":{"ha":772,"x_min":50,"x_max":713,"o":"m 562 89 q 431 7 494 31 q 296 -16 368 -16 q 114 42 178 -16 q 50 190 50 100 q 74 287 50 243 q 137 357 98 330 q 225 397 176 383 q 334 415 261 406 q 551 457 481 433 q 552 489 552 482 q 517 594 552 564 q 378 635 471 635 q 251 605 292 635 q 191 498 210 575 l 71 515 q 125 638 87 591 q 233 711 162 686 q 396 736 303 736 q 546 715 488 736 q 631 660 604 693 q 669 577 658 627 q 675 465 675 546 l 675 302 q 683 86 675 132 q 713 0 690 41 l 586 0 q 562 89 567 38 m 551 361 q 352 315 485 334 q 245 291 277 304 q 197 251 214 277 q 180 193 180 225 q 217 112 180 144 q 326 79 254 79 q 451 110 396 79 q 532 195 506 141 q 551 317 551 236 l 551 361 m 155 827 q 194 939 155 897 q 293 981 233 981 q 408 945 335 981 q 471 924 448 924 q 505 936 493 924 q 521 983 516 948 l 609 983 q 570 867 607 906 q 476 829 533 829 q 363 867 433 829 q 297 891 318 891 q 260 875 274 891 q 245 827 245 859 l 155 827 z "},"å":{"ha":772,"x_min":50,"x_max":713,"o":"m 562 89 q 431 7 494 31 q 296 -16 368 -16 q 114 42 178 -16 q 50 190 50 100 q 74 287 50 243 q 137 357 98 330 q 225 397 176 383 q 334 415 261 406 q 551 457 481 433 q 552 489 552 482 q 517 594 552 564 q 378 635 471 635 q 251 605 292 635 q 191 498 210 575 l 71 515 q 125 638 87 591 q 233 711 162 686 q 396 736 303 736 q 546 715 488 736 q 631 660 604 693 q 669 577 658 627 q 675 465 675 546 l 675 302 q 683 86 675 132 q 713 0 690 41 l 586 0 q 562 89 567 38 m 551 361 q 352 315 485 334 q 245 291 277 304 q 197 251 214 277 q 180 193 180 225 q 217 112 180 144 q 326 79 254 79 q 451 110 396 79 q 532 195 506 141 q 551 317 551 236 l 551 361 m 260 907 q 296 993 260 957 q 382 1029 332 1029 q 468 992 432 1029 q 504 905 504 956 q 468 817 504 852 q 382 781 432 781 q 296 817 332 781 q 260 907 260 853 m 311 907 q 333 853 311 875 q 383 831 354 831 q 434 853 412 831 q 455 905 455 875 q 434 958 455 936 q 383 979 413 979 q 333 958 354 979 q 311 907 311 937 z "},"ç":{"ha":694,"x_min":54,"x_max":682,"o":"m 562 264 l 682 248 q 581 54 662 124 q 382 -16 500 -16 q 144 80 234 -16 q 54 357 54 177 q 93 562 54 474 q 211 693 132 649 q 382 736 290 736 q 574 677 500 736 q 670 509 649 618 l 551 490 q 491 600 534 563 q 387 636 448 636 q 237 570 295 636 q 180 361 180 504 q 235 150 180 216 q 380 84 291 84 q 500 128 452 84 q 562 264 549 172 m 279 -91 l 314 29 l 405 29 l 382 -43 q 469 -79 440 -50 q 498 -143 498 -108 q 450 -233 498 -194 q 302 -272 401 -272 q 205 -264 247 -272 l 212 -184 q 276 -187 256 -187 q 366 -170 340 -187 q 385 -136 385 -156 q 377 -115 385 -124 q 349 -98 370 -105 q 279 -91 328 -92 z "},"é":{"ha":772,"x_min":51,"x_max":715,"o":"m 585 232 l 711 216 q 600 45 681 106 q 394 -16 519 -16 q 143 81 236 -16 q 51 354 51 178 q 144 636 51 536 q 387 736 238 736 q 623 638 532 736 q 715 361 715 540 q 714 329 715 351 l 177 329 q 244 147 184 210 q 395 84 304 84 q 509 119 462 84 q 585 232 557 155 m 184 429 l 586 429 q 540 566 578 520 q 389 636 481 636 q 247 580 304 636 q 184 429 190 524 m 315 810 l 406 1000 l 566 1000 l 416 810 l 315 810 z "},"è":{"ha":772,"x_min":51,"x_max":715,"o":"m 585 232 l 711 216 q 600 45 681 106 q 394 -16 519 -16 q 143 81 236 -16 q 51 354 51 178 q 144 636 51 536 q 387 736 238 736 q 623 638 532 736 q 715 361 715 540 q 714 329 715 351 l 177 329 q 244 147 184 210 q 395 84 304 84 q 509 119 462 84 q 585 232 557 155 m 184 429 l 586 429 q 540 566 578 520 q 389 636 481 636 q 247 580 304 636 q 184 429 190 524 m 465 810 l 367 810 l 210 1000 l 374 1000 l 465 810 z "},"ê":{"ha":772,"x_min":51,"x_max":715,"o":"m 585 232 l 711 216 q 600 45 681 106 q 394 -16 519 -16 q 143 81 236 -16 q 51 354 51 178 q 144 636 51 536 q 387 736 238 736 q 623 638 532 736 q 715 361 715 540 q 714 329 715 351 l 177 329 q 244 147 184 210 q 395 84 304 84 q 509 119 462 84 q 585 232 557 155 m 184 429 l 586 429 q 540 566 578 520 q 389 636 481 636 q 247 580 304 636 q 184 429 190 524 m 385 925 l 308 810 l 168 810 l 315 1000 l 445 1000 l 597 810 l 459 810 l 385 925 z "},"ë":{"ha":772,"x_min":51,"x_max":715,"o":"m 585 232 l 711 216 q 600 45 681 106 q 394 -16 519 -16 q 143 81 236 -16 q 51 354 51 178 q 144 636 51 536 q 387 736 238 736 q 623 638 532 736 q 715 361 715 540 q 714 329 715 351 l 177 329 q 244 147 184 210 q 395 84 304 84 q 509 119 462 84 q 585 232 557 155 m 184 429 l 586 429 q 540 566 578 520 q 389 636 481 636 q 247 580 304 636 q 184 429 190 524 m 193 861 l 193 1000 l 320 1000 l 320 861 l 193 861 m 446 861 l 446 1000 l 573 1000 l 573 861 l 446 861 z "},"í":{"ha":386,"x_min":128,"x_max":378,"o":"m 134 0 l 134 720 l 256 720 l 256 0 l 134 0 m 128 810 l 218 1000 l 378 1000 l 229 810 l 128 810 z "},"ì":{"ha":386,"x_min":24,"x_max":279,"o":"m 134 0 l 134 720 l 256 720 l 256 0 l 134 0 m 279 810 l 180 810 l 24 1000 l 187 1000 l 279 810 z "},"î":{"ha":386,"x_min":-12,"x_max":418,"o":"m 134 0 l 134 720 l 256 720 l 256 0 l 134 0 m 205 925 l 128 810 l -12 810 l 135 1000 l 265 1000 l 418 810 l 279 810 l 205 925 z "},"ï":{"ha":386,"x_min":6,"x_max":387,"o":"m 134 0 l 134 720 l 256 720 l 256 0 l 134 0 m 6 861 l 6 1000 l 134 1000 l 134 861 l 6 861 m 259 861 l 259 1000 l 387 1000 l 387 861 l 259 861 z "},"ñ":{"ha":772,"x_min":92,"x_max":677,"o":"m 92 0 l 92 720 l 201 720 l 201 618 q 431 736 281 736 q 550 713 496 736 q 632 652 605 690 q 670 562 659 614 q 677 443 677 528 l 677 0 l 555 0 l 555 438 q 541 550 555 513 q 490 609 526 587 q 405 631 454 631 q 270 581 327 631 q 214 393 214 532 l 214 0 l 92 0 m 178 827 q 216 939 177 897 q 315 981 255 981 q 430 945 357 981 q 494 924 470 924 q 527 936 515 924 q 543 983 538 948 l 631 983 q 592 867 629 906 q 498 829 555 829 q 386 867 456 829 q 319 891 340 891 q 282 875 296 891 q 268 827 267 859 l 178 827 z "},"ó":{"ha":772,"x_min":46,"x_max":721,"o":"m 46 360 q 157 656 46 560 q 384 736 250 736 q 627 639 532 736 q 721 370 721 542 q 679 152 721 231 q 558 28 637 72 q 384 -16 478 -16 q 139 81 233 -16 q 46 360 46 178 m 172 360 q 232 153 172 222 q 384 84 292 84 q 535 153 475 84 q 595 364 595 222 q 535 567 595 498 q 384 635 474 635 q 232 567 292 635 q 172 360 172 498 m 316 810 l 406 1000 l 566 1000 l 417 810 l 316 810 z "},"ò":{"ha":772,"x_min":46,"x_max":721,"o":"m 46 360 q 157 656 46 560 q 384 736 250 736 q 627 639 532 736 q 721 370 721 542 q 679 152 721 231 q 558 28 637 72 q 384 -16 478 -16 q 139 81 233 -16 q 46 360 46 178 m 172 360 q 232 153 172 222 q 384 84 292 84 q 535 153 475 84 q 595 364 595 222 q 535 567 595 498 q 384 635 474 635 q 232 567 292 635 q 172 360 172 498 m 466 810 l 368 810 l 211 1000 l 374 1000 l 466 810 z "},"ô":{"ha":772,"x_min":46,"x_max":721,"o":"m 46 360 q 157 656 46 560 q 384 736 250 736 q 627 639 532 736 q 721 370 721 542 q 679 152 721 231 q 558 28 637 72 q 384 -16 478 -16 q 139 81 233 -16 q 46 360 46 178 m 172 360 q 232 153 172 222 q 384 84 292 84 q 535 153 475 84 q 595 364 595 222 q 535 567 595 498 q 384 635 474 635 q 232 567 292 635 q 172 360 172 498 m 385 925 l 309 810 l 169 810 l 315 1000 l 446 1000 l 598 810 l 460 810 l 385 925 z "},"ö":{"ha":772,"x_min":46,"x_max":721,"o":"m 46 360 q 157 656 46 560 q 384 736 250 736 q 627 639 532 736 q 721 370 721 542 q 679 152 721 231 q 558 28 637 72 q 384 -16 478 -16 q 139 81 233 -16 q 46 360 46 178 m 172 360 q 232 153 172 222 q 384 84 292 84 q 535 153 475 84 q 595 364 595 222 q 535 567 595 498 q 384 635 474 635 q 232 567 292 635 q 172 360 172 498 m 193 861 l 193 1000 l 321 1000 l 321 861 l 193 861 m 446 861 l 446 1000 l 574 1000 l 574 861 l 446 861 z "},"õ":{"ha":772,"x_min":46,"x_max":721,"o":"m 46 360 q 157 656 46 560 q 384 736 250 736 q 627 639 532 736 q 721 370 721 542 q 679 152 721 231 q 558 28 637 72 q 384 -16 478 -16 q 139 81 233 -16 q 46 360 46 178 m 172 360 q 232 153 172 222 q 384 84 292 84 q 535 153 475 84 q 595 364 595 222 q 535 567 595 498 q 384 635 474 635 q 232 567 292 635 q 172 360 172 498 m 157 827 q 195 939 156 897 q 294 981 234 981 q 409 945 336 981 q 473 924 449 924 q 506 936 494 924 q 522 983 517 948 l 610 983 q 571 867 608 906 q 477 829 534 829 q 365 867 435 829 q 298 891 319 891 q 261 875 275 891 q 247 827 246 859 l 157 827 z "},"ú":{"ha":772,"x_min":89,"x_max":673,"o":"m 564 0 l 564 106 q 335 -16 479 -16 q 216 8 271 -16 q 134 70 161 33 q 96 160 107 106 q 89 274 89 196 l 89 720 l 211 720 l 211 321 q 218 192 211 225 q 267 116 230 144 q 359 89 304 89 q 463 117 414 89 q 531 194 511 145 q 551 334 551 242 l 551 720 l 673 720 l 673 0 l 564 0 m 307 810 l 397 1000 l 557 1000 l 408 810 l 307 810 z "},"ù":{"ha":772,"x_min":89,"x_max":673,"o":"m 564 0 l 564 106 q 335 -16 479 -16 q 216 8 271 -16 q 134 70 161 33 q 96 160 107 106 q 89 274 89 196 l 89 720 l 211 720 l 211 321 q 218 192 211 225 q 267 116 230 144 q 359 89 304 89 q 463 117 414 89 q 531 194 511 145 q 551 334 551 242 l 551 720 l 673 720 l 673 0 l 564 0 m 494 810 l 395 810 l 239 1000 l 402 1000 l 494 810 z "},"û":{"ha":772,"x_min":89,"x_max":673,"o":"m 564 0 l 564 106 q 335 -16 479 -16 q 216 8 271 -16 q 134 70 161 33 q 96 160 107 106 q 89 274 89 196 l 89 720 l 211 720 l 211 321 q 218 192 211 225 q 267 116 230 144 q 359 89 304 89 q 463 117 414 89 q 531 194 511 145 q 551 334 551 242 l 551 720 l 673 720 l 673 0 l 564 0 m 382 925 l 306 810 l 166 810 l 313 1000 l 443 1000 l 595 810 l 457 810 l 382 925 z "},"ü":{"ha":772,"x_min":89,"x_max":673,"o":"m 564 0 l 564 106 q 335 -16 479 -16 q 216 8 271 -16 q 134 70 161 33 q 96 160 107 106 q 89 274 89 196 l 89 720 l 211 720 l 211 321 q 218 192 211 225 q 267 116 230 144 q 359 89 304 89 q 463 117 414 89 q 531 194 511 145 q 551 334 551 242 l 551 720 l 673 720 l 673 0 l 564 0 m 191 861 l 191 1000 l 318 1000 l 318 861 l 191 861 m 444 861 l 444 1000 l 571 1000 l 571 861 l 444 861 z "},"†":{"ha":772,"x_min":50,"x_max":715,"o":"m 320 -235 l 320 587 l 50 587 l 50 696 l 320 696 l 320 971 l 442 971 l 442 696 l 715 696 l 715 587 l 442 587 l 442 -235 l 320 -235 z "},"°":{"ha":555,"x_min":87,"x_max":463,"o":"m 87 823 q 142 956 87 901 q 275 1011 197 1011 q 408 956 353 1011 q 463 823 463 901 q 408 690 463 745 q 275 635 353 635 q 142 690 197 635 q 87 823 87 745 m 161 823 q 194 742 161 776 q 275 709 228 709 q 356 742 322 709 q 389 823 389 776 q 356 904 389 871 q 275 938 322 938 q 194 904 228 938 q 161 823 161 871 z "},"¢":{"ha":772,"x_min":73,"x_max":701,"o":"m 505 606 l 354 87 q 395 81 376 81 q 517 129 466 81 q 580 264 568 177 l 701 250 q 595 53 679 125 q 397 -19 511 -19 q 328 -9 364 -19 l 248 -277 l 172 -256 l 250 14 q 122 139 172 52 q 73 357 73 226 q 112 564 73 477 q 231 694 152 650 q 392 737 310 737 q 460 732 416 737 l 536 994 l 611 972 l 535 710 q 638 632 602 681 q 688 509 674 583 l 570 490 q 505 606 552 566 m 433 637 q 399 640 411 640 q 295 609 343 640 q 222 513 246 578 q 198 363 198 448 q 220 212 198 273 q 281 120 241 150 l 433 637 z "},"£":{"ha":772,"x_min":18,"x_max":734,"o":"m 269 549 l 482 549 l 482 448 l 290 448 q 302 389 302 418 q 274 264 302 330 q 182 130 246 198 q 279 144 235 144 q 406 127 336 144 q 564 100 523 100 q 694 138 614 100 l 734 26 q 637 -9 671 -1 q 569 -17 603 -17 q 511 -12 541 -17 q 424 13 493 -8 q 334 39 354 35 q 270 44 302 44 q 166 27 221 44 q 65 -19 111 10 l 18 98 q 129 201 83 134 q 174 364 174 268 q 163 448 174 406 l 30 448 l 30 549 l 134 549 q 106 660 112 625 q 100 728 100 694 q 204 948 100 869 q 408 1011 288 1011 q 610 944 530 1011 q 708 754 690 876 l 587 736 q 526 864 576 817 q 405 911 475 911 q 280 862 330 911 q 230 745 230 814 q 269 549 230 670 z "},"§":{"ha":772,"x_min":55,"x_max":709,"o":"m 97 -47 l 220 -30 q 280 -154 239 -118 q 393 -189 321 -189 q 501 -154 462 -189 q 540 -71 540 -119 q 515 -7 540 -37 q 285 159 473 43 q 145 255 184 220 q 80 338 105 290 q 55 437 55 385 q 96 555 55 502 q 208 629 136 608 q 140 714 159 675 q 120 797 120 753 q 188 947 120 884 q 368 1011 256 1011 q 566 951 494 1011 q 651 776 637 890 l 524 763 q 474 878 510 846 q 378 911 439 911 q 278 877 316 911 q 239 803 239 844 q 264 738 239 768 q 471 589 302 692 q 615 493 578 524 q 686 409 663 452 q 709 315 709 366 q 659 184 709 238 q 555 121 631 153 q 636 32 609 79 q 663 -70 663 -16 q 629 -183 663 -130 q 531 -264 595 -236 q 393 -292 467 -292 q 188 -228 264 -292 q 97 -47 112 -163 m 494 165 q 569 225 544 191 q 593 292 593 260 q 558 374 593 331 q 406 488 522 416 q 267 582 313 545 q 189 519 212 551 q 165 450 165 488 q 197 369 165 408 q 337 266 228 330 q 494 165 428 212 z "},"•":{"ha":486,"x_min":74,"x_max":418,"o":"m 74 487 q 124 608 74 558 q 245 659 175 659 q 367 608 317 659 q 418 487 418 558 q 367 365 418 416 q 245 315 317 315 q 124 365 175 315 q 74 487 74 416 z "},"¶":{"ha":746,"x_min":1,"x_max":751,"o":"m 275 -276 l 275 433 q 74 515 148 439 q 1 708 1 591 q 82 917 1 839 q 321 994 164 994 l 751 994 l 751 877 l 653 877 l 653 -276 l 538 -276 l 538 877 l 387 877 l 387 -276 l 275 -276 z "},"ß":{"ha":848,"x_min":104,"x_max":805,"o":"m 104 0 l 104 677 q 134 868 104 802 q 235 973 164 935 q 393 1011 305 1011 q 578 952 511 1011 q 645 817 645 894 q 633 745 645 782 q 589 654 621 709 q 550 578 558 600 q 542 541 542 557 q 557 498 542 519 q 639 432 571 476 q 762 335 731 372 q 805 212 805 283 q 735 50 805 117 q 557 -17 666 -17 q 408 29 472 -17 q 311 146 343 75 l 416 195 q 484 108 450 132 q 555 83 518 83 q 644 119 607 83 q 680 201 680 154 q 659 267 680 239 q 583 326 644 284 q 444 442 470 404 q 416 522 416 481 q 426 575 416 548 q 470 662 435 602 q 515 751 505 722 q 526 804 526 781 q 489 879 526 846 q 391 911 452 911 q 272 866 318 911 q 226 672 226 821 l 226 0 l 104 0 z "},"®":{"ha":1023,"x_min":2,"x_max":1025,"o":"m 514 1011 q 766 945 643 1011 q 957 756 888 879 q 1025 499 1025 633 q 958 245 1025 367 q 769 55 890 123 q 514 -12 647 -12 q 259 55 381 -12 q 70 245 138 123 q 2 499 2 367 q 71 756 2 633 q 262 945 140 879 q 514 1011 385 1011 m 514 926 q 304 871 406 926 q 144 713 202 816 q 87 499 87 610 q 143 287 87 389 q 302 129 200 186 q 514 73 404 73 q 726 129 625 73 q 884 287 828 186 q 941 499 941 389 q 883 713 941 610 q 724 871 826 816 q 514 926 621 926 m 290 216 l 290 767 l 479 767 q 619 752 576 767 q 688 699 663 736 q 714 618 714 661 q 671 513 714 557 q 557 463 628 468 q 604 433 586 450 q 685 324 637 401 l 752 216 l 644 216 l 595 303 q 502 431 537 406 q 431 450 477 450 l 378 450 l 378 216 l 290 216 m 378 526 l 486 526 q 592 549 564 526 q 620 610 620 572 q 606 654 620 635 q 569 683 593 673 q 479 692 545 692 l 378 692 l 378 526 z "},"©":{"ha":1023,"x_min":2,"x_max":1025,"o":"m 514 1011 q 766 945 643 1011 q 957 756 888 879 q 1025 499 1025 633 q 958 245 1025 367 q 769 55 890 123 q 514 -12 647 -12 q 259 55 381 -12 q 70 245 138 123 q 2 499 2 367 q 71 756 2 633 q 262 945 140 879 q 514 1011 385 1011 m 514 926 q 304 871 406 926 q 144 713 202 816 q 87 499 87 610 q 143 287 87 389 q 302 129 200 186 q 514 73 404 73 q 726 129 625 73 q 884 287 828 186 q 941 499 941 389 q 883 713 941 610 q 724 871 826 816 q 514 926 621 926 m 678 416 l 762 392 q 675 257 741 307 q 515 206 609 206 q 321 283 395 206 q 246 498 246 361 q 280 653 246 587 q 377 753 314 720 q 520 787 439 787 q 670 744 610 787 q 751 627 730 701 l 671 607 q 611 684 650 657 q 517 711 571 711 q 389 655 439 711 q 338 496 338 600 q 386 339 338 392 q 510 286 434 286 q 617 321 571 286 q 678 416 663 356 z "},"™":{"ha":1389,"x_min":153,"x_max":1209,"o":"m 332 441 l 332 912 l 153 912 l 153 994 l 604 994 l 604 912 l 424 912 l 424 441 l 332 441 m 666 441 l 666 994 l 802 994 l 941 553 l 1076 994 l 1209 994 l 1209 441 l 1125 441 l 1125 905 l 983 441 l 899 441 l 751 912 l 751 441 l 666 441 z "},"´":{"ha":463,"x_min":151,"x_max":401,"o":"m 151 810 l 241 1000 l 401 1000 l 252 810 l 151 810 z "},"¨":{"ha":463,"x_min":41,"x_max":422,"o":"m 41 861 l 41 1000 l 169 1000 l 169 861 l 41 861 m 294 861 l 294 1000 l 422 1000 l 422 861 l 294 861 z "},"≠":{"ha":762,"x_min":53,"x_max":709,"o":"m 336 283 l 204 -19 l 112 -19 l 244 283 l 53 283 l 53 397 l 294 397 l 377 585 l 53 585 l 53 699 l 427 699 l 559 1000 l 650 1000 l 518 699 l 709 699 l 709 585 l 468 585 l 386 397 l 709 397 l 709 283 l 336 283 z "},"Æ":{"ha":1389,"x_min":1,"x_max":1313,"o":"m 1 0 l 479 994 l 1295 994 l 1295 877 l 795 877 l 795 571 l 1259 571 l 1259 454 l 795 454 l 795 117 l 1313 117 l 1313 0 l 663 0 l 663 287 l 279 287 l 143 0 l 1 0 m 334 404 l 663 404 l 663 877 l 564 877 l 334 404 z "},"Ø":{"ha":1080,"x_min":56,"x_max":1029,"o":"m 848 903 l 962 1031 l 1029 974 l 909 840 q 988 688 968 753 q 1015 496 1015 602 q 954 224 1015 344 q 780 44 892 105 q 543 -17 669 -17 q 374 9 450 -17 q 237 87 315 30 l 123 -40 l 56 17 l 176 151 q 87 323 109 252 q 64 495 64 395 q 125 768 64 648 q 297 949 186 888 q 542 1011 407 1011 q 701 987 633 1011 q 848 903 769 963 m 766 812 q 655 880 703 862 q 543 899 607 899 q 297 798 394 899 q 200 497 200 697 q 215 357 200 418 q 260 245 226 312 l 766 812 m 822 742 l 318 178 q 414 118 370 135 q 539 96 472 96 q 783 200 687 96 q 880 493 880 304 q 822 742 880 634 z "},"∞":{"ha":990,"x_min":104,"x_max":888,"o":"m 467 551 q 578 669 538 640 q 693 708 633 708 q 826 656 764 708 q 888 490 888 605 q 865 365 888 410 q 793 291 842 319 q 693 263 745 263 q 578 302 633 263 q 467 420 538 331 q 271 304 375 304 q 154 356 203 304 q 104 486 104 408 q 154 614 104 562 q 271 667 203 667 q 467 551 375 667 m 514 486 q 622 361 573 395 q 692 338 653 338 q 778 376 743 338 q 813 484 813 414 q 778 593 813 555 q 689 631 742 631 q 627 612 656 631 q 514 486 587 586 m 420 486 q 334 573 366 553 q 271 592 301 592 q 206 564 232 592 q 180 488 180 536 q 207 411 180 439 q 273 382 234 382 q 420 486 341 382 z "},"±":{"ha":762,"x_min":53,"x_max":709,"o":"m 323 176 l 323 450 l 53 450 l 53 563 l 323 563 l 323 833 l 439 833 l 439 563 l 709 563 l 709 450 l 439 450 l 439 176 l 323 176 m 709 0 l 53 0 l 53 114 l 709 114 l 709 0 z "},"≤":{"ha":762,"x_min":52,"x_max":711,"o":"m 52 517 l 52 631 l 711 909 l 711 787 l 189 573 l 711 357 l 711 235 l 52 517 m 709 72 l 53 72 l 53 185 l 709 185 l 709 72 z "},"≥":{"ha":762,"x_min":52,"x_max":711,"o":"m 711 517 l 52 235 l 52 357 l 574 573 l 52 787 l 52 909 l 711 631 l 711 517 m 709 72 l 53 72 l 53 185 l 709 185 l 709 72 z "},"¥":{"ha":772,"x_min":-2,"x_max":768,"o":"m 323 0 l 323 220 l 42 220 l 42 315 l 323 315 l 323 412 l 42 412 l 42 512 l 273 512 l -2 994 l 134 994 l 330 644 q 382 540 363 585 q 437 650 397 576 l 623 994 l 768 994 l 494 512 l 725 512 l 725 412 l 446 412 l 446 315 l 725 315 l 725 220 l 446 220 l 446 0 l 323 0 z "},"µ":{"ha":800,"x_min":109,"x_max":690,"o":"m 690 720 l 690 0 l 581 0 l 581 85 q 511 11 546 31 q 401 -17 464 -17 q 301 5 345 -17 q 229 73 269 22 l 229 -276 l 109 -276 l 109 720 l 229 720 l 229 415 q 247 200 229 249 q 304 122 264 151 q 395 94 344 94 q 492 123 450 94 q 553 200 535 153 q 570 413 570 248 l 570 720 l 690 720 z "},"∂":{"ha":686,"x_min":38,"x_max":660,"o":"m 289 772 l 197 812 q 311 965 245 919 q 441 1011 378 1011 q 535 984 493 1011 q 597 923 576 958 q 645 796 629 869 q 660 628 660 723 q 601 280 660 433 q 443 56 543 128 q 247 -17 343 -17 q 96 45 154 -17 q 38 218 38 106 q 142 481 38 372 q 582 627 275 621 q 566 800 579 741 q 519 892 552 860 q 443 924 487 924 q 361 891 401 924 q 289 772 321 857 m 579 540 q 337 494 414 530 q 210 374 260 457 q 160 205 160 291 q 195 113 160 149 q 275 76 229 76 q 384 113 326 76 q 513 272 463 165 q 579 540 563 380 z "},"∑":{"ha":990,"x_min":83,"x_max":940,"o":"m 94 1011 l 933 1011 l 933 900 l 263 900 l 675 374 l 235 -183 l 940 -183 l 940 -292 l 83 -292 l 83 -165 l 503 369 l 94 892 l 94 1011 z "},"∏":{"ha":1143,"x_min":109,"x_max":1033,"o":"m 109 1011 l 1033 1011 l 1033 -292 l 903 -292 l 903 893 l 240 893 l 240 -292 l 109 -292 l 109 1011 z "},"∫":{"ha":380,"x_min":0,"x_max":380,"o":"m 136 643 l 148 1003 q 182 1175 154 1107 q 232 1241 200 1219 q 295 1263 264 1263 q 354 1241 329 1263 q 380 1191 380 1218 q 362 1140 380 1159 q 317 1120 344 1120 q 266 1145 294 1120 q 239 1158 250 1158 q 219 1148 227 1158 q 212 1115 212 1139 q 218 1017 212 1086 q 243 566 243 739 q 232 167 243 520 q 171 -104 227 -33 q 80 -149 134 -149 q 22 -126 45 -149 q 0 -67 0 -103 q 17 -18 0 -37 q 61 0 35 0 q 108 -22 88 0 q 141 -43 127 -43 q 160 -34 153 -43 q 168 -2 168 -24 q 161 79 168 26 q 136 643 136 293 z "},"ª":{"ha":514,"x_min":32,"x_max":487,"o":"m 372 578 q 198 506 289 506 q 77 548 121 506 q 32 654 32 589 q 43 711 32 687 q 75 755 54 736 q 130 785 96 774 q 197 800 154 793 l 297 814 q 362 828 346 824 q 353 892 361 876 q 320 920 344 908 q 256 932 296 932 q 176 910 202 932 q 143 847 149 888 l 50 870 q 110 971 58 930 q 257 1011 161 1011 q 414 970 368 1011 q 460 847 460 928 l 460 684 l 459 643 q 487 518 459 552 l 387 518 q 372 578 373 545 m 361 749 q 231 724 326 739 q 152 698 170 715 q 133 654 133 680 q 156 607 133 627 q 221 587 179 587 q 307 614 271 587 q 356 679 344 640 q 361 749 361 692 z "},"º":{"ha":507,"x_min":31,"x_max":475,"o":"m 253 1011 q 413 943 351 1011 q 475 756 475 876 q 413 570 475 637 q 254 502 351 502 q 93 568 155 502 q 31 753 31 635 q 93 943 31 876 q 253 1011 155 1011 m 253 921 q 164 882 198 921 q 131 756 131 844 q 165 631 131 671 q 253 591 199 591 q 341 631 307 591 q 375 760 375 671 q 341 882 375 842 q 253 921 307 921 z "},"Ω":{"ha":1067,"x_min":86,"x_max":1000,"o":"m 336 109 q 224 197 263 154 q 134 350 165 262 q 102 544 102 437 q 156 788 102 677 q 312 960 210 900 q 548 1019 415 1019 q 898 847 776 1019 q 987 543 987 721 q 950 341 987 429 q 854 191 913 254 q 753 109 819 151 l 1000 113 l 1000 0 l 610 0 l 610 120 q 694 173 665 147 q 777 271 743 214 q 828 393 811 328 q 846 527 846 457 q 812 715 846 621 q 710 859 779 810 q 545 909 642 909 q 345 827 416 909 q 245 529 245 713 q 307 276 245 382 q 477 122 369 171 l 477 0 l 86 0 l 86 114 l 336 109 z "},"æ":{"ha":1235,"x_min":46,"x_max":1179,"o":"m 1176 220 q 1061 45 1142 107 q 859 -16 979 -16 q 708 16 772 -16 q 591 118 643 49 q 448 16 520 49 q 292 -16 376 -16 q 111 44 176 -16 q 46 190 46 104 q 80 299 46 248 q 173 377 113 351 q 365 420 233 404 q 536 454 467 434 q 536 481 536 471 q 501 601 536 567 q 376 635 465 635 q 277 621 317 635 q 217 581 236 607 q 184 497 197 555 l 66 511 q 120 637 85 591 q 222 710 156 684 q 378 736 289 736 q 560 703 491 736 q 627 640 600 683 q 726 712 671 687 q 859 736 781 736 q 1040 683 968 736 q 1145 543 1112 630 q 1179 370 1179 455 q 1177 329 1179 357 l 657 329 q 681 187 659 231 q 754 114 704 143 q 863 84 804 84 q 982 124 933 84 q 1048 237 1030 164 l 1176 220 m 657 429 l 1053 429 q 992 586 1044 536 q 858 635 941 635 q 718 581 772 635 q 657 429 663 527 m 538 361 q 319 312 484 338 q 216 277 245 300 q 176 194 176 245 q 212 113 176 146 q 316 80 248 80 q 452 119 394 80 q 528 215 510 157 q 538 361 538 250 z "},"ø":{"ha":848,"x_min":87,"x_max":762,"o":"m 623 677 l 690 764 l 755 717 l 683 623 q 741 517 726 565 q 762 359 762 450 q 648 60 762 156 q 424 -16 555 -16 q 233 38 316 -16 l 162 -54 l 98 -5 l 172 90 q 115 182 132 136 q 87 350 87 256 q 187 645 87 554 q 421 736 287 736 q 524 722 477 736 q 623 677 570 708 m 555 588 q 425 635 493 635 q 274 566 335 635 q 213 360 213 497 q 248 190 213 258 l 555 588 m 606 522 l 301 127 q 420 84 354 84 q 576 153 515 84 q 637 361 637 222 q 629 451 637 412 q 606 522 624 479 z "},"¿":{"ha":848,"x_min":107,"x_max":748,"o":"m 497 720 l 497 581 l 358 581 l 358 720 l 497 720 m 489 475 q 490 441 490 452 q 469 314 490 366 q 421 235 454 275 q 333 150 397 205 q 251 61 270 94 q 233 -12 233 28 q 288 -137 233 -83 q 425 -191 344 -191 q 554 -142 502 -191 q 623 10 607 -93 l 748 -4 q 647 -216 731 -142 q 427 -291 564 -291 q 194 -212 280 -291 q 107 -20 107 -132 q 137 100 107 46 q 256 233 168 155 q 335 312 317 287 q 362 370 353 337 q 372 475 370 402 l 489 475 z "},"¡":{"ha":463,"x_min":157,"x_max":309,"o":"m 303 720 l 303 581 l 163 581 l 163 720 l 303 720 m 271 473 l 309 -54 l 309 -274 l 157 -274 l 157 -54 l 193 473 l 271 473 z "},"¬":{"ha":811,"x_min":77,"x_max":734,"o":"m 734 288 l 618 288 l 618 585 l 77 585 l 77 699 l 734 699 l 734 288 z "},"√":{"ha":762,"x_min":57,"x_max":762,"o":"m 712 1267 l 762 1267 l 551 -53 l 214 640 l 80 578 l 57 621 l 261 724 l 536 165 l 712 1267 z "},"ƒ":{"ha":772,"x_min":31,"x_max":736,"o":"m 31 -275 l 55 -170 q 158 -184 123 -184 q 214 -165 195 -184 q 245 -81 234 -146 l 365 625 l 229 625 l 245 720 l 381 720 l 397 810 q 428 922 412 892 q 488 988 449 964 q 590 1012 527 1012 q 736 986 644 1012 l 712 882 q 608 899 642 899 q 551 880 570 899 q 519 790 532 861 l 506 720 l 644 720 l 627 625 l 489 625 l 359 -115 q 300 -254 342 -216 q 183 -292 259 -292 q 31 -275 119 -292 z "},"≈":{"ha":762,"x_min":35,"x_max":728,"o":"m 35 500 l 35 640 q 223 721 106 721 q 308 709 264 721 q 436 662 353 698 q 506 636 483 642 q 553 630 530 630 q 645 656 597 630 q 728 723 692 683 l 728 579 q 641 520 685 538 q 541 502 596 502 q 463 511 500 502 q 346 556 427 520 q 212 593 265 593 q 130 574 168 593 q 35 500 92 555 m 35 255 l 35 394 q 223 475 106 475 q 308 464 264 475 q 436 416 353 452 q 506 391 483 397 q 553 385 530 385 q 645 411 597 385 q 728 477 692 437 l 728 334 q 641 275 685 293 q 541 256 596 256 q 463 266 500 256 q 346 311 427 275 q 212 347 265 347 q 130 329 168 347 q 35 255 92 310 z "},"∆":{"ha":850,"x_min":18,"x_max":831,"o":"m 831 0 l 18 0 l 444 941 l 831 0 m 671 56 l 401 711 l 102 56 l 671 56 z "},"«":{"ha":772,"x_min":91,"x_max":672,"o":"m 231 358 l 406 49 l 307 49 l 91 358 l 307 667 l 408 667 l 231 358 m 493 358 l 672 49 l 569 49 l 357 358 l 569 667 l 672 667 l 493 358 z "},"»":{"ha":772,"x_min":95,"x_max":676,"o":"m 536 358 l 359 667 l 460 667 l 676 358 l 460 49 l 360 49 l 536 358 m 274 358 l 95 667 l 197 667 l 410 358 l 197 49 l 95 49 l 274 358 z "},"…":{"ha":1389,"x_min":162,"x_max":1227,"o":"m 162 0 l 162 139 l 301 139 l 301 0 l 162 0 m 625 0 l 625 139 l 764 139 l 764 0 l 625 0 m 1088 0 l 1088 139 l 1227 139 l 1227 0 l 1088 0 z "},"À":{"ha":926,"x_min":-2,"x_max":928,"o":"m -2 0 l 380 994 l 522 994 l 928 0 l 779 0 l 663 301 l 247 301 l 138 0 l -2 0 m 285 408 l 622 408 l 518 684 q 448 890 471 809 q 394 700 429 794 l 285 408 m 559 1055 l 460 1055 l 304 1245 l 467 1245 l 559 1055 z "},"Ã":{"ha":926,"x_min":-2,"x_max":928,"o":"m -2 0 l 380 994 l 522 994 l 928 0 l 779 0 l 663 301 l 247 301 l 138 0 l -2 0 m 285 408 l 622 408 l 518 684 q 448 890 471 809 q 394 700 429 794 l 285 408 m 237 1055 q 275 1168 236 1126 q 374 1210 314 1210 q 489 1173 416 1210 q 553 1153 529 1153 q 586 1165 574 1153 q 602 1212 597 1177 l 690 1212 q 651 1096 688 1135 q 557 1057 614 1057 q 445 1095 515 1057 q 378 1120 399 1120 q 341 1103 355 1120 q 327 1055 326 1087 l 237 1055 z "},"Õ":{"ha":1080,"x_min":67,"x_max":1018,"o":"m 67 484 q 200 872 67 732 q 543 1012 333 1012 q 791 946 681 1012 q 960 763 902 880 q 1018 496 1018 645 q 957 225 1018 345 q 784 44 896 106 q 543 -17 672 -17 q 292 51 402 -17 q 124 236 181 119 q 67 484 67 353 m 203 482 q 299 199 203 302 q 542 96 396 96 q 786 200 690 96 q 882 496 882 304 q 841 708 882 618 q 721 849 800 799 q 544 899 642 899 q 303 803 404 899 q 203 482 203 707 m 316 1055 q 355 1168 315 1126 q 454 1210 393 1210 q 568 1173 496 1210 q 632 1153 608 1153 q 665 1165 654 1153 q 682 1212 677 1177 l 770 1212 q 731 1096 768 1135 q 637 1057 694 1057 q 524 1095 594 1057 q 458 1120 479 1120 q 420 1103 435 1120 q 406 1055 406 1087 l 316 1055 z "},"Œ":{"ha":1389,"x_min":87,"x_max":1345,"o":"m 1345 117 l 1345 0 l 760 0 l 760 144 q 489 -17 669 -17 q 180 140 285 -17 q 87 498 87 279 q 184 864 87 717 q 489 1011 280 1011 q 760 860 668 1011 l 760 994 l 1324 994 l 1324 877 l 883 877 l 883 573 l 1289 573 l 1289 456 l 883 456 l 883 117 l 1345 117 m 488 905 q 355 861 420 905 q 256 727 290 817 q 223 488 223 637 q 301 186 223 283 q 488 89 380 89 q 675 185 597 89 q 753 505 753 282 q 674 809 753 713 q 488 905 596 905 z "},"œ":{"ha":1311,"x_min":56,"x_max":1261,"o":"m 663 119 q 545 18 612 52 q 395 -16 477 -16 q 149 81 242 -16 q 56 351 56 178 q 95 556 56 466 q 216 692 135 647 q 396 736 297 736 q 559 697 490 736 q 663 599 629 659 q 775 699 707 662 q 927 736 843 736 q 1168 634 1076 736 q 1259 328 1261 532 l 728 328 q 790 150 730 215 q 942 84 851 84 q 1058 122 1009 84 q 1128 235 1106 159 l 1250 217 q 1141 44 1221 105 q 940 -16 1061 -16 q 777 19 849 -16 q 663 119 705 55 m 181 361 q 229 170 181 235 q 391 84 292 84 q 541 156 479 84 q 604 363 604 228 q 542 567 604 497 q 391 636 481 636 q 283 603 332 636 q 207 505 233 570 q 181 361 181 439 m 732 428 l 1131 428 q 1068 583 1122 530 q 935 636 1015 636 q 797 581 853 636 q 732 428 740 525 z "},"–":{"ha":772,"x_min":-3,"x_max":770,"o":"m -3 311 l -3 409 l 770 409 l 770 311 l -3 311 z "},"—":{"ha":1389,"x_min":0,"x_max":1389,"o":"m 0 311 l 0 409 l 1389 409 l 1389 311 l 0 311 z "},"“":{"ha":463,"x_min":56,"x_max":408,"o":"m 187 827 l 187 686 l 56 686 l 56 798 q 78 929 56 888 q 168 1011 106 983 l 198 964 q 143 917 161 948 q 123 827 125 886 l 187 827 m 397 827 l 397 686 l 267 686 l 267 798 q 288 929 267 888 q 378 1011 317 983 l 408 964 q 353 917 371 948 q 334 827 336 886 l 397 827 z "},"”":{"ha":463,"x_min":48,"x_max":400,"o":"m 59 863 l 59 1004 l 190 1004 l 190 892 q 169 762 190 802 q 78 679 140 707 l 48 727 q 103 774 85 742 q 123 863 121 806 l 59 863 m 269 863 l 269 1004 l 400 1004 l 400 892 q 379 762 400 802 q 288 679 350 707 l 258 727 q 313 774 295 742 q 333 863 331 806 l 269 863 z "},"‘":{"ha":309,"x_min":87,"x_max":229,"o":"m 218 827 l 218 686 l 87 686 l 87 798 q 109 929 87 888 q 199 1011 137 983 l 229 964 q 174 917 191 948 q 154 827 156 886 l 218 827 z "},"’":{"ha":309,"x_min":73,"x_max":215,"o":"m 84 863 l 84 1004 l 215 1004 l 215 892 q 194 762 215 802 q 103 679 165 707 l 73 727 q 128 774 110 742 q 148 863 146 806 l 84 863 z "},"÷":{"ha":762,"x_min":53,"x_max":709,"o":"m 311 625 l 311 764 l 450 764 l 450 625 l 311 625 m 709 433 l 53 433 l 53 547 l 709 547 l 709 433 m 311 216 l 311 355 l 450 355 l 450 216 l 311 216 z "},"◊":{"ha":686,"x_min":32,"x_max":656,"o":"m 372 964 l 656 481 l 372 0 l 297 0 l 32 481 l 297 964 l 372 964 m 336 899 l 105 481 l 336 64 l 579 481 l 336 899 z "},"ÿ":{"ha":694,"x_min":22,"x_max":682,"o":"m 86 -277 l 73 -163 q 142 -174 113 -174 q 208 -160 183 -174 q 248 -122 232 -146 q 285 -31 259 -104 q 296 -1 288 -21 l 22 720 l 154 720 l 304 303 q 356 136 333 224 q 406 300 377 220 l 560 720 l 682 720 l 408 -12 q 340 -176 364 -131 q 265 -264 307 -236 q 165 -292 223 -292 q 86 -277 130 -292 m 165 861 l 165 1000 l 292 1000 l 292 861 l 165 861 m 418 861 l 418 1000 l 545 1000 l 545 861 l 418 861 z "},"Ÿ":{"ha":926,"x_min":4,"x_max":916,"o":"m 387 0 l 387 421 l 4 994 l 164 994 l 360 694 q 461 526 414 610 q 570 702 506 604 l 762 994 l 916 994 l 519 421 l 519 0 l 387 0 m 269 1055 l 269 1194 l 397 1194 l 397 1055 l 269 1055 m 522 1055 l 522 1194 l 650 1194 l 650 1055 l 522 1055 z "},"⁄":{"ha":232,"x_min":-309,"x_max":545,"o":"m -309 -39 l 438 1011 l 545 1011 l -202 -39 l -309 -39 z "},"€":{"ha":772,"x_min":-19,"x_max":751,"o":"m 536 899 q 345 844 422 899 q 261 751 298 811 q 216 634 223 690 l 679 634 l 661 543 l 205 543 q 205 516 205 529 q 205 454 205 464 l 642 454 l 623 363 l 220 363 q 357 142 248 208 q 526 96 435 96 q 724 162 652 96 l 724 22 q 536 -17 639 -17 q 122 238 230 -17 q 85 363 100 290 l -19 363 l 0 454 l 71 454 q 69 515 69 482 q 70 543 69 529 l -19 543 l 0 634 l 79 634 q 298 951 121 855 q 538 1011 407 1011 q 751 956 665 1011 l 724 830 q 536 899 641 899 z "},"‹":{"ha":463,"x_min":62,"x_max":377,"o":"m 197 357 l 377 49 l 276 49 l 62 357 l 276 667 l 377 667 l 197 357 z "},"›":{"ha":463,"x_min":62,"x_max":370,"o":"m 242 359 l 62 667 l 163 667 l 370 363 l 163 49 l 62 49 l 242 359 z "},"ﬁ":{"ha":694,"x_min":16,"x_max":600,"o":"m 124 0 l 124 626 l 16 626 l 16 720 l 124 720 l 124 790 q 170 954 124 897 q 316 1011 216 1011 q 440 996 383 1011 l 421 892 q 355 899 385 899 q 269 873 292 899 q 246 767 246 848 l 246 720 l 386 720 l 386 626 l 246 626 l 246 0 l 124 0 m 478 854 l 478 994 l 600 994 l 600 854 l 478 854 m 478 0 l 478 720 l 600 720 l 600 0 l 478 0 z "},"ﬂ":{"ha":694,"x_min":16,"x_max":599,"o":"m 124 0 l 124 626 l 16 626 l 16 720 l 124 720 l 124 790 q 170 954 124 897 q 316 1011 216 1011 q 440 996 383 1011 l 421 892 q 355 899 385 899 q 269 873 292 899 q 246 767 246 848 l 246 720 l 386 720 l 386 626 l 246 626 l 246 0 l 124 0 m 477 0 l 477 994 l 599 994 l 599 0 l 477 0 z "},"‡":{"ha":772,"x_min":50,"x_max":718,"o":"m 322 -235 l 322 16 l 50 16 l 50 125 l 322 125 l 322 617 l 50 617 l 50 726 l 322 726 l 322 981 l 444 981 l 444 726 l 718 726 l 718 617 l 444 617 l 444 125 l 718 125 l 718 16 l 444 16 l 444 -235 l 322 -235 z "},"∙":{"ha":386,"x_min":125,"x_max":264,"o":"m 125 420 l 125 559 l 264 559 l 264 420 l 125 420 z "},"‚":{"ha":309,"x_min":73,"x_max":215,"o":"m 84 0 l 84 142 l 215 142 l 215 30 q 194 -101 215 -61 q 103 -184 165 -156 l 73 -136 q 128 -89 110 -121 q 148 0 146 -56 l 84 0 z "},"„":{"ha":463,"x_min":48,"x_max":400,"o":"m 59 0 l 59 142 l 190 142 l 190 30 q 169 -101 190 -61 q 78 -184 140 -156 l 48 -136 q 103 -89 85 -121 q 123 0 121 -56 l 59 0 m 269 0 l 269 142 l 400 142 l 400 30 q 379 -101 400 -61 q 288 -184 350 -156 l 258 -136 q 313 -89 295 -121 q 333 0 331 -56 l 269 0 z "},"‰":{"ha":1389,"x_min":25,"x_max":1364,"o":"m 217 -37 l 625 1011 l 713 1011 l 307 -37 l 217 -37 m 25 745 q 78 942 25 880 q 219 1003 132 1003 q 360 941 306 1003 q 414 748 414 880 q 367 548 414 615 q 220 480 319 480 q 79 543 134 480 q 25 745 25 606 m 125 740 q 152 601 125 637 q 223 565 179 565 q 285 595 263 565 q 314 741 314 636 q 284 887 314 844 q 220 919 261 919 q 156 888 178 919 q 125 740 125 845 m 517 228 q 571 424 517 363 q 711 486 624 486 q 852 424 798 486 q 907 231 907 362 q 859 31 907 98 q 713 -37 812 -37 q 572 26 626 -37 q 517 228 517 89 m 618 222 q 645 84 618 120 q 715 47 671 47 q 777 78 755 47 q 806 224 806 119 q 776 370 806 328 q 713 401 753 401 q 648 370 671 401 q 618 222 618 328 m 975 228 q 1028 424 975 363 q 1168 486 1081 486 q 1310 424 1255 486 q 1364 231 1364 362 q 1317 31 1364 98 q 1170 -37 1270 -37 q 1029 26 1083 -37 q 975 228 975 89 m 1075 222 q 1102 84 1075 120 q 1173 47 1128 47 q 1234 78 1213 47 q 1263 224 1263 119 q 1234 370 1263 328 q 1170 401 1211 401 q 1105 370 1128 401 q 1075 222 1075 328 z "},"Â":{"ha":926,"x_min":-2,"x_max":928,"o":"m -2 0 l 380 994 l 522 994 l 928 0 l 779 0 l 663 301 l 247 301 l 138 0 l -2 0 m 285 408 l 622 408 l 518 684 q 448 890 471 809 q 394 700 429 794 l 285 408 m 450 1171 l 374 1055 l 234 1055 l 380 1245 l 511 1245 l 663 1055 l 525 1055 l 450 1171 z "},"Ê":{"ha":926,"x_min":110,"x_max":852,"o":"m 110 0 l 110 994 l 829 994 l 829 877 l 241 877 l 241 572 l 791 572 l 791 456 l 241 456 l 241 117 l 852 117 l 852 0 l 110 0 m 479 1171 l 403 1055 l 263 1055 l 410 1245 l 540 1245 l 692 1055 l 554 1055 l 479 1171 z "},"Á":{"ha":926,"x_min":-2,"x_max":928,"o":"m -2 0 l 380 994 l 522 994 l 928 0 l 779 0 l 663 301 l 247 301 l 138 0 l -2 0 m 285 408 l 622 408 l 518 684 q 448 890 471 809 q 394 700 429 794 l 285 408 m 367 1055 l 457 1245 l 617 1245 l 468 1055 l 367 1055 z "},"Ë":{"ha":926,"x_min":110,"x_max":852,"o":"m 110 0 l 110 994 l 829 994 l 829 877 l 241 877 l 241 572 l 791 572 l 791 456 l 241 456 l 241 117 l 852 117 l 852 0 l 110 0 m 288 1055 l 288 1194 l 416 1194 l 416 1055 l 288 1055 m 541 1055 l 541 1194 l 669 1194 l 669 1055 l 541 1055 z "},"È":{"ha":926,"x_min":110,"x_max":852,"o":"m 110 0 l 110 994 l 829 994 l 829 877 l 241 877 l 241 572 l 791 572 l 791 456 l 241 456 l 241 117 l 852 117 l 852 0 l 110 0 m 576 1055 l 478 1055 l 321 1245 l 485 1245 l 576 1055 z "},"Í":{"ha":386,"x_min":96,"x_max":346,"o":"m 130 0 l 130 994 l 261 994 l 261 0 l 130 0 m 96 1055 l 186 1245 l 346 1245 l 197 1055 l 96 1055 z "},"Î":{"ha":386,"x_min":-22,"x_max":408,"o":"m 130 0 l 130 994 l 261 994 l 261 0 l 130 0 m 195 1171 l 118 1055 l -22 1055 l 125 1245 l 255 1245 l 408 1055 l 269 1055 l 195 1171 z "},"Ï":{"ha":386,"x_min":3,"x_max":383,"o":"m 130 0 l 130 994 l 261 994 l 261 0 l 130 0 m 3 1055 l 3 1194 l 130 1194 l 130 1055 l 3 1055 m 256 1055 l 256 1194 l 383 1194 l 383 1055 l 256 1055 z "},"Ì":{"ha":386,"x_min":37,"x_max":292,"o":"m 130 0 l 130 994 l 261 994 l 261 0 l 130 0 m 292 1055 l 193 1055 l 37 1245 l 200 1245 l 292 1055 z "},"Ó":{"ha":1080,"x_min":67,"x_max":1018,"o":"m 67 484 q 200 872 67 732 q 543 1012 333 1012 q 791 946 681 1012 q 960 763 902 880 q 1018 496 1018 645 q 957 225 1018 345 q 784 44 896 106 q 543 -17 672 -17 q 292 51 402 -17 q 124 236 181 119 q 67 484 67 353 m 203 482 q 299 199 203 302 q 542 96 396 96 q 786 200 690 96 q 882 496 882 304 q 841 708 882 618 q 721 849 800 799 q 544 899 642 899 q 303 803 404 899 q 203 482 203 707 m 459 1055 l 549 1245 l 709 1245 l 560 1055 l 459 1055 z "},"Ô":{"ha":1080,"x_min":67,"x_max":1018,"o":"m 67 484 q 200 872 67 732 q 543 1012 333 1012 q 791 946 681 1012 q 960 763 902 880 q 1018 496 1018 645 q 957 225 1018 345 q 784 44 896 106 q 543 -17 672 -17 q 292 51 402 -17 q 124 236 181 119 q 67 484 67 353 m 203 482 q 299 199 203 302 q 542 96 396 96 q 786 200 690 96 q 882 496 882 304 q 841 708 882 618 q 721 849 800 799 q 544 899 642 899 q 303 803 404 899 q 203 482 203 707 m 541 1171 l 465 1055 l 325 1055 l 471 1245 l 602 1245 l 754 1055 l 616 1055 l 541 1171 z "},"Ò":{"ha":1080,"x_min":67,"x_max":1018,"o":"m 67 484 q 200 872 67 732 q 543 1012 333 1012 q 791 946 681 1012 q 960 763 902 880 q 1018 496 1018 645 q 957 225 1018 345 q 784 44 896 106 q 543 -17 672 -17 q 292 51 402 -17 q 124 236 181 119 q 67 484 67 353 m 203 482 q 299 199 203 302 q 542 96 396 96 q 786 200 690 96 q 882 496 882 304 q 841 708 882 618 q 721 849 800 799 q 544 899 642 899 q 303 803 404 899 q 203 482 203 707 m 621 1055 l 523 1055 l 366 1245 l 530 1245 l 621 1055 z "},"Ú":{"ha":1003,"x_min":109,"x_max":891,"o":"m 760 994 l 891 994 l 891 420 q 857 182 891 270 q 735 38 823 94 q 503 -17 646 -17 q 274 31 363 -17 q 147 171 185 79 q 109 420 109 262 l 109 994 l 241 994 l 241 420 q 265 230 241 291 q 348 135 289 168 q 491 102 406 102 q 698 168 636 102 q 760 420 760 233 l 760 994 m 416 1055 l 507 1245 l 667 1245 l 517 1055 l 416 1055 z "},"Û":{"ha":1003,"x_min":109,"x_max":891,"o":"m 760 994 l 891 994 l 891 420 q 857 182 891 270 q 735 38 823 94 q 503 -17 646 -17 q 274 31 363 -17 q 147 171 185 79 q 109 420 109 262 l 109 994 l 241 994 l 241 420 q 265 230 241 291 q 348 135 289 168 q 491 102 406 102 q 698 168 636 102 q 760 420 760 233 l 760 994 m 499 1171 l 422 1055 l 283 1055 l 429 1245 l 559 1245 l 712 1055 l 574 1055 l 499 1171 z "},"Ù":{"ha":1003,"x_min":109,"x_max":891,"o":"m 760 994 l 891 994 l 891 420 q 857 182 891 270 q 735 38 823 94 q 503 -17 646 -17 q 274 31 363 -17 q 147 171 185 79 q 109 420 109 262 l 109 994 l 241 994 l 241 420 q 265 230 241 291 q 348 135 289 168 q 491 102 406 102 q 698 168 636 102 q 760 420 760 233 l 760 994 m 579 1055 l 481 1055 l 324 1245 l 488 1245 l 579 1055 z "},"ı":{"ha":386,"x_min":134,"x_max":256,"o":"m 134 0 l 134 720 l 256 720 l 256 0 l 134 0 z "},"ˆ":{"ha":463,"x_min":17,"x_max":446,"o":"m 233 925 l 157 810 l 17 810 l 163 1000 l 294 1000 l 446 810 l 308 810 l 233 925 z "},"˜":{"ha":463,"x_min":4,"x_max":458,"o":"m 5 827 q 43 939 4 897 q 142 981 82 981 q 257 945 184 981 q 321 924 297 924 q 354 936 342 924 q 370 983 366 948 l 458 983 q 419 867 456 906 q 326 829 382 829 q 213 867 283 829 q 146 891 168 891 q 109 875 123 891 q 95 827 94 859 l 5 827 z "},"ˉ":{"ha":463,"x_min":20,"x_max":443,"o":"m 20 832 l 20 932 l 443 932 l 443 832 l 20 832 z "},"˘":{"ha":463,"x_min":31,"x_max":432,"o":"m 349 993 l 432 993 q 370 863 422 908 q 232 817 318 817 q 93 862 145 817 q 31 993 41 907 l 115 993 q 152 924 124 947 q 228 901 180 901 q 311 923 283 901 q 349 993 339 945 z "},"˙":{"ha":463,"x_min":155,"x_max":307,"o":"m 155 810 l 155 962 l 307 962 l 307 810 l 155 810 z "},"˚":{"ha":463,"x_min":110,"x_max":354,"o":"m 110 907 q 146 993 110 957 q 232 1029 182 1029 q 318 992 282 1029 q 354 905 354 956 q 318 817 354 852 q 233 781 282 781 q 146 817 182 781 q 110 907 110 853 m 161 907 q 183 853 161 875 q 233 831 204 831 q 284 853 262 831 q 305 905 305 875 q 284 958 305 936 q 233 979 263 979 q 183 958 204 979 q 161 907 161 937 z "},"¸":{"ha":463,"x_min":73,"x_max":366,"o":"m 146 -104 l 182 16 l 273 16 l 250 -57 q 337 -93 308 -64 q 366 -157 366 -121 q 317 -247 366 -208 q 170 -286 269 -286 q 73 -277 115 -286 l 80 -198 q 144 -201 123 -201 q 233 -183 208 -201 q 253 -150 253 -170 q 245 -128 253 -138 q 216 -112 237 -119 q 146 -104 195 -105 z "},"˝":{"ha":463,"x_min":39,"x_max":517,"o":"m 39 810 l 121 1000 l 280 1000 l 137 810 l 39 810 m 275 810 l 361 1000 l 517 1000 l 377 810 l 275 810 z "},"˛":{"ha":463,"x_min":51,"x_max":281,"o":"m 234 0 q 174 -59 195 -24 q 153 -130 153 -94 q 168 -178 153 -158 q 219 -197 184 -197 q 251 -193 235 -197 q 281 -181 267 -189 l 281 -268 q 189 -292 231 -292 q 128 -282 154 -292 q 85 -255 102 -272 q 59 -215 68 -237 q 51 -167 51 -193 q 75 -80 51 -123 q 144 0 100 -36 l 234 0 z "},"ˇ":{"ha":463,"x_min":27,"x_max":456,"o":"m 243 884 l 318 1000 l 456 1000 l 304 810 l 174 810 l 27 1000 l 167 1000 l 243 884 z "},"Ł":{"ha":772,"x_min":0,"x_max":724,"o":"m 98 383 l 0 300 l 0 413 l 98 497 l 98 994 l 230 994 l 230 609 l 455 800 l 455 686 l 230 496 l 230 117 l 724 117 l 724 0 l 98 0 l 98 383 z "},"ł":{"ha":309,"x_min":2,"x_max":303,"o":"m 90 389 l 2 315 l 2 422 l 90 496 l 90 994 l 212 994 l 212 600 l 303 677 l 303 571 l 212 493 l 212 0 l 90 0 l 90 389 z "},"Š":{"ha":926,"x_min":62,"x_max":854,"o":"m 62 319 l 186 330 q 228 208 195 256 q 328 131 260 160 q 480 101 395 101 q 613 123 555 101 q 699 185 671 146 q 727 270 727 224 q 700 352 727 317 q 610 410 673 387 q 433 459 570 426 q 241 521 296 492 q 135 613 170 558 q 100 737 100 669 q 143 878 100 812 q 268 977 186 943 q 450 1011 350 1011 q 645 976 561 1011 q 775 871 730 940 q 824 714 821 802 l 698 705 q 629 847 688 799 q 456 895 570 895 q 282 851 336 895 q 227 746 227 808 q 266 658 227 692 q 464 587 304 623 q 684 524 625 551 q 812 422 771 484 q 854 281 854 361 q 808 131 854 201 q 678 22 763 61 q 486 -17 593 -17 q 260 22 351 -17 q 117 141 169 62 q 62 319 65 220 m 444 1126 l 519 1241 l 657 1241 l 505 1051 l 374 1051 l 228 1241 l 368 1241 l 444 1126 z "},"š":{"ha":694,"x_min":43,"x_max":641,"o":"m 43 215 l 163 234 q 220 123 174 161 q 350 84 267 84 q 475 118 434 84 q 515 199 515 153 q 479 264 515 240 q 355 305 454 280 q 169 364 220 339 q 90 432 117 389 q 63 529 63 476 q 85 618 63 577 q 145 686 107 659 q 223 722 174 707 q 328 736 272 736 q 477 712 413 736 q 572 646 541 688 q 614 534 602 604 l 494 518 q 447 605 486 574 q 337 636 408 636 q 217 608 253 636 q 181 543 181 581 q 196 500 181 519 q 243 468 211 481 q 351 437 261 461 q 531 380 480 402 q 612 316 583 358 q 641 212 641 274 q 605 97 641 151 q 503 13 570 43 q 351 -16 435 -16 q 137 42 210 -16 q 43 215 63 100 m 344 884 l 418 1000 l 557 1000 l 404 810 l 274 810 l 127 1000 l 267 1000 l 344 884 z "},"Ž":{"ha":848,"x_min":28,"x_max":814,"o":"m 28 0 l 28 122 l 537 759 q 640 877 591 827 l 85 877 l 85 994 l 798 994 l 798 877 l 239 187 l 179 117 l 814 117 l 814 0 l 28 0 m 431 1126 l 505 1241 l 644 1241 l 491 1051 l 361 1051 l 214 1241 l 354 1241 l 431 1126 z "},"ž":{"ha":694,"x_min":27,"x_max":665,"o":"m 27 0 l 27 99 l 486 625 q 348 621 408 621 l 54 621 l 54 720 l 643 720 l 643 640 l 253 182 l 178 99 q 332 105 260 105 l 665 105 l 665 0 l 27 0 m 368 884 l 443 1000 l 581 1000 l 429 810 l 298 810 l 152 1000 l 292 1000 l 368 884 z "},"¦":{"ha":361,"x_min":127,"x_max":234,"o":"m 234 1011 l 234 475 l 127 475 l 127 1011 l 234 1011 m 234 244 l 234 -292 l 127 -292 l 127 244 l 234 244 z "},"Ð":{"ha":1003,"x_min":-2,"x_max":929,"o":"m 107 0 l 107 452 l -2 452 l -2 542 l 107 542 l 107 994 l 450 994 q 627 980 566 994 q 772 909 712 960 q 890 739 851 842 q 929 503 929 635 q 881 241 929 351 q 766 82 833 132 q 611 12 699 33 q 466 0 563 0 l 107 0 m 239 117 l 451 117 q 606 136 550 117 q 694 186 661 154 q 767 312 741 233 q 793 504 793 391 q 767 690 793 621 q 699 802 741 760 q 606 861 657 844 q 448 877 554 877 l 239 877 l 239 542 l 513 542 l 513 452 l 239 452 l 239 117 z "},"ð":{"ha":772,"x_min":50,"x_max":717,"o":"m 209 994 l 356 994 q 441 925 405 958 l 586 994 l 616 925 l 500 869 q 717 353 717 619 q 623 82 717 182 q 382 -17 528 -17 q 113 115 210 -17 q 50 351 50 201 q 137 624 50 528 q 356 720 224 720 q 425 712 395 720 q 500 680 455 704 q 457 757 475 730 q 404 825 439 785 l 217 739 l 187 808 l 349 882 q 209 994 283 943 m 590 359 q 529 558 590 489 q 378 627 467 627 q 232 558 290 627 q 174 347 174 489 q 234 149 174 216 q 382 83 293 83 q 529 153 469 83 q 590 359 590 223 z "},"Ý":{"ha":926,"x_min":4,"x_max":916,"o":"m 387 0 l 387 421 l 4 994 l 164 994 l 360 694 q 461 526 414 610 q 570 702 506 604 l 762 994 l 916 994 l 519 421 l 519 0 l 387 0 m 376 1055 l 467 1245 l 627 1245 l 477 1055 l 376 1055 z "},"ý":{"ha":694,"x_min":22,"x_max":682,"o":"m 86 -277 l 73 -163 q 142 -174 113 -174 q 208 -160 183 -174 q 248 -122 232 -146 q 285 -31 259 -104 q 296 -1 288 -21 l 22 720 l 154 720 l 304 303 q 356 136 333 224 q 406 300 377 220 l 560 720 l 682 720 l 408 -12 q 340 -176 364 -131 q 265 -264 307 -236 q 165 -292 223 -292 q 86 -277 130 -292 m 285 810 l 375 1000 l 535 1000 l 386 810 l 285 810 z "},"Þ":{"ha":926,"x_min":107,"x_max":866,"o":"m 107 0 l 107 994 l 239 994 l 239 792 l 482 792 q 634 783 581 792 q 757 735 707 770 q 836 640 806 701 q 866 504 866 578 q 785 290 866 378 q 494 202 705 202 l 239 202 l 239 0 l 107 0 m 239 319 l 496 319 q 677 367 623 319 q 730 500 730 414 q 699 606 730 562 q 616 665 668 651 q 493 675 583 675 l 239 675 l 239 319 z "},"þ":{"ha":772,"x_min":92,"x_max":717,"o":"m 92 -276 l 92 994 l 214 994 l 214 644 q 300 713 263 696 q 412 736 349 736 q 574 689 504 736 q 681 555 645 642 q 717 366 717 469 q 677 166 717 254 q 562 31 637 78 q 404 -16 486 -16 q 299 6 347 -16 q 214 75 262 24 l 214 -276 l 92 -276 m 202 356 q 258 151 202 217 q 395 84 315 84 q 534 153 476 84 q 592 366 592 222 q 535 572 592 504 q 400 641 479 641 q 262 568 322 641 q 202 356 202 495 z "},"−":{"ha":811,"x_min":77,"x_max":734,"o":"m 734 433 l 77 433 l 77 547 l 734 547 l 734 433 z "},"×":{"ha":811,"x_min":109,"x_max":701,"o":"m 109 277 l 323 491 l 110 704 l 193 787 l 406 574 l 618 786 l 699 704 l 488 492 l 701 279 l 618 196 l 405 409 l 191 195 l 109 277 z "},"¹":{"ha":463,"x_min":73,"x_max":323,"o":"m 224 497 l 224 873 q 73 796 155 818 l 73 880 q 166 929 115 893 q 250 1006 218 965 l 323 1006 l 323 497 l 224 497 z "},"²":{"ha":463,"x_min":17,"x_max":439,"o":"m 17 497 q 49 574 21 536 q 189 704 92 633 q 305 795 287 774 q 330 852 330 823 q 307 905 330 884 q 237 926 283 926 q 170 910 192 926 q 134 849 148 895 l 31 860 q 99 971 51 935 q 239 1006 148 1006 q 389 966 341 1006 q 437 869 437 926 q 397 761 437 812 q 258 645 366 723 q 178 579 201 604 l 439 579 l 439 497 l 17 497 z "},"³":{"ha":463,"x_min":22,"x_max":438,"o":"m 22 630 l 121 640 q 157 585 135 600 q 226 564 186 564 q 303 591 274 564 q 332 654 332 617 q 308 709 332 688 q 224 729 283 729 q 202 728 216 729 q 187 727 193 727 l 202 802 q 282 821 257 801 q 308 871 308 842 q 288 913 308 896 q 227 931 267 931 q 168 916 189 931 q 131 862 146 901 l 34 878 q 104 978 62 949 q 228 1006 146 1006 q 370 970 326 1006 q 414 880 414 934 q 390 813 414 842 q 321 771 366 784 q 410 722 381 756 q 438 642 438 688 q 385 532 438 578 q 232 485 331 485 q 87 523 137 485 q 22 630 37 560 z "},"½":{"ha":1158,"x_min":73,"x_max":1134,"o":"m 155 -39 l 901 1011 l 1008 1011 l 261 -39 l 155 -39 m 224 497 l 224 873 q 73 796 155 818 l 73 880 q 166 929 115 893 q 250 1006 218 965 l 323 1006 l 323 497 l 224 497 m 711 -21 q 744 56 715 17 q 884 185 786 115 q 1000 277 981 256 q 1025 334 1025 304 q 1001 387 1025 366 q 931 408 978 408 q 864 392 886 408 q 828 331 842 376 l 726 341 q 794 453 745 417 q 933 488 843 488 q 1083 448 1036 488 q 1131 351 1131 408 q 1091 243 1131 294 q 953 126 1061 205 q 872 61 896 85 l 1134 61 l 1134 -21 l 711 -21 z "},"¼":{"ha":1158,"x_min":73,"x_max":1138,"o":"m 171 -39 l 918 1011 l 1024 1011 l 277 -39 l 171 -39 m 224 497 l 224 873 q 73 796 155 818 l 73 880 q 166 929 115 893 q 250 1006 218 965 l 323 1006 l 323 497 l 224 497 m 970 -21 l 970 83 l 710 83 l 710 167 l 985 488 l 1067 488 l 1067 157 l 1138 157 l 1138 83 l 1067 83 l 1067 -21 l 970 -21 m 970 157 l 970 335 l 814 157 l 970 157 z "},"¾":{"ha":1158,"x_min":22,"x_max":1138,"o":"m 171 -39 l 918 1011 l 1024 1011 l 277 -39 l 171 -39 m 22 630 l 121 640 q 157 585 135 600 q 226 564 186 564 q 303 591 274 564 q 332 654 332 617 q 308 709 332 688 q 227 729 283 729 q 187 727 193 727 l 202 802 q 282 821 257 801 q 308 871 308 842 q 288 913 308 896 q 227 931 267 931 q 168 916 189 931 q 131 862 146 901 l 34 878 q 104 978 62 949 q 228 1006 146 1006 q 370 970 326 1006 q 414 880 414 934 q 390 813 414 842 q 321 771 366 784 q 410 722 381 756 q 438 642 438 688 q 385 532 438 578 q 232 485 331 485 q 87 523 137 485 q 22 630 37 560 m 969 -21 l 969 83 l 710 83 l 710 167 l 984 488 l 1067 488 l 1067 157 l 1138 157 l 1138 83 l 1067 83 l 1067 -21 l 969 -21 m 969 157 l 969 335 l 814 157 l 969 157 z "},"₣":{"ha":772,"x_min":0,"x_max":703,"o":"m 114 167 l 0 167 l 0 268 l 114 268 l 114 994 l 703 994 l 703 877 l 245 877 l 245 569 l 631 569 l 631 452 l 245 452 l 245 268 l 459 268 l 459 167 l 245 167 l 245 0 l 114 0 l 114 167 z "},"Ğ":{"ha":1080,"x_min":74,"x_max":994,"o":"m 572 390 l 572 507 l 994 507 l 994 138 q 793 22 897 61 q 582 -17 690 -17 q 316 46 435 -17 q 135 227 196 109 q 74 492 74 346 q 135 763 74 637 q 309 950 195 889 q 572 1011 423 1011 q 767 976 680 1011 q 903 879 854 941 q 979 716 953 817 l 860 684 q 804 803 838 760 q 709 872 771 846 q 572 899 648 899 q 416 871 482 899 q 310 799 351 844 q 248 701 270 754 q 210 500 210 608 q 255 278 210 368 q 389 145 301 189 q 574 102 476 102 q 741 135 660 102 q 865 205 823 168 l 865 390 l 572 390 m 705 1231 l 789 1231 q 727 1101 779 1146 q 589 1055 675 1055 q 450 1100 502 1055 q 388 1231 398 1145 l 471 1231 q 509 1162 481 1185 q 585 1139 537 1139 q 668 1161 640 1139 q 705 1231 696 1183 z "},"ğ":{"ha":772,"x_min":45,"x_max":680,"o":"m 69 -60 l 188 -77 q 229 -157 195 -132 q 353 -191 275 -191 q 484 -157 438 -191 q 547 -62 530 -123 q 555 94 556 -25 q 356 0 475 0 q 126 107 208 0 q 45 364 45 214 q 82 554 45 467 q 190 689 119 642 q 357 736 261 736 q 567 633 484 736 l 567 720 l 680 720 l 680 98 q 645 -141 680 -71 q 537 -252 611 -211 q 354 -292 463 -292 q 146 -234 225 -292 q 69 -60 66 -176 m 170 373 q 227 166 170 231 q 368 101 283 101 q 509 166 452 101 q 566 369 566 231 q 507 568 566 501 q 366 635 448 635 q 227 569 284 635 q 170 373 170 503 m 503 993 l 587 993 q 525 863 576 908 q 387 817 473 817 q 248 862 300 817 q 186 993 196 907 l 269 993 q 307 924 279 947 q 382 901 335 901 q 466 923 437 901 q 503 993 494 945 z "},"İ":{"ha":386,"x_min":120,"x_max":271,"o":"m 130 0 l 130 994 l 261 994 l 261 0 l 130 0 m 120 1055 l 120 1207 l 271 1207 l 271 1055 l 120 1055 z "},"Ş":{"ha":926,"x_min":62,"x_max":854,"o":"m 62 319 l 186 330 q 228 208 195 256 q 328 131 260 160 q 480 101 395 101 q 613 123 555 101 q 699 185 671 146 q 727 270 727 224 q 700 352 727 317 q 610 410 673 387 q 433 459 570 426 q 241 521 296 492 q 135 613 170 558 q 100 737 100 669 q 143 878 100 812 q 268 977 186 943 q 450 1011 350 1011 q 645 976 561 1011 q 775 871 730 940 q 824 714 821 802 l 698 705 q 629 847 688 799 q 456 895 570 895 q 282 851 336 895 q 227 746 227 808 q 266 658 227 692 q 464 587 304 623 q 684 524 625 551 q 812 422 771 484 q 854 281 854 361 q 808 131 854 201 q 678 22 763 61 q 486 -17 593 -17 q 260 22 351 -17 q 117 141 169 62 q 62 319 65 220 m 376 -98 l 412 22 l 503 22 l 480 -50 q 567 -86 538 -57 q 596 -150 596 -115 q 547 -240 596 -201 q 400 -279 498 -279 q 302 -271 345 -279 l 310 -191 q 374 -194 353 -194 q 463 -176 437 -194 q 483 -143 483 -163 q 475 -121 483 -131 q 446 -105 467 -112 q 376 -98 425 -98 z "},"ş":{"ha":694,"x_min":43,"x_max":641,"o":"m 43 215 l 163 234 q 220 123 174 161 q 350 84 267 84 q 475 118 434 84 q 515 199 515 153 q 479 264 515 240 q 355 305 454 280 q 169 364 220 339 q 90 432 117 389 q 63 529 63 476 q 85 618 63 577 q 145 686 107 659 q 223 722 174 707 q 328 736 272 736 q 477 712 413 736 q 572 646 541 688 q 614 534 602 604 l 494 518 q 447 605 486 574 q 337 636 408 636 q 217 608 253 636 q 181 543 181 581 q 196 500 181 519 q 243 468 211 481 q 351 437 261 461 q 531 380 480 402 q 612 316 583 358 q 641 212 641 274 q 605 97 641 151 q 503 13 570 43 q 351 -16 435 -16 q 137 42 210 -16 q 43 215 63 100 m 254 -91 l 290 29 l 380 29 l 358 -43 q 445 -79 416 -50 q 474 -143 474 -108 q 425 -233 474 -194 q 278 -272 376 -272 q 180 -264 222 -272 l 188 -184 q 252 -187 231 -187 q 341 -170 315 -187 q 361 -136 361 -156 q 353 -115 361 -124 q 324 -98 345 -105 q 254 -91 303 -92 z "},"Ć":{"ha":1003,"x_min":69,"x_max":948,"o":"m 817 349 l 948 315 q 799 68 907 153 q 536 -17 692 -17 q 275 48 376 -17 q 122 238 174 114 q 69 505 69 362 q 129 775 69 660 q 297 951 188 891 q 538 1011 407 1011 q 789 935 688 1011 q 931 722 891 859 l 802 691 q 701 849 767 800 q 536 899 635 899 q 344 844 421 899 q 236 696 267 789 q 205 505 205 604 q 242 284 205 378 q 357 142 279 189 q 526 96 435 96 q 713 159 636 96 q 817 349 789 223 m 450 1055 l 540 1245 l 700 1245 l 551 1055 l 450 1055 z "},"ć":{"ha":694,"x_min":54,"x_max":682,"o":"m 562 264 l 682 248 q 581 54 662 124 q 382 -16 500 -16 q 144 80 234 -16 q 54 357 54 177 q 93 562 54 474 q 211 693 132 649 q 382 736 290 736 q 574 677 500 736 q 670 509 649 618 l 551 490 q 491 600 534 563 q 387 636 448 636 q 237 570 295 636 q 180 361 180 504 q 235 150 180 216 q 380 84 291 84 q 500 128 452 84 q 562 264 549 172 m 288 810 l 378 1000 l 538 1000 l 389 810 l 288 810 z "},"Č":{"ha":1003,"x_min":69,"x_max":948,"o":"m 817 349 l 948 315 q 799 68 907 153 q 536 -17 692 -17 q 275 48 376 -17 q 122 238 174 114 q 69 505 69 362 q 129 775 69 660 q 297 951 188 891 q 538 1011 407 1011 q 789 935 688 1011 q 931 722 891 859 l 802 691 q 701 849 767 800 q 536 899 635 899 q 344 844 421 899 q 236 696 267 789 q 205 505 205 604 q 242 284 205 378 q 357 142 279 189 q 526 96 435 96 q 713 159 636 96 q 817 349 789 223 m 536 1126 l 611 1241 l 749 1241 l 597 1051 l 467 1051 l 320 1241 l 460 1241 l 536 1126 z "},"č":{"ha":694,"x_min":54,"x_max":682,"o":"m 562 264 l 682 248 q 581 54 662 124 q 382 -16 500 -16 q 144 80 234 -16 q 54 357 54 177 q 93 562 54 474 q 211 693 132 649 q 382 736 290 736 q 574 677 500 736 q 670 509 649 618 l 551 490 q 491 600 534 563 q 387 636 448 636 q 237 570 295 636 q 180 361 180 504 q 235 150 180 216 q 380 84 291 84 q 500 128 452 84 q 562 264 549 172 m 380 884 l 455 1000 l 593 1000 l 441 810 l 311 810 l 164 1000 l 304 1000 l 380 884 z "},"đ":{"ha":772,"x_min":47,"x_max":770,"o":"m 551 827 l 316 827 l 316 916 l 551 916 l 551 994 l 672 994 l 672 916 l 770 916 l 770 827 l 672 827 l 672 0 l 559 0 l 559 91 q 357 -16 490 -16 q 199 31 271 -16 q 87 164 127 79 q 47 359 47 249 q 83 555 47 467 q 191 690 119 643 q 352 736 263 736 q 468 709 417 736 q 551 637 519 682 l 551 827 m 173 359 q 231 153 173 221 q 369 84 290 84 q 505 150 449 84 q 561 349 561 215 q 504 566 561 497 q 363 635 447 635 q 228 569 282 635 q 173 359 173 503 z "},"¯":{"ha":767,"x_min":-21,"x_max":788,"o":"m -21 1062 l -21 1149 l 788 1149 l 788 1062 l -21 1062 z "},"·":{"ha":463,"x_min":161,"x_max":300,"o":"m 161 432 l 161 571 l 300 571 l 300 432 l 161 432 z "},"Ă":{"ha":926,"x_min":-2,"x_max":928,"o":"m -2 0 l 380 994 l 522 994 l 928 0 l 779 0 l 663 301 l 247 301 l 138 0 l -2 0 m 285 408 l 622 408 l 518 684 q 448 890 471 809 q 394 700 429 794 l 285 408 m 578 1231 l 661 1231 q 599 1101 651 1146 q 461 1055 547 1055 q 322 1100 374 1055 q 260 1231 271 1145 l 344 1231 q 381 1162 353 1185 q 457 1139 410 1139 q 540 1161 512 1139 q 578 1231 568 1183 z "},"ă":{"ha":772,"x_min":50,"x_max":713,"o":"m 562 89 q 431 7 494 31 q 296 -16 368 -16 q 114 42 178 -16 q 50 190 50 100 q 74 287 50 243 q 137 357 98 330 q 225 397 176 383 q 334 415 261 406 q 551 457 481 433 q 552 489 552 482 q 517 594 552 564 q 378 635 471 635 q 251 605 292 635 q 191 498 210 575 l 71 515 q 125 638 87 591 q 233 711 162 686 q 396 736 303 736 q 546 715 488 736 q 631 660 604 693 q 669 577 658 627 q 675 465 675 546 l 675 302 q 683 86 675 132 q 713 0 690 41 l 586 0 q 562 89 567 38 m 551 361 q 352 315 485 334 q 245 291 277 304 q 197 251 214 277 q 180 193 180 225 q 217 112 180 144 q 326 79 254 79 q 451 110 396 79 q 532 195 506 141 q 551 317 551 236 l 551 361 m 515 993 l 598 993 q 536 863 588 908 q 398 817 484 817 q 259 862 311 817 q 197 993 208 907 l 281 993 q 318 924 290 947 q 394 901 347 901 q 477 923 449 901 q 515 993 505 945 z "},"Ą":{"ha":926,"x_min":-2,"x_max":932,"o":"m -2 0 l 380 994 l 522 994 l 928 0 l 779 0 l 663 301 l 247 301 l 138 0 l -2 0 m 285 408 l 622 408 l 518 684 q 448 890 471 809 q 394 700 429 794 l 285 408 m 885 0 q 825 -59 846 -24 q 804 -130 804 -94 q 819 -178 804 -158 q 870 -197 835 -197 q 902 -193 886 -197 q 932 -181 918 -189 l 932 -268 q 840 -292 882 -292 q 779 -282 805 -292 q 736 -255 753 -272 q 710 -215 719 -237 q 702 -167 702 -193 q 726 -80 702 -123 q 795 0 751 -36 l 885 0 z "},"ą":{"ha":772,"x_min":50,"x_max":735,"o":"m 562 89 q 431 7 494 31 q 296 -16 368 -16 q 114 42 178 -16 q 50 190 50 100 q 74 287 50 243 q 137 357 98 330 q 225 397 176 383 q 334 415 261 406 q 551 457 481 433 q 552 489 552 482 q 517 594 552 564 q 378 635 471 635 q 251 605 292 635 q 191 498 210 575 l 71 515 q 125 638 87 591 q 233 711 162 686 q 396 736 303 736 q 546 715 488 736 q 631 660 604 693 q 669 577 658 627 q 675 465 675 546 l 675 302 q 683 86 675 132 q 713 0 690 41 l 586 0 q 562 89 567 38 m 551 361 q 352 315 485 334 q 245 291 277 304 q 197 251 214 277 q 180 193 180 225 q 217 112 180 144 q 326 79 254 79 q 451 110 396 79 q 532 195 506 141 q 551 317 551 236 l 551 361 m 688 0 q 628 -59 650 -24 q 607 -130 607 -94 q 623 -178 607 -158 q 673 -197 638 -197 q 705 -193 689 -197 q 735 -181 722 -189 l 735 -268 q 643 -292 686 -292 q 583 -282 608 -292 q 539 -255 557 -272 q 514 -215 522 -237 q 505 -167 505 -193 q 530 -80 505 -123 q 599 0 554 -36 l 688 0 z "},"Ď":{"ha":1003,"x_min":107,"x_max":929,"o":"m 107 0 l 107 994 l 450 994 q 627 980 566 994 q 772 909 712 960 q 890 739 851 842 q 929 503 929 635 q 903 302 929 389 q 835 157 876 214 q 744 67 793 100 q 626 17 695 34 q 466 0 556 0 l 107 0 m 239 117 l 451 117 q 605 136 549 117 q 694 187 661 154 q 767 313 741 234 q 793 505 793 392 q 742 744 793 661 q 618 857 691 828 q 448 877 565 877 l 239 877 l 239 117 m 407 1126 l 481 1241 l 620 1241 l 467 1051 l 337 1051 l 191 1241 l 330 1241 l 407 1126 z "},"ď":{"ha":854,"x_min":48,"x_max":856,"o":"m 731 869 l 731 994 l 856 994 l 856 869 q 831 758 856 800 q 754 692 807 715 l 724 739 q 775 784 758 754 q 793 869 791 813 l 731 869 m 559 0 l 559 91 q 358 -16 491 -16 q 200 31 272 -16 q 88 164 127 79 q 48 359 48 249 q 84 555 48 467 q 192 690 120 643 q 353 736 264 736 q 469 709 418 736 q 551 637 519 682 l 551 994 l 673 994 l 673 0 l 559 0 m 174 359 q 232 153 174 221 q 370 84 290 84 q 506 150 450 84 q 562 349 562 215 q 505 566 562 497 q 364 635 448 635 q 228 569 283 635 q 174 359 174 503 z "},"Đ":{"ha":1003,"x_min":-2,"x_max":929,"o":"m 107 0 l 107 452 l -2 452 l -2 542 l 107 542 l 107 994 l 450 994 q 627 980 566 994 q 772 909 712 960 q 890 739 851 842 q 929 503 929 635 q 881 241 929 351 q 766 82 833 132 q 611 12 699 33 q 466 0 563 0 l 107 0 m 239 117 l 451 117 q 606 136 550 117 q 694 186 661 154 q 767 312 741 233 q 793 504 793 391 q 767 690 793 621 q 699 802 741 760 q 606 861 657 844 q 448 877 554 877 l 239 877 l 239 542 l 513 542 l 513 452 l 239 452 l 239 117 z "},"Ę":{"ha":926,"x_min":110,"x_max":852,"o":"m 110 0 l 110 994 l 829 994 l 829 877 l 241 877 l 241 572 l 791 572 l 791 456 l 241 456 l 241 117 l 852 117 l 852 0 l 110 0 m 805 0 q 745 -59 766 -24 q 724 -130 724 -94 q 739 -178 724 -158 q 790 -197 755 -197 q 822 -193 806 -197 q 852 -181 838 -189 l 852 -268 q 760 -292 802 -292 q 699 -282 725 -292 q 656 -255 673 -272 q 630 -215 639 -237 q 622 -167 622 -193 q 646 -80 622 -123 q 715 0 671 -36 l 805 0 z "},"ę":{"ha":772,"x_min":51,"x_max":715,"o":"m 585 232 l 711 216 q 600 45 681 106 q 394 -16 519 -16 q 143 81 236 -16 q 51 354 51 178 q 144 636 51 536 q 387 736 238 736 q 623 638 532 736 q 715 361 715 540 q 714 329 715 351 l 177 329 q 244 147 184 210 q 395 84 304 84 q 509 119 462 84 q 585 232 557 155 m 184 429 l 586 429 q 540 566 578 520 q 389 636 481 636 q 247 580 304 636 q 184 429 190 524 m 498 0 q 438 -59 460 -24 q 417 -130 417 -94 q 433 -178 417 -158 q 484 -197 448 -197 q 515 -193 499 -197 q 545 -181 532 -189 l 545 -268 q 453 -292 496 -292 q 393 -282 418 -292 q 350 -255 367 -272 q 324 -215 332 -237 q 315 -167 315 -193 q 340 -80 315 -123 q 409 0 364 -36 l 498 0 z "},"Ě":{"ha":926,"x_min":110,"x_max":852,"o":"m 110 0 l 110 994 l 829 994 l 829 877 l 241 877 l 241 572 l 791 572 l 791 456 l 241 456 l 241 117 l 852 117 l 852 0 l 110 0 m 452 1126 l 526 1241 l 665 1241 l 512 1051 l 382 1051 l 235 1241 l 375 1241 l 452 1126 z "},"ě":{"ha":772,"x_min":51,"x_max":715,"o":"m 585 232 l 711 216 q 600 45 681 106 q 394 -16 519 -16 q 143 81 236 -16 q 51 354 51 178 q 144 636 51 536 q 387 736 238 736 q 623 638 532 736 q 715 361 715 540 q 714 329 715 351 l 177 329 q 244 147 184 210 q 395 84 304 84 q 509 119 462 84 q 585 232 557 155 m 184 429 l 586 429 q 540 566 578 520 q 389 636 481 636 q 247 580 304 636 q 184 429 190 524 m 395 884 l 470 1000 l 608 1000 l 456 810 l 326 810 l 179 1000 l 319 1000 l 395 884 z "},"Ĺ":{"ha":772,"x_min":102,"x_max":723,"o":"m 102 0 l 102 994 l 233 994 l 233 117 l 723 117 l 723 0 l 102 0 m 206 1055 l 296 1245 l 456 1245 l 307 1055 l 206 1055 z "},"ĺ":{"ha":309,"x_min":45,"x_max":295,"o":"m 89 0 l 89 994 l 211 994 l 211 0 l 89 0 m 45 1045 l 135 1235 l 295 1235 l 146 1045 l 45 1045 z "},"Ľ":{"ha":772,"x_min":102,"x_max":723,"o":"m 483 855 l 483 994 l 622 994 l 622 855 q 595 731 622 779 q 509 659 568 684 l 475 711 q 532 761 513 728 q 552 855 551 793 l 483 855 m 102 0 l 102 994 l 233 994 l 233 117 l 723 117 l 723 0 l 102 0 z "},"ľ":{"ha":405,"x_min":92,"x_max":404,"o":"m 279 869 l 279 994 l 404 994 l 404 869 q 380 758 404 800 q 302 692 355 715 l 272 739 q 323 784 307 754 q 341 869 340 813 l 279 869 m 92 0 l 92 994 l 214 994 l 214 0 l 92 0 z "},"Ŀ":{"ha":772,"x_min":102,"x_max":723,"o":"m 102 0 l 102 994 l 233 994 l 233 117 l 723 117 l 723 0 l 102 0 m 316 432 l 316 571 l 455 571 l 455 432 l 316 432 z "},"ŀ":{"ha":464,"x_min":89,"x_max":451,"o":"m 89 0 l 89 994 l 211 994 l 211 0 l 89 0 m 312 432 l 312 571 l 451 571 l 451 432 l 312 432 z "},"Ń":{"ha":1003,"x_min":106,"x_max":889,"o":"m 106 0 l 106 994 l 241 994 l 763 214 l 763 994 l 889 994 l 889 0 l 754 0 l 232 781 l 232 0 l 106 0 m 387 1055 l 477 1245 l 637 1245 l 488 1055 l 387 1055 z "},"ń":{"ha":772,"x_min":92,"x_max":677,"o":"m 92 0 l 92 720 l 201 720 l 201 618 q 431 736 281 736 q 550 713 496 736 q 632 652 605 690 q 670 562 659 614 q 677 443 677 528 l 677 0 l 555 0 l 555 438 q 541 550 555 513 q 490 609 526 587 q 405 631 454 631 q 270 581 327 631 q 214 393 214 532 l 214 0 l 92 0 m 304 810 l 394 1000 l 554 1000 l 405 810 l 304 810 z "},"Ň":{"ha":1003,"x_min":106,"x_max":889,"o":"m 106 0 l 106 994 l 241 994 l 763 214 l 763 994 l 889 994 l 889 0 l 754 0 l 232 781 l 232 0 l 106 0 m 498 1130 l 572 1245 l 711 1245 l 558 1055 l 428 1055 l 281 1245 l 421 1245 l 498 1130 z "},"ň":{"ha":772,"x_min":92,"x_max":677,"o":"m 92 0 l 92 720 l 201 720 l 201 618 q 431 736 281 736 q 550 713 496 736 q 632 652 605 690 q 670 562 659 614 q 677 443 677 528 l 677 0 l 555 0 l 555 438 q 541 550 555 513 q 490 609 526 587 q 405 631 454 631 q 270 581 327 631 q 214 393 214 532 l 214 0 l 92 0 m 397 884 l 471 1000 l 610 1000 l 457 810 l 327 810 l 180 1000 l 320 1000 l 397 884 z "},"Ő":{"ha":1080,"x_min":67,"x_max":1018,"o":"m 67 484 q 200 872 67 732 q 543 1012 333 1012 q 791 946 681 1012 q 960 763 902 880 q 1018 496 1018 645 q 957 225 1018 345 q 784 44 896 106 q 543 -17 672 -17 q 292 51 402 -17 q 124 236 181 119 q 67 484 67 353 m 203 482 q 299 199 203 302 q 542 96 396 96 q 786 200 690 96 q 882 496 882 304 q 841 708 882 618 q 721 849 800 799 q 544 899 642 899 q 303 803 404 899 q 203 482 203 707 m 321 1055 l 403 1245 l 562 1245 l 418 1055 l 321 1055 m 556 1055 l 642 1245 l 799 1245 l 659 1055 l 556 1055 z "},"ő":{"ha":772,"x_min":46,"x_max":721,"o":"m 46 360 q 157 656 46 560 q 384 736 250 736 q 627 639 532 736 q 721 370 721 542 q 679 152 721 231 q 558 28 637 72 q 384 -16 478 -16 q 139 81 233 -16 q 46 360 46 178 m 172 360 q 232 153 172 222 q 384 84 292 84 q 535 153 475 84 q 595 364 595 222 q 535 567 595 498 q 384 635 474 635 q 232 567 292 635 q 172 360 172 498 m 192 810 l 274 1000 l 433 1000 l 290 810 l 192 810 m 427 810 l 513 1000 l 670 1000 l 530 810 l 427 810 z "},"Ŕ":{"ha":1003,"x_min":109,"x_max":985,"o":"m 109 0 l 109 994 l 550 994 q 752 967 683 994 q 863 873 821 941 q 904 723 904 805 q 836 545 904 617 q 624 452 767 472 q 703 403 676 427 q 812 271 761 350 l 985 0 l 820 0 l 688 207 q 593 344 631 296 q 527 410 556 391 q 467 437 497 429 q 393 441 444 441 l 241 441 l 241 0 l 109 0 m 241 555 l 524 555 q 665 574 614 555 q 742 634 715 593 q 768 723 768 675 q 717 839 768 793 q 555 884 666 884 l 241 884 l 241 555 m 341 1055 l 431 1245 l 591 1245 l 442 1055 l 341 1055 z "},"ŕ":{"ha":463,"x_min":90,"x_max":481,"o":"m 90 0 l 90 720 l 200 720 l 200 611 q 278 712 242 688 q 356 736 313 736 q 481 697 418 736 l 439 584 q 350 610 395 610 q 278 586 310 610 q 233 519 246 562 q 212 377 212 454 l 212 0 l 90 0 m 164 810 l 254 1000 l 414 1000 l 265 810 l 164 810 z "},"Ř":{"ha":1003,"x_min":109,"x_max":985,"o":"m 109 0 l 109 994 l 550 994 q 752 967 683 994 q 863 873 821 941 q 904 723 904 805 q 836 545 904 617 q 624 452 767 472 q 703 403 676 427 q 812 271 761 350 l 985 0 l 820 0 l 688 207 q 593 344 631 296 q 527 410 556 391 q 467 437 497 429 q 393 441 444 441 l 241 441 l 241 0 l 109 0 m 241 555 l 524 555 q 665 574 614 555 q 742 634 715 593 q 768 723 768 675 q 717 839 768 793 q 555 884 666 884 l 241 884 l 241 555 m 440 1126 l 515 1241 l 653 1241 l 500 1051 l 370 1051 l 224 1241 l 363 1241 l 440 1126 z "},"ř":{"ha":463,"x_min":41,"x_max":481,"o":"m 90 0 l 90 720 l 200 720 l 200 611 q 278 712 242 688 q 356 736 313 736 q 481 697 418 736 l 439 584 q 350 610 395 610 q 278 586 310 610 q 233 519 246 562 q 212 377 212 454 l 212 0 l 90 0 m 257 884 l 332 1000 l 470 1000 l 317 810 l 187 810 l 41 1000 l 180 1000 l 257 884 z "},"Ś":{"ha":926,"x_min":62,"x_max":854,"o":"m 62 319 l 186 330 q 228 208 195 256 q 328 131 260 160 q 480 101 395 101 q 613 123 555 101 q 699 185 671 146 q 727 270 727 224 q 700 352 727 317 q 610 410 673 387 q 433 459 570 426 q 241 521 296 492 q 135 613 170 558 q 100 737 100 669 q 143 878 100 812 q 268 977 186 943 q 450 1011 350 1011 q 645 976 561 1011 q 775 871 730 940 q 824 714 821 802 l 698 705 q 629 847 688 799 q 456 895 570 895 q 282 851 336 895 q 227 746 227 808 q 266 658 227 692 q 464 587 304 623 q 684 524 625 551 q 812 422 771 484 q 854 281 854 361 q 808 131 854 201 q 678 22 763 61 q 486 -17 593 -17 q 260 22 351 -17 q 117 141 169 62 q 62 319 65 220 m 334 1055 l 424 1245 l 584 1245 l 435 1055 l 334 1055 z "},"ś":{"ha":694,"x_min":43,"x_max":641,"o":"m 43 215 l 163 234 q 220 123 174 161 q 350 84 267 84 q 475 118 434 84 q 515 199 515 153 q 479 264 515 240 q 355 305 454 280 q 169 364 220 339 q 90 432 117 389 q 63 529 63 476 q 85 618 63 577 q 145 686 107 659 q 223 722 174 707 q 328 736 272 736 q 477 712 413 736 q 572 646 541 688 q 614 534 602 604 l 494 518 q 447 605 486 574 q 337 636 408 636 q 217 608 253 636 q 181 543 181 581 q 196 500 181 519 q 243 468 211 481 q 351 437 261 461 q 531 380 480 402 q 612 316 583 358 q 641 212 641 274 q 605 97 641 151 q 503 13 570 43 q 351 -16 435 -16 q 137 42 210 -16 q 43 215 63 100 m 267 810 l 357 1000 l 517 1000 l 368 810 l 267 810 z "},"Ţ":{"ha":848,"x_min":33,"x_max":821,"o":"m 360 0 l 360 877 l 33 877 l 33 994 l 821 994 l 821 877 l 492 877 l 492 0 l 360 0 m 350 -104 l 385 16 l 476 16 l 454 -57 q 541 -93 511 -64 q 570 -157 570 -121 q 521 -247 570 -208 q 374 -286 472 -286 q 276 -277 318 -286 l 283 -198 q 347 -201 327 -201 q 437 -183 411 -201 q 456 -150 456 -170 q 449 -128 456 -138 q 420 -112 441 -119 q 350 -104 399 -105 z "},"ţ":{"ha":386,"x_min":24,"x_max":407,"o":"m 358 109 l 376 1 q 283 -9 324 -9 q 180 12 217 -9 q 129 67 144 33 q 114 211 114 101 l 114 625 l 24 625 l 24 720 l 114 720 l 114 899 l 235 972 l 235 720 l 358 720 l 358 625 l 235 625 l 235 204 q 242 137 235 152 q 263 113 248 122 q 304 104 277 104 q 358 109 325 104 m 187 -104 l 222 16 l 313 16 l 291 -57 q 378 -93 349 -64 q 407 -157 407 -121 q 358 -247 407 -208 q 211 -286 309 -286 q 113 -277 155 -286 l 121 -198 q 184 -201 164 -201 q 274 -183 248 -201 q 294 -150 294 -170 q 286 -128 294 -138 q 257 -112 278 -119 q 187 -104 236 -105 z "},"Ť":{"ha":848,"x_min":33,"x_max":821,"o":"m 360 0 l 360 877 l 33 877 l 33 994 l 821 994 l 821 877 l 492 877 l 492 0 l 360 0 m 427 1126 l 502 1241 l 640 1241 l 488 1051 l 357 1051 l 211 1241 l 351 1241 l 427 1126 z "},"ť":{"ha":521,"x_min":24,"x_max":519,"o":"m 394 869 l 394 994 l 519 994 l 519 869 q 494 758 519 800 q 417 692 470 715 l 387 739 q 438 784 421 754 q 456 869 454 813 l 394 869 m 357 109 l 375 1 q 283 -9 323 -9 q 180 12 216 -9 q 128 67 143 33 q 113 211 113 101 l 113 625 l 24 625 l 24 720 l 113 720 l 113 899 l 235 972 l 235 720 l 357 720 l 357 625 l 235 625 l 235 204 q 241 137 235 152 q 262 113 248 122 q 304 104 277 104 q 357 109 324 104 z "},"Ů":{"ha":1003,"x_min":109,"x_max":891,"o":"m 760 994 l 891 994 l 891 420 q 857 182 891 270 q 735 38 823 94 q 503 -17 646 -17 q 274 31 363 -17 q 147 171 185 79 q 109 420 109 262 l 109 994 l 241 994 l 241 420 q 265 230 241 291 q 348 135 289 168 q 491 102 406 102 q 698 168 636 102 q 760 420 760 233 l 760 994 m 377 1123 q 413 1208 377 1173 q 499 1244 450 1244 q 585 1208 549 1244 q 621 1120 621 1172 q 585 1032 621 1068 q 500 996 549 996 q 413 1033 449 996 q 377 1123 377 1069 m 429 1122 q 450 1069 429 1090 q 500 1047 471 1047 q 551 1069 530 1047 q 572 1121 572 1090 q 551 1173 572 1152 q 500 1195 530 1195 q 450 1174 471 1195 q 429 1122 429 1152 z "},"ů":{"ha":772,"x_min":89,"x_max":673,"o":"m 564 0 l 564 106 q 335 -16 479 -16 q 216 8 271 -16 q 134 70 161 33 q 96 160 107 106 q 89 274 89 196 l 89 720 l 211 720 l 211 321 q 218 192 211 225 q 267 116 230 144 q 359 89 304 89 q 463 117 414 89 q 531 194 511 145 q 551 334 551 242 l 551 720 l 673 720 l 673 0 l 564 0 m 259 907 q 295 993 259 957 q 381 1029 332 1029 q 467 992 431 1029 q 503 905 503 956 q 467 817 503 852 q 382 781 431 781 q 295 817 331 781 q 259 907 259 853 m 311 907 q 332 853 311 875 q 382 831 353 831 q 433 853 412 831 q 454 905 454 875 q 433 958 454 936 q 382 979 412 979 q 332 958 353 979 q 311 907 311 937 z "},"Ű":{"ha":1003,"x_min":109,"x_max":891,"o":"m 760 994 l 891 994 l 891 420 q 857 182 891 270 q 735 38 823 94 q 503 -17 646 -17 q 274 31 363 -17 q 147 171 185 79 q 109 420 109 262 l 109 994 l 241 994 l 241 420 q 265 230 241 291 q 348 135 289 168 q 491 102 406 102 q 698 168 636 102 q 760 420 760 233 l 760 994 m 315 1055 l 397 1245 l 556 1245 l 413 1055 l 315 1055 m 551 1055 l 637 1245 l 793 1245 l 653 1055 l 551 1055 z "},"ű":{"ha":772,"x_min":89,"x_max":673,"o":"m 564 0 l 564 106 q 335 -16 479 -16 q 216 8 271 -16 q 134 70 161 33 q 96 160 107 106 q 89 274 89 196 l 89 720 l 211 720 l 211 321 q 218 192 211 225 q 267 116 230 144 q 359 89 304 89 q 463 117 414 89 q 531 194 511 145 q 551 334 551 242 l 551 720 l 673 720 l 673 0 l 564 0 m 161 810 l 243 1000 l 402 1000 l 259 810 l 161 810 m 397 810 l 483 1000 l 640 1000 l 499 810 l 397 810 z "},"Ź":{"ha":848,"x_min":28,"x_max":814,"o":"m 28 0 l 28 122 l 537 759 q 640 877 591 827 l 85 877 l 85 994 l 798 994 l 798 877 l 239 187 l 179 117 l 814 117 l 814 0 l 28 0 m 321 1055 l 411 1245 l 571 1245 l 422 1055 l 321 1055 z "},"ź":{"ha":694,"x_min":27,"x_max":665,"o":"m 27 0 l 27 99 l 486 625 q 348 621 408 621 l 54 621 l 54 720 l 643 720 l 643 640 l 253 182 l 178 99 q 332 105 260 105 l 665 105 l 665 0 l 27 0 m 265 810 l 355 1000 l 515 1000 l 366 810 l 265 810 z "},"Ż":{"ha":848,"x_min":28,"x_max":814,"o":"m 28 0 l 28 122 l 537 759 q 640 877 591 827 l 85 877 l 85 994 l 798 994 l 798 877 l 239 187 l 179 117 l 814 117 l 814 0 l 28 0 m 361 1055 l 361 1207 l 513 1207 l 513 1055 l 361 1055 z "},"ż":{"ha":694,"x_min":27,"x_max":665,"o":"m 27 0 l 27 99 l 486 625 q 348 621 408 621 l 54 621 l 54 720 l 643 720 l 643 640 l 253 182 l 178 99 q 332 105 260 105 l 665 105 l 665 0 l 27 0 m 270 810 l 270 962 l 421 962 l 421 810 l 270 810 z "},"Γ":{"ha":765,"x_min":111,"x_max":732,"o":"m 111 994 l 732 994 l 732 877 l 243 877 l 243 0 l 111 0 l 111 994 z "},"Θ":{"ha":1080,"x_min":65,"x_max":1016,"o":"m 65 484 q 199 872 65 732 q 541 1012 332 1012 q 883 870 751 1012 q 1016 496 1016 728 q 882 124 1016 265 q 541 -17 749 -17 q 278 58 391 -17 q 115 251 165 133 q 65 484 65 368 m 201 482 q 293 204 201 312 q 540 96 385 96 q 786 202 692 96 q 880 496 880 309 q 785 792 880 686 q 542 899 690 899 q 298 799 396 899 q 201 482 201 699 m 344 439 l 344 555 l 737 555 l 737 439 l 344 439 z "},"Φ":{"ha":1108,"x_min":58,"x_max":1050,"o":"m 488 1024 l 620 1024 l 620 901 q 940 779 829 888 q 1050 508 1050 670 q 930 221 1050 326 q 620 109 810 116 l 620 -36 l 488 -36 l 488 109 q 175 225 292 117 q 58 502 58 333 q 109 702 58 612 q 252 843 159 791 q 488 901 345 895 l 488 1024 m 488 787 q 272 711 349 783 q 195 503 195 638 q 279 294 195 366 q 488 221 363 223 l 488 787 m 620 221 q 838 299 759 225 q 916 505 916 373 q 841 708 916 629 q 620 787 766 787 l 620 221 z "},"α":{"ha":803,"x_min":49,"x_max":751,"o":"m 626 720 l 751 720 q 663 360 703 571 q 751 0 711 98 l 629 0 q 585 132 600 68 q 350 -16 529 -16 q 132 85 214 -16 q 49 361 49 187 q 132 638 49 541 q 352 736 215 736 q 490 702 437 736 q 590 598 544 668 q 626 720 595 622 m 372 635 q 234 565 285 635 q 183 361 183 494 q 231 158 183 232 q 366 84 279 84 q 506 157 450 84 q 562 367 562 230 q 510 568 562 500 q 372 635 457 635 z "},"δ":{"ha":773,"x_min":49,"x_max":724,"o":"m 118 994 l 661 994 l 661 895 l 281 895 q 494 726 349 826 q 673 560 623 637 q 724 353 724 484 q 630 80 724 177 q 383 -16 535 -16 q 133 92 217 -16 q 49 350 49 201 q 138 615 49 524 q 350 711 227 706 q 118 906 287 755 l 118 994 m 174 349 q 234 159 174 233 q 389 84 295 84 q 535 148 472 84 q 599 349 599 212 q 538 547 599 477 q 387 616 478 616 q 230 538 286 616 q 174 349 174 459 z "},"ε":{"ha":619,"x_min":66,"x_max":588,"o":"m 562 639 l 475 568 q 319 631 391 631 q 232 600 259 631 q 204 531 204 568 q 245 452 204 484 q 364 420 286 420 q 398 421 374 420 l 398 319 q 366 319 376 319 q 231 282 269 319 q 193 198 193 245 q 231 117 193 150 q 321 84 269 84 q 500 173 417 84 l 588 99 q 318 -16 479 -16 q 129 48 191 -16 q 66 198 66 113 q 186 372 66 321 q 86 528 86 429 q 145 672 86 608 q 326 736 204 736 q 562 639 466 736 z "},"σ":{"ha":857,"x_min":46,"x_max":827,"o":"m 827 720 l 827 621 l 631 621 q 721 359 721 537 q 622 75 721 166 q 382 -16 524 -16 q 141 79 236 -16 q 46 360 46 174 q 145 644 46 552 q 382 736 243 736 q 498 720 433 736 l 827 720 m 380 635 q 232 566 292 635 q 172 359 172 497 q 230 153 172 222 q 382 84 289 84 q 539 156 481 84 q 597 360 597 229 q 544 558 597 480 q 380 635 490 635 z "},"τ":{"ha":549,"x_min":31,"x_max":517,"o":"m 343 621 l 343 0 l 221 0 l 221 621 l 31 621 l 31 720 l 517 720 l 517 621 l 343 621 z "},"φ":{"ha":901,"x_min":49,"x_max":852,"o":"m 338 734 l 315 629 q 174 383 174 582 q 230 196 174 278 q 395 90 285 113 l 395 537 q 405 648 395 609 q 451 712 415 687 q 550 736 488 736 q 708 697 647 736 q 810 573 768 658 q 852 391 852 488 q 819 228 852 309 q 711 77 786 146 q 515 -17 637 9 l 515 -276 l 395 -276 l 395 -17 q 159 94 269 -17 q 49 378 49 204 q 137 638 49 538 q 338 734 224 737 m 515 95 q 663 191 602 111 q 724 403 724 272 q 680 580 724 524 q 585 635 635 635 q 532 611 549 635 q 515 502 515 586 l 515 95 z "},"‗":{"ha":767,"x_min":-21,"x_max":788,"o":"m -21 -276 l -21 -188 l 788 -188 l 788 -276 l -21 -276 m -21 -451 l -21 -363 l 788 -363 l 788 -451 l -21 -451 z "},"‼":{"ha":694,"x_min":119,"x_max":574,"o":"m 157 247 l 119 774 l 119 994 l 271 994 l 271 774 l 235 247 l 157 247 m 125 0 l 125 139 l 265 139 l 265 0 l 125 0 m 460 247 l 423 774 l 423 994 l 574 994 l 574 774 l 539 247 l 460 247 m 429 0 l 429 139 l 569 139 l 569 0 l 429 0 z "},"ⁿ":{"ha":507,"x_min":56,"x_max":452,"o":"m 56 352 l 56 803 l 144 803 l 144 756 q 207 798 172 784 q 285 812 241 812 q 380 791 341 812 q 435 735 418 770 q 452 627 452 701 l 452 352 l 357 352 l 357 624 q 335 707 357 684 q 267 730 313 730 q 181 699 212 730 q 151 597 151 668 l 151 352 l 56 352 z "},"₧":{"ha":1519,"x_min":35,"x_max":1489,"o":"m 35 994 l 348 994 q 590 907 507 994 q 663 722 654 840 l 725 722 l 725 932 l 848 931 l 848 722 l 1065 722 q 1185 741 1123 741 q 1394 671 1314 741 q 1461 517 1458 616 l 1334 518 q 1295 604 1330 574 q 1190 633 1259 633 q 1087 606 1121 633 q 1053 548 1053 579 q 1091 486 1053 511 q 1237 436 1129 462 q 1391 383 1344 410 q 1463 309 1438 355 q 1489 212 1489 263 q 1409 52 1489 122 q 1196 -18 1329 -18 q 1058 7 1112 -18 q 958 89 1004 33 l 957 0 q 922 -8 938 -5 q 894 -11 906 -11 q 750 42 794 -11 q 725 141 725 72 l 725 623 l 656 623 q 586 494 635 545 q 460 420 537 443 q 274 406 406 406 l 166 406 l 166 0 l 35 0 l 35 994 m 166 878 l 166 520 l 256 520 q 416 537 364 520 q 498 595 469 554 q 528 699 528 637 q 504 797 528 755 q 437 858 479 838 q 305 878 395 878 l 166 878 m 848 623 l 848 179 l 848 158 q 863 117 848 132 q 909 102 879 102 q 926 104 917 102 q 944 109 935 106 q 922 167 928 141 q 916 229 916 193 l 1039 229 q 1088 124 1044 161 q 1205 86 1132 86 q 1328 127 1276 86 q 1367 199 1367 159 q 1343 252 1367 231 q 1197 312 1312 281 q 1045 362 1083 342 q 959 434 987 393 q 932 528 932 475 q 954 623 932 580 l 848 623 z "},"←":{"ha":1389,"x_min":54,"x_max":1335,"o":"m 334 594 l 385 594 q 325 482 345 514 q 253 385 305 450 l 1335 385 l 1335 316 l 253 316 q 387 106 323 243 l 334 106 q 184 255 247 204 q 54 338 121 305 l 54 368 q 178 445 113 393 q 334 594 244 496 z "},"↑":{"ha":694,"x_min":104,"x_max":591,"o":"m 104 628 q 253 784 202 718 q 330 908 304 850 l 361 908 q 443 778 393 841 q 591 627 494 715 l 591 575 q 382 709 455 639 l 382 -291 l 313 -291 l 313 709 q 216 637 248 657 q 104 576 184 616 l 104 628 z "},"→":{"ha":1389,"x_min":54,"x_max":1335,"o":"m 1055 594 q 1211 445 1145 496 q 1335 368 1276 393 l 1335 338 q 1204 255 1267 305 q 1054 106 1141 204 l 1002 106 q 1135 316 1065 243 l 54 316 l 54 385 l 1135 385 q 1063 482 1084 450 q 1003 594 1043 514 l 1055 594 z "},"↓":{"ha":694,"x_min":104,"x_max":591,"o":"m 104 -11 l 104 41 q 216 -20 184 1 q 313 -92 248 -40 l 313 908 l 382 908 l 382 -92 q 591 42 455 -22 l 591 -10 q 443 -161 494 -98 q 361 -291 393 -224 l 330 -291 q 253 -167 304 -233 q 104 -11 202 -101 z "},"↔":{"ha":1389,"x_min":54,"x_max":1335,"o":"m 1335 366 l 1335 336 q 1209 257 1271 307 q 1059 107 1147 208 l 1005 107 q 1137 318 1052 224 l 252 318 q 383 107 336 224 l 329 107 q 179 257 241 208 q 54 336 117 307 l 54 366 q 179 445 117 396 q 329 595 241 494 l 383 595 q 252 385 336 479 l 1137 385 q 1005 595 1052 479 l 1059 595 q 1209 445 1147 494 q 1335 366 1271 396 z "},"↕":{"ha":694,"x_min":103,"x_max":591,"o":"m 332 992 l 362 992 q 441 866 392 928 q 591 716 490 804 l 591 662 q 380 794 475 709 l 380 -92 q 591 40 475 -6 l 591 -14 q 441 -164 490 -102 q 362 -290 392 -226 l 332 -290 q 253 -164 302 -226 q 103 -14 203 -102 l 103 40 q 314 -92 219 -6 l 314 794 q 103 662 219 709 l 103 716 q 253 866 203 804 q 332 992 302 928 z "},"↨":{"ha":694,"x_min":103,"x_max":591,"o":"m 332 992 l 362 992 q 441 866 392 928 q 591 716 490 804 l 591 662 q 380 794 475 709 l 380 -92 q 591 40 475 -6 l 591 -14 q 441 -164 490 -102 q 362 -290 392 -226 l 332 -290 q 253 -164 302 -226 q 103 -14 203 -102 l 103 40 q 314 -92 219 -6 l 314 794 q 103 662 219 709 l 103 716 q 253 866 203 804 q 332 992 302 928 m 104 -354 l 591 -354 l 591 -420 l 104 -420 l 104 -354 z "},"∟":{"ha":1360,"x_min":245,"x_max":1114,"o":"m 245 867 l 313 867 l 313 68 l 1114 68 l 1114 0 l 245 0 l 245 867 z "},"∩":{"ha":998,"x_min":107,"x_max":892,"o":"m 199 0 l 107 0 l 107 421 q 112 645 107 598 q 143 785 120 730 q 217 892 166 840 q 341 979 267 945 q 500 1012 416 1012 q 653 980 581 1012 q 781 895 726 949 q 858 779 835 840 q 889 627 882 718 q 892 421 892 591 l 892 0 l 801 0 l 801 426 q 797 623 801 580 q 772 746 790 700 q 716 831 754 791 q 620 897 679 871 q 499 923 562 923 q 376 896 437 923 q 276 824 315 869 q 221 727 237 780 q 201 604 205 674 q 199 426 199 567 l 199 0 z "},"≡":{"ha":810,"x_min":77,"x_max":734,"o":"m 734 736 l 77 736 l 77 849 l 734 849 l 734 736 m 734 433 l 77 433 l 77 547 l 734 547 l 734 433 m 734 132 l 77 132 l 77 245 l 734 245 l 734 132 z "},"⌂":{"ha":839,"x_min":106,"x_max":732,"o":"m 106 0 l 106 430 l 419 782 l 732 430 l 732 0 l 106 0 m 161 55 l 677 55 l 677 407 l 419 696 l 161 407 l 161 55 z "},"⌐":{"ha":811,"x_min":77,"x_max":733,"o":"m 77 288 l 77 699 l 733 699 l 733 585 l 192 585 l 192 288 l 77 288 z "},"⌠":{"ha":839,"x_min":370,"x_max":662,"o":"m 469 -349 l 370 -349 l 370 879 q 431 1103 370 1027 q 568 1178 492 1178 q 638 1156 614 1178 q 662 1104 662 1134 q 645 1059 662 1077 q 602 1042 627 1042 q 564 1052 582 1042 q 535 1083 551 1059 q 504 1108 519 1108 q 483 1100 492 1108 q 473 1082 476 1095 q 469 987 469 1059 l 469 -349 z "},"⌡":{"ha":839,"x_min":177,"x_max":469,"o":"m 370 1178 l 469 1178 l 469 -50 q 408 -274 469 -199 q 271 -349 347 -349 q 201 -327 225 -349 q 177 -275 177 -305 q 194 -231 177 -248 q 236 -213 212 -213 q 276 -224 257 -213 q 304 -255 288 -231 q 335 -279 319 -279 q 356 -271 347 -279 q 366 -252 363 -267 q 370 -159 370 -231 l 370 1178 z "},"─":{"ha":984,"x_min":-16,"x_max":999,"o":"m 999 362 l -16 362 l -16 481 l 999 481 l 999 362 z "},"│":{"ha":868,"x_min":310,"x_max":429,"o":"m 310 -421 l 310 1264 l 429 1264 l 429 -421 l 310 -421 z "},"┌":{"ha":984,"x_min":433,"x_max":1000,"o":"m 1000 481 l 1000 362 l 551 362 l 551 -421 l 433 -421 l 433 481 l 1000 481 z "},"┐":{"ha":984,"x_min":-16,"x_max":551,"o":"m 432 362 l -16 362 l -16 481 l 551 481 l 551 -421 l 432 -421 l 432 362 z "},"└":{"ha":984,"x_min":433,"x_max":1000,"o":"m 433 362 l 433 1264 l 551 1264 l 551 481 l 1000 481 l 1000 362 l 433 362 z "},"┘":{"ha":984,"x_min":-16,"x_max":551,"o":"m 551 362 l -16 362 l -16 481 l 432 481 l 432 1264 l 551 1264 l 551 362 z "},"├":{"ha":984,"x_min":433,"x_max":1000,"o":"m 433 -421 l 433 1264 l 551 1264 l 551 481 l 1000 481 l 1000 362 l 551 362 l 551 -421 l 433 -421 z "},"┤":{"ha":984,"x_min":-16,"x_max":551,"o":"m 432 -421 l 432 362 l -16 362 l -16 481 l 432 481 l 432 1264 l 551 1264 l 551 -421 l 432 -421 z "},"┬":{"ha":984,"x_min":-16,"x_max":999,"o":"m 432 362 l -16 362 l -16 481 l 999 481 l 999 362 l 551 362 l 551 -421 l 432 -421 l 432 362 z "},"┴":{"ha":984,"x_min":-16,"x_max":999,"o":"m 999 362 l -16 362 l -16 481 l 432 481 l 432 1264 l 551 1264 l 551 481 l 999 481 l 999 362 z "},"┼":{"ha":984,"x_min":-16,"x_max":999,"o":"m 432 362 l -16 362 l -16 481 l 432 481 l 432 1264 l 551 1264 l 551 481 l 999 481 l 999 362 l 551 362 l 551 -421 l 432 -421 l 432 362 z "},"═":{"ha":984,"x_min":-16,"x_max":999,"o":"m 999 491 l -16 491 l -16 610 l 999 610 l 999 491 m 999 233 l -16 233 l -16 352 l 999 352 l 999 233 z "},"║":{"ha":984,"x_min":304,"x_max":680,"o":"m 562 -421 l 562 1264 l 680 1264 l 680 -421 l 562 -421 m 304 -421 l 304 1264 l 422 1264 l 422 -421 l 304 -421 z "},"╒":{"ha":984,"x_min":433,"x_max":1000,"o":"m 433 -421 l 433 610 l 1000 610 l 1000 491 l 551 491 l 551 352 l 1000 352 l 1000 233 l 551 233 l 551 -421 l 433 -421 z "},"╓":{"ha":984,"x_min":304,"x_max":1000,"o":"m 304 -421 l 304 481 l 1000 481 l 1000 362 l 680 362 l 680 -421 l 562 -421 l 562 352 l 422 352 l 422 -421 l 304 -421 z "},"╔":{"ha":984,"x_min":304,"x_max":999,"o":"m 422 -421 l 304 -421 l 304 610 l 999 610 l 999 491 l 422 491 l 422 -421 m 680 233 l 680 -421 l 562 -421 l 562 352 l 999 352 l 999 233 l 680 233 z "},"╕":{"ha":984,"x_min":-16,"x_max":551,"o":"m 432 233 l -16 233 l -16 352 l 432 352 l 432 491 l -16 491 l -16 610 l 551 610 l 551 -421 l 432 -421 l 432 233 z "},"╖":{"ha":984,"x_min":-16,"x_max":680,"o":"m 303 -421 l 304 362 l -16 362 l -16 481 l 680 481 l 680 -421 l 561 -421 l 561 362 l 422 362 l 422 -421 l 303 -421 z "},"╗":{"ha":984,"x_min":-16,"x_max":680,"o":"m 561 -421 l 561 491 l -16 491 l -16 610 l 680 610 l 680 -421 l 561 -421 m 303 233 l -16 233 l -16 352 l 422 352 l 422 -421 l 303 -421 l 303 233 z "},"╘":{"ha":984,"x_min":433,"x_max":1000,"o":"m 433 233 l 433 1264 l 551 1264 l 551 610 l 1000 610 l 1000 491 l 551 491 l 551 352 l 1000 352 l 1000 233 l 433 233 z "},"╙":{"ha":984,"x_min":304,"x_max":1000,"o":"m 1000 362 l 304 362 l 304 1264 l 422 1264 l 422 481 l 562 481 l 562 1264 l 680 1264 l 680 481 l 1000 481 l 1000 362 z "},"╚":{"ha":984,"x_min":304,"x_max":999,"o":"m 422 1264 l 422 352 l 999 352 l 999 233 l 304 233 l 304 1264 l 422 1264 m 680 610 l 999 610 l 999 491 l 562 491 l 562 1264 l 680 1264 l 680 610 z "},"╛":{"ha":984,"x_min":-16,"x_max":551,"o":"m 551 233 l -16 233 l -16 352 l 432 352 l 432 491 l -16 491 l -16 610 l 432 610 l 432 1264 l 551 1264 l 551 233 z "},"╜":{"ha":984,"x_min":-16,"x_max":680,"o":"m 680 362 l -16 362 l -16 481 l 303 481 l 303 1264 l 422 1264 l 422 481 l 561 481 l 561 1264 l 680 1264 l 680 362 z "},"╝":{"ha":984,"x_min":-16,"x_max":680,"o":"m 561 1264 l 680 1264 l 680 233 l -16 233 l -16 352 l 561 352 l 561 1264 m 303 610 l 303 1264 l 422 1264 l 422 491 l -16 491 l -16 610 l 303 610 z "},"╞":{"ha":984,"x_min":433,"x_max":1000,"o":"m 433 -421 l 433 1264 l 551 1264 l 551 610 l 1000 610 l 1000 491 l 551 491 l 551 352 l 1000 352 l 1000 233 l 551 233 l 551 -421 l 433 -421 z "},"╟":{"ha":984,"x_min":304,"x_max":1000,"o":"m 562 -421 l 562 1264 l 680 1264 l 680 481 l 1000 481 l 1000 362 l 680 362 l 680 -421 l 562 -421 m 304 -421 l 304 1264 l 422 1264 l 422 -421 l 304 -421 z "},"╠":{"ha":984,"x_min":304,"x_max":1000,"o":"m 304 -421 l 304 1264 l 422 1264 l 422 -421 l 304 -421 m 562 491 l 562 1264 l 680 1264 l 680 610 l 1000 610 l 1000 491 l 562 491 m 562 -421 l 562 352 l 1000 352 l 1000 233 l 680 233 l 680 -421 l 562 -421 z "},"╡":{"ha":984,"x_min":-16,"x_max":551,"o":"m 432 233 l -16 233 l -16 352 l 433 352 l 432 491 l -16 491 l -16 610 l 432 610 l 432 1264 l 551 1264 l 551 -421 l 432 -421 l 432 233 z "},"╢":{"ha":984,"x_min":-16,"x_max":680,"o":"m 303 -421 l 304 362 l -16 362 l -16 481 l 303 481 l 303 1264 l 422 1264 l 422 -421 l 303 -421 m 561 -421 l 561 1264 l 680 1264 l 680 -421 l 561 -421 z "},"╣":{"ha":984,"x_min":-16,"x_max":680,"o":"m 561 -421 l 561 1264 l 680 1264 l 680 -421 l 561 -421 m 422 1264 l 422 491 l -16 491 l -16 610 l 303 610 l 303 1264 l 422 1264 m 303 233 l -16 233 l -16 352 l 422 352 l 422 -421 l 303 -421 l 303 233 z "},"╤":{"ha":984,"x_min":-16,"x_max":999,"o":"m 999 491 l -16 491 l -16 610 l 999 610 l 999 491 m 432 233 l -16 233 l -16 352 l 999 352 l 999 233 l 551 233 l 551 -421 l 432 -421 l 432 233 z "},"╥":{"ha":984,"x_min":-16,"x_max":999,"o":"m 303 -421 l 304 362 l -16 362 l -16 481 l 999 481 l 999 362 l 680 362 l 680 -421 l 561 -421 l 561 352 l 422 352 l 422 -421 l 303 -421 z "},"╦":{"ha":984,"x_min":-16,"x_max":999,"o":"m 999 491 l -16 491 l -16 610 l 999 610 l 999 491 m 303 233 l -16 233 l -16 352 l 422 352 l 422 -421 l 303 -421 l 303 233 m 561 -421 l 561 352 l 999 352 l 999 233 l 680 233 l 680 -421 l 561 -421 z "},"╧":{"ha":984,"x_min":-16,"x_max":999,"o":"m 999 491 l -16 491 l -16 610 l 432 610 l 432 1264 l 551 1264 l 551 610 l 999 610 l 999 491 m 999 233 l -16 233 l -16 352 l 999 352 l 999 233 z "},"╨":{"ha":984,"x_min":-16,"x_max":999,"o":"m 999 362 l -16 362 l -16 481 l 303 481 l 303 1264 l 422 1264 l 422 481 l 561 481 l 561 1264 l 680 1264 l 680 481 l 999 481 l 999 362 z "},"╩":{"ha":984,"x_min":-16,"x_max":999,"o":"m 422 491 l -16 491 l -16 610 l 303 610 l 303 1264 l 422 1264 l 422 491 m 999 491 l 561 491 l 561 1264 l 680 1264 l 680 610 l 999 610 l 999 491 m 999 233 l -16 233 l -16 352 l 999 352 l 999 233 z "},"╪":{"ha":984,"x_min":-16,"x_max":999,"o":"m 432 233 l -16 233 l -16 352 l 432 352 l 432 491 l -16 491 l -16 610 l 432 610 l 432 1264 l 551 1264 l 551 610 l 999 610 l 999 491 l 551 491 l 551 352 l 999 352 l 999 233 l 551 233 l 551 -421 l 432 -421 l 432 233 z "},"╫":{"ha":984,"x_min":-16,"x_max":999,"o":"m 303 -421 l 304 362 l -16 362 l -16 481 l 303 481 l 303 1264 l 422 1264 l 422 481 l 561 481 l 561 1264 l 680 1264 l 680 481 l 999 481 l 999 362 l 680 362 l 680 -421 l 561 -421 l 561 362 l 422 362 l 422 -421 l 303 -421 z "},"╬":{"ha":984,"x_min":-16,"x_max":999,"o":"m 680 610 l 999 610 l 999 491 l 562 491 l 562 1264 l 680 1264 l 680 610 m 303 610 l 303 1264 l 422 1264 l 422 491 l -16 491 l -16 610 l 303 610 m 303 233 l -16 233 l -16 352 l 422 352 l 422 -421 l 303 -421 l 303 233 m 680 233 l 680 -421 l 562 -421 l 562 352 l 999 352 l 999 233 l 680 233 z "},"▀":{"ha":984,"x_min":-16,"x_max":999,"o":"m 999 421 l -16 421 l -16 1264 l 999 1264 l 999 421 z "},"▄":{"ha":984,"x_min":-16,"x_max":999,"o":"m 999 -421 l -16 -421 l -16 421 l 999 421 l 999 -421 z "},"█":{"ha":984,"x_min":-16,"x_max":999,"o":"m -16 -421 l -16 1264 l 999 1264 l 999 -421 l -16 -421 z "},"▌":{"ha":984,"x_min":-16,"x_max":492,"o":"m -16 -421 l -16 1264 l 492 1264 l 492 -421 l -16 -421 z "},"▐":{"ha":984,"x_min":492,"x_max":1000,"o":"m 492 -421 l 492 1264 l 1000 1264 l 1000 -421 l 492 -421 z "},"░":{"ha":984,"x_min":69,"x_max":999,"o":"m 69 1264 l 154 1264 l 154 1179 l 69 1179 l 69 1264 m 407 1264 l 492 1264 l 492 1179 l 407 1179 l 407 1264 m 745 1264 l 830 1264 l 830 1179 l 745 1179 l 745 1264 m 238 1095 l 323 1095 l 323 1010 l 238 1010 l 238 1095 m 576 1095 l 661 1095 l 661 1010 l 576 1010 l 576 1095 m 914 1095 l 999 1095 l 999 1010 l 914 1010 l 914 1095 m 745 926 l 830 926 l 830 842 l 745 842 l 745 926 m 407 926 l 492 926 l 492 842 l 407 842 l 407 926 m 69 926 l 154 926 l 154 842 l 69 842 l 69 926 m 914 757 l 999 757 l 999 673 l 914 673 l 914 757 m 576 757 l 661 757 l 661 673 l 576 673 l 576 757 m 238 757 l 323 757 l 323 673 l 238 673 l 238 757 m 69 588 l 154 588 l 154 503 l 69 503 l 69 588 m 407 588 l 492 588 l 492 503 l 407 503 l 407 588 m 745 588 l 830 588 l 830 503 l 745 503 l 745 588 m 914 419 l 999 419 l 999 334 l 914 334 l 914 419 m 576 419 l 661 419 l 661 334 l 576 334 l 576 419 m 238 419 l 323 419 l 323 334 l 238 334 l 238 419 m 69 250 l 154 250 l 154 165 l 69 165 l 69 250 m 407 250 l 492 250 l 492 165 l 407 165 l 407 250 m 745 250 l 830 250 l 830 165 l 745 165 l 745 250 m 238 81 l 323 81 l 323 -3 l 238 -3 l 238 81 m 576 81 l 661 81 l 661 -3 l 576 -3 l 576 81 m 914 81 l 999 81 l 999 -3 l 914 -3 l 914 81 m 745 -88 l 830 -88 l 830 -173 l 745 -173 l 745 -88 m 407 -88 l 492 -88 l 492 -173 l 407 -173 l 407 -88 m 69 -88 l 154 -88 l 154 -173 l 69 -173 l 69 -88 m 238 -257 l 323 -257 l 323 -342 l 238 -342 l 238 -257 m 576 -257 l 661 -257 l 661 -342 l 576 -342 l 576 -257 m 914 -257 l 999 -257 l 999 -342 l 914 -342 l 914 -257 z "},"▒":{"ha":984,"x_min":-15,"x_max":999,"o":"m 70 1264 l 154 1264 l 154 1179 l 70 1179 l 70 1264 m 239 1264 l 323 1264 l 323 1179 l 239 1179 l 239 1264 m 408 1264 l 492 1264 l 492 1179 l 408 1179 l 408 1264 m 576 1264 l 661 1264 l 661 1179 l 576 1179 l 576 1264 m 746 1264 l 830 1264 l 830 1179 l 746 1179 l 746 1264 m 915 1264 l 999 1264 l 999 1179 l 915 1179 l 915 1264 m -15 1095 l 70 1095 l 70 1010 l -15 1010 l -15 1095 m 154 1095 l 239 1095 l 239 1010 l 154 1010 l 154 1095 m 323 1095 l 408 1095 l 408 1010 l 323 1010 l 323 1095 m 492 1095 l 576 1095 l 576 1010 l 492 1010 l 492 1095 m 661 1095 l 746 1095 l 746 1010 l 661 1010 l 661 1095 m 830 1095 l 915 1095 l 915 1010 l 830 1010 l 830 1095 m 70 926 l 154 926 l 154 842 l 70 842 l 70 926 m 239 926 l 323 926 l 323 842 l 239 842 l 239 926 m 408 926 l 492 926 l 492 842 l 408 842 l 408 926 m 576 926 l 661 926 l 661 842 l 576 842 l 576 926 m 746 926 l 830 926 l 830 842 l 746 842 l 746 926 m 915 926 l 999 926 l 999 842 l 915 842 l 915 926 m -15 757 l 70 757 l 70 673 l -15 673 l -15 757 m 154 757 l 239 757 l 239 673 l 154 673 l 154 757 m 323 757 l 408 757 l 408 673 l 323 673 l 323 757 m 492 757 l 576 757 l 576 673 l 492 673 l 492 757 m 661 757 l 746 757 l 746 673 l 661 673 l 661 757 m 830 757 l 915 757 l 915 673 l 830 673 l 830 757 m 70 588 l 154 588 l 154 503 l 70 503 l 70 588 m 239 588 l 323 588 l 323 503 l 239 503 l 239 588 m 408 588 l 492 588 l 492 503 l 408 503 l 408 588 m 576 588 l 661 588 l 661 503 l 576 503 l 576 588 m 746 588 l 830 588 l 830 503 l 746 503 l 746 588 m 915 588 l 999 588 l 999 503 l 915 503 l 915 588 m -15 419 l 70 419 l 70 334 l -15 334 l -15 419 m 323 419 l 408 419 l 408 334 l 323 334 l 323 419 m 492 419 l 576 419 l 576 334 l 492 334 l 492 419 m 661 419 l 746 419 l 746 334 l 661 334 l 661 419 m 830 419 l 915 419 l 915 334 l 830 334 l 830 419 m 154 419 l 239 419 l 239 334 l 154 334 l 154 419 m 915 250 l 999 250 l 999 165 l 915 165 l 915 250 m 746 250 l 830 250 l 830 165 l 746 165 l 746 250 m 576 250 l 661 250 l 661 165 l 576 165 l 576 250 m 408 250 l 492 250 l 492 165 l 408 165 l 408 250 m 239 250 l 323 250 l 323 165 l 239 165 l 239 250 m 70 250 l 154 250 l 154 165 l 70 165 l 70 250 m -15 81 l 70 81 l 70 -3 l -15 -3 l -15 81 m 154 81 l 239 81 l 239 -3 l 154 -3 l 154 81 m 323 81 l 408 81 l 408 -3 l 323 -3 l 323 81 m 492 81 l 576 81 l 576 -3 l 492 -3 l 492 81 m 661 81 l 746 81 l 746 -3 l 661 -3 l 661 81 m 830 81 l 915 81 l 915 -3 l 830 -3 l 830 81 m 915 -88 l 999 -88 l 999 -173 l 915 -173 l 915 -88 m 746 -88 l 830 -88 l 830 -173 l 746 -173 l 746 -88 m 576 -88 l 661 -88 l 661 -173 l 576 -173 l 576 -88 m 408 -88 l 492 -88 l 492 -173 l 408 -173 l 408 -88 m 239 -88 l 323 -88 l 323 -173 l 239 -173 l 239 -88 m 70 -88 l 154 -88 l 154 -173 l 70 -173 l 70 -88 m -15 -257 l 70 -257 l 70 -342 l -15 -342 l -15 -257 m 154 -257 l 239 -257 l 239 -342 l 154 -342 l 154 -257 m 323 -257 l 408 -257 l 408 -342 l 323 -342 l 323 -257 m 492 -257 l 576 -257 l 576 -342 l 492 -342 l 492 -257 m 661 -257 l 746 -257 l 746 -342 l 661 -342 l 661 -257 m 830 -257 l 915 -257 l 915 -342 l 830 -342 l 830 -257 z "},"▓":{"ha":1013,"x_min":-1,"x_max":1013,"o":"m 1013 1010 l 1013 757 l 929 757 l 929 673 l 1013 673 l 1013 419 l 929 419 l 929 334 l 1013 334 l 1013 81 l 929 81 l 929 -3 l 1013 -3 l 1013 -257 l 929 -257 l 929 -342 l 1013 -342 l 1013 -426 l -1 -426 l -1 -173 l 84 -173 l 84 -88 l -1 -88 l -1 165 l 84 165 l 84 250 l -1 250 l -1 503 l 84 503 l 84 588 l -1 588 l -1 842 l 84 842 l 84 926 l -1 926 l -1 1179 l 84 1179 l 84 1264 l 168 1264 l 168 1179 l 253 1179 l 253 1264 l 337 1264 l 337 1179 l 422 1179 l 422 1264 l 507 1264 l 507 1179 l 591 1179 l 591 1264 l 675 1264 l 675 1179 l 760 1179 l 760 1264 l 844 1264 l 844 1179 l 929 1179 l 929 1264 l 1013 1264 l 1013 1095 l 929 1095 l 929 1010 l 1013 1010 m 84 1095 l 84 1010 l 168 1010 l 168 1095 l 84 1095 m 253 1095 l 253 1010 l 337 1010 l 337 1095 l 253 1095 m 422 1095 l 422 1010 l 507 1010 l 507 1095 l 422 1095 m 591 1095 l 591 1010 l 675 1010 l 675 1095 l 591 1095 m 760 1095 l 760 1010 l 844 1010 l 844 1095 l 760 1095 m 929 926 l 844 926 l 844 842 l 929 842 l 929 926 m 760 926 l 675 926 l 675 842 l 760 842 l 760 926 m 591 926 l 507 926 l 507 842 l 591 842 l 591 926 m 422 926 l 337 926 l 337 842 l 422 842 l 422 926 m 253 926 l 168 926 l 168 842 l 253 842 l 253 926 m 84 757 l 84 673 l 168 673 l 168 757 l 84 757 m 253 757 l 253 673 l 337 673 l 337 757 l 253 757 m 422 757 l 422 673 l 507 673 l 507 757 l 422 757 m 591 757 l 591 673 l 675 673 l 675 757 l 591 757 m 760 757 l 760 673 l 844 673 l 844 757 l 760 757 m 253 588 l 168 588 l 168 503 l 253 503 l 253 588 m 337 588 l 337 503 l 422 503 l 422 588 l 337 588 m 507 588 l 507 503 l 591 503 l 591 588 l 507 588 m 675 588 l 675 503 l 760 503 l 760 588 l 675 588 m 844 588 l 844 503 l 929 503 l 929 588 l 844 588 m 84 419 l 84 334 l 168 334 l 168 419 l 84 419 m 422 419 l 422 334 l 507 334 l 507 419 l 422 419 m 337 334 l 337 419 l 253 419 l 253 334 l 337 334 m 591 419 l 591 334 l 675 334 l 675 419 l 591 419 m 760 419 l 760 334 l 844 334 l 844 419 l 760 419 m 929 165 l 929 250 l 844 250 l 844 165 l 929 165 m 760 165 l 760 250 l 675 250 l 675 165 l 760 165 m 591 165 l 591 250 l 507 250 l 507 165 l 591 165 m 422 165 l 422 250 l 337 250 l 337 165 l 422 165 m 253 165 l 253 250 l 168 250 l 168 165 l 253 165 m 84 81 l 84 -3 l 168 -3 l 168 81 l 84 81 m 253 81 l 253 -3 l 337 -3 l 337 81 l 253 81 m 422 81 l 422 -3 l 507 -3 l 507 81 l 422 81 m 591 81 l 591 -3 l 675 -3 l 675 81 l 591 81 m 760 81 l 760 -3 l 844 -3 l 844 81 l 760 81 m 929 -173 l 929 -88 l 844 -88 l 844 -173 l 929 -173 m 760 -173 l 760 -88 l 675 -88 l 675 -173 l 760 -173 m 591 -173 l 591 -88 l 507 -88 l 507 -173 l 591 -173 m 422 -173 l 422 -88 l 337 -88 l 337 -173 l 422 -173 m 253 -173 l 253 -88 l 168 -88 l 168 -173 l 253 -173 m 84 -257 l 84 -342 l 168 -342 l 168 -257 l 84 -257 m 253 -257 l 253 -342 l 337 -342 l 337 -257 l 253 -257 m 422 -257 l 422 -342 l 507 -342 l 507 -257 l 422 -257 m 591 -257 l 591 -342 l 675 -342 l 675 -257 l 591 -257 m 760 -257 l 760 -342 l 844 -342 l 844 -257 l 760 -257 z "},"■":{"ha":839,"x_min":99,"x_max":739,"o":"m 99 640 l 739 640 l 739 0 l 99 0 l 99 640 z "},"▬":{"ha":1389,"x_min":0,"x_max":1388,"o":"m 0 477 l 1388 477 l 1388 215 l 0 215 l 0 477 z "},"▲":{"ha":1375,"x_min":206,"x_max":1169,"o":"m 206 0 l 688 962 l 1169 0 l 206 0 z "},"►":{"ha":1375,"x_min":195,"x_max":1179,"o":"m 195 961 l 1179 470 l 195 -21 l 195 961 z "},"▼":{"ha":1375,"x_min":206,"x_max":1169,"o":"m 1169 941 l 688 -21 l 206 941 l 1169 941 z "},"◄":{"ha":1375,"x_min":195,"x_max":1179,"o":"m 1179 961 l 1179 -21 l 195 470 l 1179 961 z "},"○":{"ha":839,"x_min":121,"x_max":718,"o":"m 419 690 q 566 652 494 690 q 678 541 638 613 q 718 392 718 469 q 631 180 718 268 q 420 93 543 93 q 208 180 296 93 q 121 392 121 268 q 161 542 121 470 q 273 652 201 613 q 419 690 345 690 m 420 639 q 298 607 357 639 q 205 515 239 575 q 172 392 172 456 q 245 217 172 290 q 420 144 317 144 q 594 217 522 144 q 667 392 667 290 q 633 515 667 456 q 541 607 600 575 q 420 639 482 639 z "},"◘":{"ha":839,"x_min":87,"x_max":751,"o":"m 87 0 l 87 665 l 751 665 l 751 0 l 87 0 m 419 469 q 322 429 362 469 q 282 332 282 389 q 322 236 282 276 q 419 195 363 195 q 516 236 476 195 q 556 332 556 276 q 516 429 556 389 q 419 469 476 469 z "},"◙":{"ha":839,"x_min":28,"x_max":812,"o":"m 28 0 l 28 783 l 812 783 l 812 0 l 28 0 m 420 690 q 273 652 345 690 q 161 541 201 613 q 121 391 121 469 q 209 180 121 268 q 420 93 296 93 q 631 180 544 93 q 719 391 719 268 q 679 541 719 469 q 567 652 639 613 q 420 690 496 690 m 420 639 q 542 607 482 639 q 634 516 601 575 q 667 391 667 456 q 595 217 667 289 q 420 144 523 144 q 245 217 317 144 q 173 391 173 289 q 206 516 173 456 q 299 607 239 575 q 420 639 358 639 z "},"☺":{"ha":1418,"x_min":277,"x_max":1141,"o":"m 1141 351 q 1015 46 1141 172 q 709 -81 888 -81 q 404 46 530 -81 q 277 351 277 172 q 404 657 277 531 q 709 784 530 784 q 1015 657 888 784 q 1141 351 1141 531 m 1079 351 q 971 613 1079 505 q 709 721 863 721 q 448 613 556 721 q 340 351 340 505 q 448 91 340 199 q 709 -18 556 -18 q 971 91 863 -18 q 1079 351 1079 199 m 598 441 q 582 402 598 418 q 543 386 566 386 q 505 402 521 386 q 488 441 488 418 q 505 480 488 464 q 543 496 521 496 q 582 480 566 496 q 598 441 598 464 m 930 441 q 914 402 930 418 q 875 386 898 386 q 836 402 852 386 q 820 441 820 418 q 836 480 820 464 q 875 496 852 496 q 914 480 898 496 q 930 441 930 464 m 510 212 l 552 237 q 709 139 606 139 q 866 237 813 139 l 909 212 q 825 114 875 148 q 709 80 775 80 q 593 114 643 80 q 510 212 544 148 z "},"☻":{"ha":1461,"x_min":298,"x_max":1163,"o":"m 1163 351 q 1037 46 1163 172 q 731 -81 910 -81 q 425 46 552 -81 q 298 351 298 172 q 425 657 298 531 q 731 784 552 784 q 1037 657 910 784 q 1163 351 1163 531 m 620 441 q 604 480 620 464 q 565 496 588 496 q 526 480 543 496 q 510 441 510 464 q 526 402 510 418 q 565 386 543 386 q 604 402 588 386 q 620 441 620 418 m 951 441 q 936 480 951 464 q 897 496 920 496 q 858 480 874 496 q 842 441 842 464 q 858 402 842 418 q 897 386 874 386 q 936 402 920 386 q 951 441 951 418 m 532 212 q 615 114 566 148 q 731 80 665 80 q 847 114 797 80 q 930 212 897 148 l 888 237 q 731 139 835 139 q 574 237 627 139 l 532 212 z "},"☼":{"ha":1273,"x_min":11,"x_max":1263,"o":"m 612 1099 l 663 1099 l 663 871 q 786 845 732 866 q 900 775 840 823 l 1097 968 l 1132 932 l 938 738 q 1008 623 987 673 q 1035 495 1034 558 l 1263 495 l 1263 448 l 1036 448 q 939 213 1023 320 l 1132 16 l 1093 -18 l 901 173 q 785 105 835 124 q 663 77 736 85 l 663 -151 l 612 -151 l 612 77 q 484 109 536 87 q 378 171 432 130 l 178 -18 l 144 17 l 337 211 q 269 323 292 268 q 239 451 246 379 l 11 451 l 11 498 l 239 498 q 267 624 245 570 q 336 734 290 677 l 144 929 l 176 968 l 374 777 q 496 845 443 824 q 612 871 549 865 l 612 1099 m 983 474 q 881 720 983 618 q 635 821 779 821 q 390 720 492 821 q 288 474 288 618 q 390 228 288 330 q 635 126 492 126 q 881 228 779 126 q 983 474 983 330 z "},"♀":{"ha":1042,"x_min":165,"x_max":876,"o":"m 540 313 l 540 40 l 851 40 l 851 0 l 540 0 l 540 -298 l 500 -298 l 500 0 l 188 0 l 188 40 l 500 40 l 500 313 q 347 357 430 313 q 215 487 264 401 q 165 667 165 572 q 213 844 165 759 q 344 975 260 928 q 521 1022 428 1022 q 697 975 613 1022 q 829 843 782 928 q 876 667 876 759 q 778 422 876 525 q 540 313 681 319 m 520 984 q 364 943 440 984 q 245 825 288 902 q 202 666 202 749 q 295 440 202 534 q 520 347 389 347 q 746 440 652 347 q 839 666 839 534 q 796 825 839 749 q 677 943 753 902 q 520 984 601 984 z "},"♂":{"ha":1042,"x_min":75,"x_max":960,"o":"m 825 1099 l 849 1088 l 960 636 l 921 626 l 825 1020 l 582 499 q 734 362 682 448 q 785 178 785 276 q 739 1 785 85 q 607 -131 692 -83 q 430 -178 523 -178 q 253 -131 338 -178 q 122 1 169 -83 q 75 178 75 85 q 179 429 75 325 q 432 532 283 532 q 545 514 485 532 l 789 1037 l 425 857 l 408 893 l 825 1099 m 430 496 q 274 455 350 496 q 155 337 197 414 q 112 178 112 260 q 205 -48 112 45 q 430 -141 298 -141 q 655 -48 562 -141 q 749 178 749 45 q 706 337 749 260 q 587 455 663 414 q 430 496 511 496 z "},"♠":{"ha":738,"x_min":39,"x_max":699,"o":"m 370 835 q 424 704 387 762 q 554 561 460 646 q 673 431 648 476 q 699 338 699 385 q 655 230 699 273 q 549 186 612 186 q 453 219 496 186 q 377 315 410 252 q 403 157 378 216 q 485 65 429 98 q 633 25 541 31 l 638 0 l 100 0 l 106 25 q 299 98 231 25 q 366 315 368 171 q 290 219 335 251 q 188 186 245 186 q 83 231 127 186 q 39 336 39 275 q 62 426 39 386 q 161 538 92 481 q 262 631 229 594 q 334 731 311 687 q 370 835 357 775 z "},"♣":{"ha":911,"x_min":37,"x_max":873,"o":"m 745 0 l 170 0 l 175 23 q 323 70 287 47 q 413 172 378 104 q 448 315 448 240 q 448 347 448 326 q 347 224 406 262 q 226 185 288 185 q 92 240 147 185 q 37 375 37 295 q 87 508 37 454 q 201 562 138 562 q 312 527 242 562 q 275 598 283 574 q 267 650 267 623 q 320 781 267 728 q 454 835 374 835 q 588 781 534 835 q 643 654 643 728 q 596 527 643 593 q 665 557 653 554 q 706 563 683 563 q 824 510 774 563 q 873 378 873 456 q 819 241 873 296 q 688 186 764 186 q 600 207 645 186 q 522 262 555 227 q 463 347 498 287 q 495 176 465 239 q 588 72 526 113 q 739 23 630 44 l 745 0 z "},"♥":{"ha":825,"x_min":43,"x_max":782,"o":"m 414 -16 q 354 134 393 64 q 203 352 315 204 q 102 490 121 460 q 57 577 71 537 q 43 657 43 616 q 93 783 43 732 q 217 834 143 834 q 347 781 292 834 q 414 664 388 742 q 477 781 436 741 q 607 835 533 835 q 731 784 680 835 q 782 664 782 734 q 752 537 782 603 q 637 363 722 471 q 475 133 526 223 q 414 -16 435 62 z "},"♦":{"ha":709,"x_min":43,"x_max":666,"o":"m 353 835 q 502 615 414 732 q 666 410 604 479 q 502 205 616 357 q 354 -16 410 81 q 304 66 336 19 q 168 255 249 147 q 43 410 150 279 q 220 632 112 488 q 353 835 300 739 z "},"♪":{"ha":694,"x_min":25,"x_max":669,"o":"m 330 924 l 355 924 q 509 915 472 924 q 604 863 563 901 q 652 782 634 834 q 669 661 669 730 l 669 591 l 602 591 l 602 621 q 583 699 602 667 q 526 748 564 731 q 416 770 476 770 l 397 770 l 397 203 q 375 76 397 121 q 300 2 353 30 q 185 -25 248 -25 q 68 17 111 -25 q 25 126 25 58 q 77 246 25 197 q 212 294 128 294 q 330 263 264 294 l 330 924 z "},"♫":{"ha":1042,"x_min":58,"x_max":902,"o":"m 362 862 l 902 1030 l 902 279 q 881 152 902 195 q 808 81 859 109 q 692 54 757 54 q 574 96 618 54 q 530 205 530 138 q 583 322 530 273 q 718 372 635 372 q 765 367 745 372 q 833 342 786 362 l 833 833 l 429 708 l 429 141 q 408 13 429 59 q 333 -60 386 -33 q 218 -87 280 -87 q 101 -45 144 -87 q 58 64 58 -3 q 109 183 58 135 q 244 232 161 232 q 362 201 297 232 l 362 862 z "},"Ĳ":{"ha":1021,"x_min":130,"x_max":949,"o":"m 130 0 l 130 994 l 261 994 l 261 0 l 130 0 m 403 282 l 522 298 q 564 142 526 184 q 669 100 602 100 q 755 123 719 100 q 804 185 791 146 q 818 309 818 224 l 818 994 l 949 994 l 949 317 q 919 123 949 192 q 824 19 889 55 q 670 -17 758 -17 q 470 58 539 -17 q 403 282 400 134 z "},"ĳ":{"ha":616,"x_min":92,"x_max":537,"o":"m 92 854 l 92 994 l 214 994 l 214 854 l 92 854 m 92 0 l 92 720 l 214 720 l 214 0 l 92 0 m 415 852 l 415 994 l 537 994 l 537 852 l 415 852 m 260 -279 l 283 -176 q 341 -185 320 -185 q 397 -160 378 -185 q 415 -37 415 -136 l 415 720 l 537 720 l 537 -39 q 503 -224 537 -172 q 356 -292 458 -292 q 260 -279 307 -292 z "},"ŉ":{"ha":839,"x_min":73,"x_max":840,"o":"m 254 0 l 254 720 l 364 720 l 364 618 q 593 736 444 736 q 713 713 659 736 q 795 652 768 690 q 833 562 822 614 q 840 443 840 528 l 840 0 l 718 0 l 718 438 q 703 550 718 513 q 653 609 689 587 q 568 631 616 631 q 433 581 490 631 q 376 393 376 532 l 376 0 l 254 0 m 84 863 l 84 1004 l 215 1004 l 215 892 q 194 762 215 802 q 103 679 165 707 l 73 727 q 128 774 110 742 q 148 863 146 806 l 84 863 z "},"′":{"ha":260,"x_min":87,"x_max":270,"o":"m 87 642 l 95 828 l 130 994 l 270 994 l 234 828 l 163 642 l 87 642 z "},"″":{"ha":492,"x_min":87,"x_max":462,"o":"m 87 642 l 95 828 l 130 994 l 270 994 l 234 828 l 163 642 l 87 642 m 279 642 l 287 828 l 322 994 l 462 994 l 426 828 l 355 642 l 279 642 z "},"℅":{"ha":1230,"x_min":66,"x_max":1164,"o":"m 420 681 l 504 670 q 434 534 490 583 q 294 486 377 486 q 129 553 191 486 q 66 747 66 621 q 129 944 66 877 q 295 1011 192 1011 q 430 970 378 1011 q 496 852 481 928 l 413 839 q 371 916 401 890 q 298 941 341 941 q 194 895 234 941 q 153 749 153 849 q 192 602 153 648 q 294 555 231 555 q 377 586 344 555 q 420 681 411 616 m 277 -37 l 821 1011 l 920 1011 l 378 -37 l 277 -37 m 692 252 q 758 447 692 378 q 928 515 823 515 q 1099 447 1033 515 q 1164 259 1164 378 q 1100 57 1164 125 q 928 -12 1035 -12 q 758 56 823 -12 q 692 252 692 124 m 780 252 q 822 107 780 155 q 928 59 865 59 q 1035 107 992 59 q 1077 254 1077 155 q 1035 396 1077 348 q 928 444 992 444 q 822 396 865 444 q 780 252 780 348 z "},"ℓ":{"ha":449,"x_min":10,"x_max":438,"o":"m 10 286 l 130 446 l 130 754 q 172 959 130 907 q 289 1011 214 1011 q 396 967 354 1011 q 438 849 438 923 q 397 697 438 787 q 245 451 357 607 l 245 170 q 255 95 245 109 q 283 80 264 80 q 323 91 300 80 q 418 153 347 102 l 418 43 q 265 -16 342 -16 q 166 22 203 -16 q 130 147 130 61 l 130 300 l 77 233 l 10 286 m 245 610 q 327 768 311 724 q 343 848 343 811 q 326 913 343 890 q 292 930 312 930 q 260 912 271 930 q 245 764 245 884 l 245 610 z "},"□":{"ha":839,"x_min":99,"x_max":739,"o":"m 99 640 l 739 640 l 739 0 l 99 0 l 99 640 m 151 589 l 151 52 l 688 52 l 688 589 l 151 589 z "},"▪":{"ha":492,"x_min":89,"x_max":403,"o":"m 403 616 l 403 302 l 89 302 l 89 616 l 403 616 z "},"▫":{"ha":492,"x_min":89,"x_max":403,"o":"m 403 616 l 403 302 l 89 302 l 89 616 l 403 616 m 351 564 l 140 564 l 140 353 l 351 353 l 351 564 z "},"●":{"ha":839,"x_min":121,"x_max":718,"o":"m 420 690 q 566 652 494 690 q 678 541 638 613 q 718 392 718 469 q 631 180 718 268 q 420 93 543 93 q 208 180 296 93 q 121 392 121 268 q 161 542 121 470 q 273 652 201 613 q 420 690 345 690 z "},"◦":{"ha":492,"x_min":76,"x_max":416,"o":"m 246 629 q 367 579 317 629 q 416 459 416 530 q 367 339 416 389 q 246 289 317 289 q 126 339 176 289 q 76 459 76 389 q 125 579 76 530 q 246 629 175 629 m 246 578 q 162 543 197 578 q 127 459 127 508 q 162 375 127 410 q 246 340 197 340 q 330 375 295 340 q 365 459 365 410 q 330 543 365 508 q 246 578 296 578 z "},"Ā":{"ha":926,"x_min":-2,"x_max":928,"o":"m -2 0 l 380 994 l 522 994 l 928 0 l 779 0 l 663 301 l 247 301 l 138 0 l -2 0 m 285 408 l 622 408 l 518 684 q 448 890 471 809 q 394 700 429 794 l 285 408 m 243 1070 l 243 1171 l 667 1171 l 667 1070 l 243 1070 z "},"ā":{"ha":772,"x_min":50,"x_max":713,"o":"m 562 89 q 431 7 494 31 q 296 -16 368 -16 q 114 42 178 -16 q 50 190 50 100 q 74 287 50 243 q 137 357 98 330 q 225 397 176 383 q 334 415 261 406 q 551 457 481 433 q 552 489 552 482 q 517 594 552 564 q 378 635 471 635 q 251 605 292 635 q 191 498 210 575 l 71 515 q 125 638 87 591 q 233 711 162 686 q 396 736 303 736 q 546 715 488 736 q 631 660 604 693 q 669 577 658 627 q 675 465 675 546 l 675 302 q 683 86 675 132 q 713 0 690 41 l 586 0 q 562 89 567 38 m 551 361 q 352 315 485 334 q 245 291 277 304 q 197 251 214 277 q 180 193 180 225 q 217 112 180 144 q 326 79 254 79 q 451 110 396 79 q 532 195 506 141 q 551 317 551 236 l 551 361 m 186 832 l 186 932 l 609 932 l 609 832 l 186 832 z "},"Ĉ":{"ha":1003,"x_min":69,"x_max":948,"o":"m 817 349 l 948 315 q 799 68 907 153 q 536 -17 692 -17 q 275 48 376 -17 q 122 238 174 114 q 69 505 69 362 q 129 775 69 660 q 297 951 188 891 q 538 1011 407 1011 q 789 935 688 1011 q 931 722 891 859 l 802 691 q 701 849 767 800 q 536 899 635 899 q 344 844 421 899 q 236 696 267 789 q 205 505 205 604 q 242 284 205 378 q 357 142 279 189 q 526 96 435 96 q 713 159 636 96 q 817 349 789 223 m 526 1166 l 450 1051 l 310 1051 l 456 1241 l 587 1241 l 739 1051 l 601 1051 l 526 1166 z "},"ĉ":{"ha":694,"x_min":54,"x_max":682,"o":"m 562 264 l 682 248 q 581 54 662 124 q 382 -16 500 -16 q 144 80 234 -16 q 54 357 54 177 q 93 562 54 474 q 211 693 132 649 q 382 736 290 736 q 574 677 500 736 q 670 509 649 618 l 551 490 q 491 600 534 563 q 387 636 448 636 q 237 570 295 636 q 180 361 180 504 q 235 150 180 216 q 380 84 291 84 q 500 128 452 84 q 562 264 549 172 m 403 925 l 326 810 l 186 810 l 333 1000 l 463 1000 l 616 810 l 477 810 l 403 925 z "},"Ċ":{"ha":1003,"x_min":69,"x_max":948,"o":"m 817 349 l 948 315 q 799 68 907 153 q 536 -17 692 -17 q 275 48 376 -17 q 122 238 174 114 q 69 505 69 362 q 129 775 69 660 q 297 951 188 891 q 538 1011 407 1011 q 789 935 688 1011 q 931 722 891 859 l 802 691 q 701 849 767 800 q 536 899 635 899 q 344 844 421 899 q 236 696 267 789 q 205 505 205 604 q 242 284 205 378 q 357 142 279 189 q 526 96 435 96 q 713 159 636 96 q 817 349 789 223 m 448 1081 l 448 1233 l 600 1233 l 600 1081 l 448 1081 z "},"ċ":{"ha":694,"x_min":54,"x_max":682,"o":"m 562 264 l 682 248 q 581 54 662 124 q 382 -16 500 -16 q 144 80 234 -16 q 54 357 54 177 q 93 562 54 474 q 211 693 132 649 q 382 736 290 736 q 574 677 500 736 q 670 509 649 618 l 551 490 q 491 600 534 563 q 387 636 448 636 q 237 570 295 636 q 180 361 180 504 q 235 150 180 216 q 380 84 291 84 q 500 128 452 84 q 562 264 549 172 m 318 810 l 318 962 l 469 962 l 469 810 l 318 810 z "},"Ē":{"ha":926,"x_min":110,"x_max":852,"o":"m 110 0 l 110 994 l 829 994 l 829 877 l 241 877 l 241 572 l 791 572 l 791 456 l 241 456 l 241 117 l 852 117 l 852 0 l 110 0 m 281 1078 l 281 1178 l 704 1178 l 704 1078 l 281 1078 z "},"ē":{"ha":772,"x_min":51,"x_max":715,"o":"m 585 232 l 711 216 q 600 45 681 106 q 394 -16 519 -16 q 143 81 236 -16 q 51 354 51 178 q 144 636 51 536 q 387 736 238 736 q 623 638 532 736 q 715 361 715 540 q 714 329 715 351 l 177 329 q 244 147 184 210 q 395 84 304 84 q 509 119 462 84 q 585 232 557 155 m 184 429 l 586 429 q 540 566 578 520 q 389 636 481 636 q 247 580 304 636 q 184 429 190 524 m 172 832 l 172 932 l 595 932 l 595 832 l 172 832 z "},"Ĕ":{"ha":926,"x_min":110,"x_max":852,"o":"m 110 0 l 110 994 l 829 994 l 829 877 l 241 877 l 241 572 l 791 572 l 791 456 l 241 456 l 241 117 l 852 117 l 852 0 l 110 0 m 595 1238 l 678 1238 q 616 1108 668 1154 q 478 1063 564 1063 q 339 1108 391 1063 q 277 1238 288 1153 l 361 1238 q 398 1170 370 1192 q 474 1147 427 1147 q 557 1169 529 1147 q 595 1238 585 1191 z "},"ĕ":{"ha":772,"x_min":51,"x_max":715,"o":"m 585 232 l 711 216 q 600 45 681 106 q 394 -16 519 -16 q 143 81 236 -16 q 51 354 51 178 q 144 636 51 536 q 387 736 238 736 q 623 638 532 736 q 715 361 715 540 q 714 329 715 351 l 177 329 q 244 147 184 210 q 395 84 304 84 q 509 119 462 84 q 585 232 557 155 m 184 429 l 586 429 q 540 566 578 520 q 389 636 481 636 q 247 580 304 636 q 184 429 190 524 m 514 993 l 597 993 q 535 863 587 908 q 397 817 484 817 q 259 862 311 817 q 197 993 207 907 l 280 993 q 318 924 290 947 q 393 901 346 901 q 476 923 448 901 q 514 993 505 945 z "},"Ė":{"ha":926,"x_min":110,"x_max":852,"o":"m 110 0 l 110 994 l 829 994 l 829 877 l 241 877 l 241 572 l 791 572 l 791 456 l 241 456 l 241 117 l 852 117 l 852 0 l 110 0 m 416 1055 l 416 1207 l 568 1207 l 568 1055 l 416 1055 z "},"ė":{"ha":772,"x_min":51,"x_max":715,"o":"m 585 232 l 711 216 q 600 45 681 106 q 394 -16 519 -16 q 143 81 236 -16 q 51 354 51 178 q 144 636 51 536 q 387 736 238 736 q 623 638 532 736 q 715 361 715 540 q 714 329 715 351 l 177 329 q 244 147 184 210 q 395 84 304 84 q 509 119 462 84 q 585 232 557 155 m 184 429 l 586 429 q 540 566 578 520 q 389 636 481 636 q 247 580 304 636 q 184 429 190 524 m 325 810 l 325 962 l 476 962 l 476 810 l 325 810 z "},"Ĝ":{"ha":1080,"x_min":74,"x_max":994,"o":"m 572 390 l 572 507 l 994 507 l 994 138 q 793 22 897 61 q 582 -17 690 -17 q 316 46 435 -17 q 135 227 196 109 q 74 492 74 346 q 135 763 74 637 q 309 950 195 889 q 572 1011 423 1011 q 767 976 680 1011 q 903 879 854 941 q 979 716 953 817 l 860 684 q 804 803 838 760 q 709 872 771 846 q 572 899 648 899 q 416 871 482 899 q 310 799 351 844 q 248 701 270 754 q 210 500 210 608 q 255 278 210 368 q 389 145 301 189 q 574 102 476 102 q 741 135 660 102 q 865 205 823 168 l 865 390 l 572 390 m 590 1163 l 513 1048 l 374 1048 l 520 1238 l 650 1238 l 803 1048 l 665 1048 l 590 1163 z "},"ĝ":{"ha":772,"x_min":45,"x_max":680,"o":"m 69 -60 l 188 -77 q 229 -157 195 -132 q 353 -191 275 -191 q 484 -157 438 -191 q 547 -62 530 -123 q 555 94 556 -25 q 356 0 475 0 q 126 107 208 0 q 45 364 45 214 q 82 554 45 467 q 190 689 119 642 q 357 736 261 736 q 567 633 484 736 l 567 720 l 680 720 l 680 98 q 645 -141 680 -71 q 537 -252 611 -211 q 354 -292 463 -292 q 146 -234 225 -292 q 69 -60 66 -176 m 170 373 q 227 166 170 231 q 368 101 283 101 q 509 166 452 101 q 566 369 566 231 q 507 568 566 501 q 366 635 448 635 q 227 569 284 635 q 170 373 170 503 m 369 925 l 292 810 l 153 810 l 299 1000 l 429 1000 l 582 810 l 444 810 l 369 925 z "},"Ġ":{"ha":1080,"x_min":74,"x_max":994,"o":"m 572 390 l 572 507 l 994 507 l 994 138 q 793 22 897 61 q 582 -17 690 -17 q 316 46 435 -17 q 135 227 196 109 q 74 492 74 346 q 135 763 74 637 q 309 950 195 889 q 572 1011 423 1011 q 767 976 680 1011 q 903 879 854 941 q 979 716 953 817 l 860 684 q 804 803 838 760 q 709 872 771 846 q 572 899 648 899 q 416 871 482 899 q 310 799 351 844 q 248 701 270 754 q 210 500 210 608 q 255 278 210 368 q 389 145 301 189 q 574 102 476 102 q 741 135 660 102 q 865 205 823 168 l 865 390 l 572 390 m 512 1048 l 512 1200 l 663 1200 l 663 1048 l 512 1048 z "},"ġ":{"ha":772,"x_min":45,"x_max":680,"o":"m 69 -60 l 188 -77 q 229 -157 195 -132 q 353 -191 275 -191 q 484 -157 438 -191 q 547 -62 530 -123 q 555 94 556 -25 q 356 0 475 0 q 126 107 208 0 q 45 364 45 214 q 82 554 45 467 q 190 689 119 642 q 357 736 261 736 q 567 633 484 736 l 567 720 l 680 720 l 680 98 q 645 -141 680 -71 q 537 -252 611 -211 q 354 -292 463 -292 q 146 -234 225 -292 q 69 -60 66 -176 m 170 373 q 227 166 170 231 q 368 101 283 101 q 509 166 452 101 q 566 369 566 231 q 507 568 566 501 q 366 635 448 635 q 227 569 284 635 q 170 373 170 503 m 310 810 l 310 962 l 461 962 l 461 810 l 310 810 z "},"Ģ":{"ha":1080,"x_min":74,"x_max":994,"o":"m 572 390 l 572 507 l 994 507 l 994 138 q 793 22 897 61 q 582 -17 690 -17 q 316 46 435 -17 q 135 227 196 109 q 74 492 74 346 q 135 763 74 637 q 309 950 195 889 q 572 1011 423 1011 q 767 976 680 1011 q 903 879 854 941 q 979 716 953 817 l 860 684 q 804 803 838 760 q 709 872 771 846 q 572 899 648 899 q 416 871 482 899 q 310 799 351 844 q 248 701 270 754 q 210 500 210 608 q 255 278 210 368 q 389 145 301 189 q 574 102 476 102 q 741 135 660 102 q 865 205 823 168 l 865 390 l 572 390 m 497 -34 q 542 -31 521 -31 q 677 -68 635 -31 q 719 -155 719 -106 q 671 -246 719 -207 q 520 -286 623 -286 q 425 -277 477 -286 l 433 -198 q 492 -201 463 -201 q 605 -149 605 -201 q 519 -104 605 -104 q 497 -105 509 -104 l 497 -34 z "},"ģ":{"ha":772,"x_min":45,"x_max":680,"o":"m 429 912 l 429 793 l 287 793 l 287 873 q 312 996 287 949 q 401 1069 337 1044 l 437 1013 q 363 912 374 986 l 429 912 m 69 -60 l 188 -77 q 353 -191 199 -191 q 483 -159 435 -191 q 543 -77 530 -126 q 555 94 555 -28 q 358 0 476 0 q 127 107 209 0 q 45 363 45 214 q 127 631 45 526 q 358 736 209 736 q 567 633 484 736 l 567 720 l 680 720 l 680 98 q 648 -133 680 -59 q 539 -250 617 -207 q 357 -292 462 -292 q 139 -229 212 -292 q 69 -60 66 -165 m 170 373 q 228 165 170 229 q 368 101 286 101 q 510 168 455 101 q 566 372 566 235 q 513 561 566 487 q 366 635 460 635 q 224 565 277 635 q 170 373 170 495 z "},"Ĥ":{"ha":1003,"x_min":111,"x_max":891,"o":"m 111 0 l 111 994 l 243 994 l 243 586 l 760 586 l 760 994 l 891 994 l 891 0 l 760 0 l 760 469 l 243 469 l 243 0 l 111 0 m 525 1171 l 448 1055 l 309 1055 l 455 1245 l 585 1245 l 738 1055 l 600 1055 l 525 1171 z "},"ĥ":{"ha":772,"x_min":92,"x_max":678,"o":"m 92 0 l 92 994 l 214 994 l 214 637 q 429 736 299 736 q 568 705 509 736 q 653 618 627 673 q 678 456 678 562 l 678 0 l 556 0 l 556 456 q 516 590 556 548 q 404 631 477 631 q 302 603 350 631 q 234 527 254 575 q 214 394 214 479 l 214 0 l 92 0 m 437 1171 l 360 1055 l 220 1055 l 367 1245 l 497 1245 l 650 1055 l 511 1055 l 437 1171 z "},"Ħ":{"ha":1003,"x_min":21,"x_max":981,"o":"m 111 745 l 21 745 l 21 846 l 111 846 l 111 994 l 243 994 l 243 846 l 760 846 l 760 994 l 891 994 l 891 846 l 981 846 l 981 745 l 891 745 l 891 0 l 760 0 l 760 469 l 243 469 l 243 0 l 111 0 l 111 745 m 243 745 l 243 586 l 760 586 l 760 745 l 243 745 z "},"ħ":{"ha":772,"x_min":4,"x_max":678,"o":"m 92 813 l 4 813 l 4 904 l 92 904 l 92 994 l 214 994 l 214 904 l 463 904 l 463 813 l 214 813 l 214 637 q 431 736 296 736 q 601 685 524 736 q 678 456 678 633 l 678 0 l 556 0 l 556 456 q 404 631 556 631 q 267 577 320 631 q 214 394 214 522 l 214 0 l 92 0 l 92 813 z "},"Ĩ":{"ha":386,"x_min":-43,"x_max":411,"o":"m 130 0 l 130 994 l 261 994 l 261 0 l 130 0 m -43 1072 q -4 1185 -43 1143 q 95 1227 35 1227 q 210 1190 137 1227 q 273 1170 250 1170 q 307 1182 295 1170 q 323 1229 318 1194 l 411 1229 q 372 1113 409 1152 q 278 1074 335 1074 q 165 1112 235 1074 q 99 1137 120 1137 q 62 1120 76 1137 q 47 1072 47 1104 l -43 1072 z "},"ĩ":{"ha":386,"x_min":-31,"x_max":423,"o":"m 134 0 l 134 720 l 256 720 l 256 0 l 134 0 m -31 827 q 8 939 -31 897 q 107 981 47 981 q 222 945 149 981 q 286 924 262 924 q 319 936 307 924 q 335 983 330 948 l 423 983 q 384 867 421 906 q 290 829 347 829 q 178 867 248 829 q 111 891 132 891 q 74 875 88 891 q 60 827 59 859 l -31 827 z "},"Ī":{"ha":386,"x_min":-19,"x_max":404,"o":"m 130 0 l 130 994 l 261 994 l 261 0 l 130 0 m -19 1060 l -19 1160 l 404 1160 l 404 1060 l -19 1060 z "},"ī":{"ha":386,"x_min":-16,"x_max":408,"o":"m 134 0 l 134 720 l 256 720 l 256 0 l 134 0 m -16 832 l -16 932 l 408 932 l 408 832 l -16 832 z "},"Ĭ":{"ha":386,"x_min":-1,"x_max":400,"o":"m 130 0 l 130 994 l 261 994 l 261 0 l 130 0 m 317 1221 l 400 1221 q 338 1090 390 1136 q 200 1045 286 1045 q 61 1090 113 1045 q -1 1221 9 1135 l 83 1221 q 120 1152 92 1175 q 196 1129 149 1129 q 279 1151 251 1129 q 317 1221 307 1173 z "},"ĭ":{"ha":386,"x_min":-4,"x_max":397,"o":"m 134 0 l 134 720 l 256 720 l 256 0 l 134 0 m 313 993 l 397 993 q 335 863 387 908 q 197 817 283 817 q 58 862 110 817 q -4 993 6 907 l 79 993 q 117 924 89 947 q 193 901 145 901 q 276 923 248 901 q 313 993 304 945 z "},"Į":{"ha":386,"x_min":51,"x_max":281,"o":"m 130 0 l 130 994 l 261 994 l 261 0 l 130 0 m 234 0 q 174 -59 195 -24 q 153 -130 153 -94 q 168 -178 153 -158 q 219 -197 184 -197 q 251 -193 235 -197 q 281 -181 267 -189 l 281 -268 q 189 -292 231 -292 q 128 -282 154 -292 q 85 -255 102 -272 q 59 -215 68 -237 q 51 -167 51 -193 q 75 -80 51 -123 q 144 0 100 -36 l 234 0 z "},"į":{"ha":309,"x_min":17,"x_max":247,"o":"m 92 854 l 92 994 l 214 994 l 214 854 l 92 854 m 92 0 l 92 720 l 214 720 l 214 0 l 92 0 m 200 0 q 140 -59 161 -24 q 119 -130 119 -94 q 134 -178 119 -158 q 185 -197 150 -197 q 217 -193 201 -197 q 247 -181 233 -189 l 247 -268 q 155 -292 197 -292 q 94 -282 120 -292 q 51 -255 68 -272 q 25 -215 34 -237 q 17 -167 17 -193 q 41 -80 17 -123 q 111 0 66 -36 l 200 0 z "},"Ĵ":{"ha":694,"x_min":37,"x_max":751,"o":"m 40 282 l 159 298 q 201 142 163 184 q 307 100 239 100 q 392 123 356 100 q 441 185 428 146 q 455 309 455 224 l 455 994 l 587 994 l 587 317 q 556 123 587 192 q 461 19 526 55 q 307 -17 395 -17 q 107 58 176 -17 q 40 282 37 134 m 538 1171 l 462 1055 l 322 1055 l 469 1245 l 599 1245 l 751 1055 l 613 1055 l 538 1171 z "},"ĵ":{"ha":309,"x_min":-64,"x_max":369,"o":"m 156 925 l 79 810 l -60 810 l 87 1000 l 217 1000 l 369 810 l 231 810 l 156 925 m -64 -279 l -41 -176 q 17 -185 -5 -185 q 75 -157 60 -185 q 91 -37 91 -129 l 91 720 l 213 720 l 213 -39 q 173 -233 213 -173 q 32 -292 134 -292 q -64 -279 -18 -292 z "},"Ķ":{"ha":926,"x_min":102,"x_max":924,"o":"m 102 0 l 102 994 l 233 994 l 233 501 l 727 994 l 905 994 l 488 591 l 924 0 l 750 0 l 396 503 l 233 345 l 233 0 l 102 0 m 456 -34 q 501 -31 480 -31 q 636 -68 594 -31 q 678 -155 678 -106 q 630 -246 678 -207 q 479 -286 583 -286 q 385 -277 437 -286 l 392 -198 q 451 -201 422 -201 q 564 -149 564 -201 q 478 -104 564 -104 q 456 -105 469 -104 l 456 -34 z "},"ķ":{"ha":694,"x_min":92,"x_max":689,"o":"m 92 0 l 92 994 l 214 994 l 214 427 l 503 720 l 661 720 l 386 453 l 689 0 l 538 0 l 300 368 l 214 286 l 214 0 l 92 0 m 340 -34 q 385 -31 364 -31 q 520 -68 478 -31 q 562 -155 562 -106 q 514 -246 562 -207 q 363 -286 467 -286 q 269 -277 321 -286 l 276 -198 q 335 -201 306 -201 q 448 -149 448 -201 q 362 -104 448 -104 q 340 -105 353 -104 l 340 -34 z "},"ĸ":{"ha":694,"x_min":91,"x_max":688,"o":"m 91 0 l 91 720 l 213 720 l 213 427 l 502 720 l 660 720 l 385 453 l 688 0 l 537 0 l 299 368 l 213 286 l 213 0 l 91 0 z "},"Ļ":{"ha":772,"x_min":102,"x_max":723,"o":"m 102 0 l 102 994 l 233 994 l 233 117 l 723 117 l 723 0 l 102 0 m 375 -34 q 420 -31 399 -31 q 555 -68 513 -31 q 597 -155 597 -106 q 549 -246 597 -207 q 398 -286 501 -286 q 303 -277 355 -286 l 311 -198 q 370 -201 340 -201 q 483 -149 483 -201 q 397 -104 483 -104 q 375 -105 387 -104 l 375 -34 z "},"ļ":{"ha":309,"x_min":-2,"x_max":292,"o":"m 89 0 l 89 994 l 211 994 l 211 0 l 89 0 m 70 -34 q 115 -31 94 -31 q 250 -68 208 -31 q 292 -155 292 -106 q 244 -246 292 -207 q 93 -286 196 -286 q -2 -277 50 -286 l 5 -198 q 64 -201 35 -201 q 178 -149 178 -201 q 92 -104 178 -104 q 70 -105 82 -104 l 70 -34 z "},"Ņ":{"ha":1003,"x_min":106,"x_max":889,"o":"m 106 0 l 106 994 l 241 994 l 763 214 l 763 994 l 889 994 l 889 0 l 754 0 l 232 781 l 232 0 l 106 0 m 474 -34 q 519 -31 498 -31 q 654 -68 612 -31 q 696 -155 696 -106 q 648 -246 696 -207 q 497 -286 600 -286 q 402 -277 454 -286 l 410 -198 q 469 -201 439 -201 q 582 -149 582 -201 q 496 -104 582 -104 q 474 -105 486 -104 l 474 -34 z "},"ņ":{"ha":772,"x_min":92,"x_max":677,"o":"m 92 0 l 92 720 l 201 720 l 201 618 q 431 736 281 736 q 550 713 496 736 q 632 652 605 690 q 670 562 659 614 q 677 443 677 528 l 677 0 l 555 0 l 555 438 q 541 550 555 513 q 490 609 526 587 q 405 631 454 631 q 270 581 327 631 q 214 393 214 532 l 214 0 l 92 0 m 314 -34 q 359 -31 338 -31 q 494 -68 452 -31 q 536 -155 536 -106 q 488 -246 536 -207 q 337 -286 440 -286 q 242 -277 294 -286 l 250 -198 q 309 -201 279 -201 q 422 -149 422 -201 q 336 -104 422 -104 q 314 -105 326 -104 l 314 -34 z "},"Ŋ":{"ha":1004,"x_min":112,"x_max":931,"o":"m 112 994 l 245 994 l 245 871 q 399 986 323 960 q 561 1011 476 1011 q 761 956 684 1011 q 885 798 839 901 q 931 511 931 694 q 843 114 931 244 q 606 -17 755 -17 q 437 32 519 -17 l 496 136 q 606 100 562 100 q 702 144 658 100 q 772 277 746 188 q 798 508 798 366 q 523 901 798 901 q 365 858 433 901 q 271 750 296 816 q 245 543 245 685 l 245 0 l 112 0 l 112 994 z "},"ŋ":{"ha":772,"x_min":94,"x_max":680,"o":"m 680 443 l 680 -39 q 640 -233 680 -173 q 498 -292 600 -292 q 403 -279 449 -292 l 426 -176 q 484 -185 462 -185 q 543 -155 528 -185 q 557 -37 557 -125 l 557 438 q 522 585 557 538 q 406 631 487 631 q 272 580 327 631 q 216 393 216 529 l 216 0 l 94 0 l 94 720 l 204 720 l 204 618 q 433 736 283 736 q 581 699 522 736 q 660 605 641 661 q 680 443 680 549 z "},"Ō":{"ha":1080,"x_min":67,"x_max":1018,"o":"m 67 484 q 200 872 67 732 q 543 1012 333 1012 q 791 946 681 1012 q 960 763 902 880 q 1018 496 1018 645 q 957 225 1018 345 q 784 44 896 106 q 543 -17 672 -17 q 292 51 402 -17 q 124 236 181 119 q 67 484 67 353 m 203 482 q 299 199 203 302 q 542 96 396 96 q 786 200 690 96 q 882 496 882 304 q 841 708 882 618 q 721 849 800 799 q 544 899 642 899 q 303 803 404 899 q 203 482 203 707 m 342 1084 l 342 1185 l 765 1185 l 765 1084 l 342 1084 z "},"ō":{"ha":772,"x_min":46,"x_max":721,"o":"m 46 360 q 157 656 46 560 q 384 736 250 736 q 627 639 532 736 q 721 370 721 542 q 679 152 721 231 q 558 28 637 72 q 384 -16 478 -16 q 139 81 233 -16 q 46 360 46 178 m 172 360 q 232 153 172 222 q 384 84 292 84 q 535 153 475 84 q 595 364 595 222 q 535 567 595 498 q 384 635 474 635 q 232 567 292 635 q 172 360 172 498 m 179 832 l 179 932 l 602 932 l 602 832 l 179 832 z "},"Ŏ":{"ha":1080,"x_min":67,"x_max":1018,"o":"m 67 484 q 200 872 67 732 q 543 1012 333 1012 q 791 946 681 1012 q 960 763 902 880 q 1018 496 1018 645 q 957 225 1018 345 q 784 44 896 106 q 543 -17 672 -17 q 292 51 402 -17 q 124 236 181 119 q 67 484 67 353 m 203 482 q 299 199 203 302 q 542 96 396 96 q 786 200 690 96 q 882 496 882 304 q 841 708 882 618 q 721 849 800 799 q 544 899 642 899 q 303 803 404 899 q 203 482 203 707 m 671 1238 l 754 1238 q 692 1108 744 1154 q 554 1063 640 1063 q 415 1108 467 1063 q 353 1238 363 1153 l 437 1238 q 474 1170 446 1192 q 550 1147 503 1147 q 633 1169 605 1147 q 671 1238 661 1191 z "},"ŏ":{"ha":772,"x_min":46,"x_max":721,"o":"m 46 360 q 157 656 46 560 q 384 736 250 736 q 627 639 532 736 q 721 370 721 542 q 679 152 721 231 q 558 28 637 72 q 384 -16 478 -16 q 139 81 233 -16 q 46 360 46 178 m 172 360 q 232 153 172 222 q 384 84 292 84 q 535 153 475 84 q 595 364 595 222 q 535 567 595 498 q 384 635 474 635 q 232 567 292 635 q 172 360 172 498 m 508 993 l 591 993 q 529 863 581 908 q 391 817 477 817 q 253 862 304 817 q 191 993 201 907 l 274 993 q 312 924 283 947 q 387 901 340 901 q 470 923 442 901 q 508 993 498 945 z "},"Ŗ":{"ha":1003,"x_min":109,"x_max":985,"o":"m 109 0 l 109 994 l 550 994 q 752 967 683 994 q 863 873 821 941 q 904 723 904 805 q 836 545 904 617 q 624 452 767 472 q 703 403 676 427 q 812 271 761 350 l 985 0 l 820 0 l 688 207 q 593 344 631 296 q 527 410 556 391 q 467 437 497 429 q 393 441 444 441 l 241 441 l 241 0 l 109 0 m 241 555 l 524 555 q 665 574 614 555 q 742 634 715 593 q 768 723 768 675 q 717 839 768 793 q 555 884 666 884 l 241 884 l 241 555 m 474 -34 q 519 -31 498 -31 q 654 -68 612 -31 q 696 -155 696 -106 q 648 -246 696 -207 q 497 -286 600 -286 q 402 -277 454 -286 l 410 -198 q 469 -201 439 -201 q 582 -149 582 -201 q 496 -104 582 -104 q 474 -105 486 -104 l 474 -34 z "},"ŗ":{"ha":463,"x_min":90,"x_max":481,"o":"m 90 0 l 90 720 l 200 720 l 200 611 q 278 712 242 688 q 356 736 313 736 q 481 697 418 736 l 439 584 q 350 610 395 610 q 278 586 310 610 q 233 519 246 562 q 212 377 212 454 l 212 0 l 90 0 m 170 -34 q 214 -31 193 -31 q 349 -68 307 -31 q 391 -155 391 -106 q 343 -246 391 -207 q 193 -286 296 -286 q 98 -277 150 -286 l 105 -198 q 164 -201 135 -201 q 277 -149 277 -201 q 191 -104 277 -104 q 170 -105 182 -104 l 170 -34 z "},"Ŝ":{"ha":926,"x_min":62,"x_max":854,"o":"m 62 319 l 186 330 q 228 208 195 256 q 328 131 260 160 q 480 101 395 101 q 613 123 555 101 q 699 185 671 146 q 727 270 727 224 q 700 352 727 317 q 610 410 673 387 q 433 459 570 426 q 241 521 296 492 q 135 613 170 558 q 100 737 100 669 q 143 878 100 812 q 268 977 186 943 q 450 1011 350 1011 q 645 976 561 1011 q 775 871 730 940 q 824 714 821 802 l 698 705 q 629 847 688 799 q 456 895 570 895 q 282 851 336 895 q 227 746 227 808 q 266 658 227 692 q 464 587 304 623 q 684 524 625 551 q 812 422 771 484 q 854 281 854 361 q 808 131 854 201 q 678 22 763 61 q 486 -17 593 -17 q 260 22 351 -17 q 117 141 169 62 q 62 319 65 220 m 458 1166 l 382 1051 l 242 1051 l 389 1241 l 519 1241 l 671 1051 l 533 1051 l 458 1166 z "},"ŝ":{"ha":694,"x_min":43,"x_max":641,"o":"m 43 215 l 163 234 q 220 123 174 161 q 350 84 267 84 q 475 118 434 84 q 515 199 515 153 q 479 264 515 240 q 355 305 454 280 q 169 364 220 339 q 90 432 117 389 q 63 529 63 476 q 85 618 63 577 q 145 686 107 659 q 223 722 174 707 q 328 736 272 736 q 477 712 413 736 q 572 646 541 688 q 614 534 602 604 l 494 518 q 447 605 486 574 q 337 636 408 636 q 217 608 253 636 q 181 543 181 581 q 196 500 181 519 q 243 468 211 481 q 351 437 261 461 q 531 380 480 402 q 612 316 583 358 q 641 212 641 274 q 605 97 641 151 q 503 13 570 43 q 351 -16 435 -16 q 137 42 210 -16 q 43 215 63 100 m 362 925 l 286 810 l 146 810 l 292 1000 l 422 1000 l 575 810 l 437 810 l 362 925 z "},"Ŧ":{"ha":848,"x_min":33,"x_max":821,"o":"m 360 427 l 136 427 l 136 516 l 360 516 l 360 877 l 33 877 l 33 994 l 821 994 l 821 877 l 492 877 l 492 516 l 714 516 l 714 427 l 492 427 l 492 0 l 360 0 l 360 427 z "},"ŧ":{"ha":386,"x_min":8,"x_max":360,"o":"m 98 349 l 8 349 l 8 438 l 98 438 l 98 625 l 9 625 l 9 720 l 98 720 l 98 899 l 220 972 l 220 720 l 342 720 l 342 625 l 220 625 l 220 438 l 337 438 l 337 349 l 220 349 l 220 204 q 233 125 220 146 q 289 104 245 104 q 342 109 311 104 l 360 1 q 269 -9 311 -9 q 158 15 197 -9 q 109 79 119 39 q 98 211 98 119 l 98 349 z "},"Ũ":{"ha":1003,"x_min":109,"x_max":891,"o":"m 760 994 l 891 994 l 891 420 q 857 182 891 270 q 735 38 823 94 q 503 -17 646 -17 q 274 31 363 -17 q 147 171 185 79 q 109 420 109 262 l 109 994 l 241 994 l 241 420 q 265 230 241 291 q 348 135 289 168 q 491 102 406 102 q 698 168 636 102 q 760 420 760 233 l 760 994 m 290 1068 q 328 1181 289 1139 q 427 1223 367 1223 q 542 1186 469 1223 q 606 1166 582 1166 q 639 1178 627 1166 q 655 1225 650 1190 l 743 1225 q 704 1109 741 1147 q 610 1070 667 1070 q 498 1108 568 1070 q 431 1133 452 1133 q 394 1116 408 1133 q 380 1068 379 1100 l 290 1068 z "},"ũ":{"ha":772,"x_min":89,"x_max":673,"o":"m 564 0 l 564 106 q 335 -16 479 -16 q 216 8 271 -16 q 134 70 161 33 q 96 160 107 106 q 89 274 89 196 l 89 720 l 211 720 l 211 321 q 218 192 211 225 q 267 116 230 144 q 359 89 304 89 q 463 117 414 89 q 531 194 511 145 q 551 334 551 242 l 551 720 l 673 720 l 673 0 l 564 0 m 165 827 q 203 939 164 897 q 302 981 242 981 q 417 945 345 981 q 481 924 457 924 q 514 936 503 924 q 530 983 526 948 l 618 983 q 579 867 616 906 q 486 829 543 829 q 373 867 443 829 q 307 891 328 891 q 269 875 283 891 q 255 827 254 859 l 165 827 z "},"Ū":{"ha":1003,"x_min":109,"x_max":891,"o":"m 760 994 l 891 994 l 891 420 q 857 182 891 270 q 735 38 823 94 q 503 -17 646 -17 q 274 31 363 -17 q 147 171 185 79 q 109 420 109 262 l 109 994 l 241 994 l 241 420 q 265 230 241 291 q 348 135 289 168 q 491 102 406 102 q 698 168 636 102 q 760 420 760 233 l 760 994 m 304 1074 l 304 1174 l 728 1174 l 728 1074 l 304 1074 z "},"ū":{"ha":772,"x_min":89,"x_max":673,"o":"m 564 0 l 564 106 q 335 -16 479 -16 q 216 8 271 -16 q 134 70 161 33 q 96 160 107 106 q 89 274 89 196 l 89 720 l 211 720 l 211 321 q 218 192 211 225 q 267 116 230 144 q 359 89 304 89 q 463 117 414 89 q 531 194 511 145 q 551 334 551 242 l 551 720 l 673 720 l 673 0 l 564 0 m 180 832 l 180 932 l 603 932 l 603 832 l 180 832 z "},"Ŭ":{"ha":1003,"x_min":109,"x_max":891,"o":"m 760 994 l 891 994 l 891 420 q 857 182 891 270 q 735 38 823 94 q 503 -17 646 -17 q 274 31 363 -17 q 147 171 185 79 q 109 420 109 262 l 109 994 l 241 994 l 241 420 q 265 230 241 291 q 348 135 289 168 q 491 102 406 102 q 698 168 636 102 q 760 420 760 233 l 760 994 m 620 1234 l 703 1234 q 641 1104 693 1149 q 503 1059 589 1059 q 365 1104 416 1059 q 302 1234 313 1149 l 386 1234 q 424 1165 395 1188 q 499 1143 452 1143 q 582 1165 554 1143 q 620 1234 610 1187 z "},"ŭ":{"ha":772,"x_min":89,"x_max":673,"o":"m 564 0 l 564 106 q 335 -16 479 -16 q 216 8 271 -16 q 134 70 161 33 q 96 160 107 106 q 89 274 89 196 l 89 720 l 211 720 l 211 321 q 218 192 211 225 q 267 116 230 144 q 359 89 304 89 q 463 117 414 89 q 531 194 511 145 q 551 334 551 242 l 551 720 l 673 720 l 673 0 l 564 0 m 509 993 l 592 993 q 530 863 582 908 q 392 817 478 817 q 253 862 305 817 q 191 993 201 907 l 275 993 q 312 924 284 947 q 388 901 340 901 q 471 923 443 901 q 509 993 499 945 z "},"Ų":{"ha":1003,"x_min":109,"x_max":891,"o":"m 760 994 l 891 994 l 891 420 q 857 182 891 270 q 735 38 823 94 q 503 -17 646 -17 q 274 31 363 -17 q 147 171 185 79 q 109 420 109 262 l 109 994 l 241 994 l 241 420 q 265 230 241 291 q 348 135 289 168 q 491 102 406 102 q 698 168 636 102 q 760 420 760 233 l 760 994 m 625 0 q 565 -59 586 -24 q 543 -130 543 -94 q 559 -178 543 -158 q 610 -197 574 -197 q 642 -193 625 -197 q 671 -181 658 -189 l 671 -268 q 579 -292 622 -292 q 519 -282 545 -292 q 476 -255 493 -272 q 450 -215 458 -237 q 441 -167 441 -193 q 466 -80 441 -123 q 535 0 490 -36 l 625 0 z "},"ų":{"ha":772,"x_min":89,"x_max":709,"o":"m 564 0 l 564 106 q 335 -16 479 -16 q 216 8 271 -16 q 134 70 161 33 q 96 160 107 106 q 89 274 89 196 l 89 720 l 211 720 l 211 321 q 218 192 211 225 q 267 116 230 144 q 359 89 304 89 q 463 117 414 89 q 531 194 511 145 q 551 334 551 242 l 551 720 l 673 720 l 673 0 l 564 0 m 662 0 q 602 -59 623 -24 q 581 -130 581 -94 q 596 -178 581 -158 q 647 -197 612 -197 q 679 -193 663 -197 q 709 -181 695 -189 l 709 -268 q 616 -292 659 -292 q 556 -282 582 -292 q 513 -255 530 -272 q 487 -215 496 -237 q 479 -167 479 -193 q 503 -80 479 -123 q 572 0 528 -36 l 662 0 z "},"Ŵ":{"ha":1311,"x_min":17,"x_max":1295,"o":"m 281 0 l 17 994 l 152 994 l 303 342 q 345 139 328 240 q 390 323 383 298 l 579 994 l 738 994 l 880 491 q 958 139 934 304 q 1007 355 977 233 l 1163 994 l 1295 994 l 1023 0 l 896 0 l 686 758 q 655 874 660 852 q 626 758 640 806 l 415 0 l 281 0 m 654 1171 l 577 1055 l 437 1055 l 584 1245 l 714 1245 l 867 1055 l 728 1055 l 654 1171 z "},"ŵ":{"ha":1003,"x_min":4,"x_max":992,"o":"m 224 0 l 4 720 l 130 720 l 245 304 l 288 150 q 325 298 290 161 l 439 720 l 565 720 l 673 302 l 709 165 l 750 304 l 873 720 l 992 720 l 767 0 l 640 0 l 526 431 l 498 554 l 352 0 l 224 0 m 511 925 l 435 810 l 295 810 l 441 1000 l 572 1000 l 724 810 l 586 810 l 511 925 z "},"Ŷ":{"ha":926,"x_min":4,"x_max":916,"o":"m 387 0 l 387 421 l 4 994 l 164 994 l 360 694 q 461 526 414 610 q 570 702 506 604 l 762 994 l 916 994 l 519 421 l 519 0 l 387 0 m 481 1171 l 404 1055 l 264 1055 l 411 1245 l 541 1245 l 694 1055 l 555 1055 l 481 1171 z "},"ŷ":{"ha":694,"x_min":22,"x_max":682,"o":"m 86 -277 l 73 -163 q 142 -174 113 -174 q 208 -160 183 -174 q 248 -122 232 -146 q 285 -31 259 -104 q 296 -1 288 -21 l 22 720 l 154 720 l 304 303 q 356 136 333 224 q 406 300 377 220 l 560 720 l 682 720 l 408 -12 q 340 -176 364 -131 q 265 -264 307 -236 q 165 -292 223 -292 q 86 -277 130 -292 m 379 925 l 302 810 l 163 810 l 309 1000 l 439 1000 l 592 810 l 454 810 l 379 925 z "},"ſ":{"ha":309,"x_min":93,"x_max":406,"o":"m 93 0 l 93 797 q 111 918 93 875 q 175 986 130 961 q 292 1011 220 1011 q 406 999 346 1011 l 388 892 q 316 899 351 899 q 235 872 255 899 q 215 787 215 846 l 215 0 l 93 0 z "},"Ǻ":{"ha":926,"x_min":-2,"x_max":928,"o":"m -2 0 l 380 994 l 522 994 l 928 0 l 779 0 l 663 301 l 247 301 l 138 0 l -2 0 m 285 408 l 622 408 l 518 684 q 448 890 471 809 q 394 700 429 794 l 285 408 m 326 1086 q 362 1171 326 1135 q 448 1207 399 1207 q 534 1171 498 1207 q 570 1083 570 1135 q 534 995 570 1031 q 449 959 498 959 q 362 995 398 959 q 326 1086 326 1031 m 378 1085 q 399 1031 378 1053 q 450 1010 420 1010 q 500 1031 479 1010 q 522 1084 522 1053 q 500 1136 522 1114 q 450 1158 479 1158 q 399 1136 420 1158 q 378 1085 378 1115 m 380 1207 l 471 1397 l 631 1397 l 481 1207 l 380 1207 z "},"ǻ":{"ha":772,"x_min":50,"x_max":713,"o":"m 562 89 q 431 7 494 31 q 296 -16 368 -16 q 114 42 178 -16 q 50 190 50 100 q 74 287 50 243 q 137 357 98 330 q 225 397 176 383 q 334 415 261 406 q 551 457 481 433 q 552 489 552 482 q 517 594 552 564 q 378 635 471 635 q 251 605 292 635 q 191 498 210 575 l 71 515 q 125 638 87 591 q 233 711 162 686 q 396 736 303 736 q 546 715 488 736 q 631 660 604 693 q 669 577 658 627 q 675 465 675 546 l 675 302 q 683 86 675 132 q 713 0 690 41 l 586 0 q 562 89 567 38 m 551 361 q 352 315 485 334 q 245 291 277 304 q 197 251 214 277 q 180 193 180 225 q 217 112 180 144 q 326 79 254 79 q 451 110 396 79 q 532 195 506 141 q 551 317 551 236 l 551 361 m 260 907 q 296 993 260 957 q 382 1029 332 1029 q 468 992 432 1029 q 504 905 504 956 q 468 817 504 852 q 382 781 432 781 q 296 817 332 781 q 260 907 260 853 m 311 907 q 333 853 311 875 q 383 831 354 831 q 434 853 412 831 q 455 905 455 875 q 434 958 455 936 q 383 979 413 979 q 333 958 354 979 q 311 907 311 937 m 334 1115 l 425 1305 l 585 1305 l 435 1115 l 334 1115 z "},"Ǽ":{"ha":1389,"x_min":1,"x_max":1313,"o":"m 1 0 l 479 994 l 1295 994 l 1295 877 l 795 877 l 795 571 l 1259 571 l 1259 454 l 795 454 l 795 117 l 1313 117 l 1313 0 l 663 0 l 663 287 l 279 287 l 143 0 l 1 0 m 334 404 l 663 404 l 663 877 l 564 877 l 334 404 m 597 1055 l 688 1245 l 848 1245 l 699 1055 l 597 1055 z "},"ǽ":{"ha":1235,"x_min":46,"x_max":1179,"o":"m 1176 220 q 1061 45 1142 107 q 859 -16 979 -16 q 708 16 772 -16 q 591 118 643 49 q 448 16 520 49 q 292 -16 376 -16 q 111 44 176 -16 q 46 190 46 104 q 80 299 46 248 q 173 377 113 351 q 365 420 233 404 q 536 454 467 434 q 536 481 536 471 q 501 601 536 567 q 376 635 465 635 q 277 621 317 635 q 217 581 236 607 q 184 497 197 555 l 66 511 q 120 637 85 591 q 222 710 156 684 q 378 736 289 736 q 560 703 491 736 q 627 640 600 683 q 726 712 671 687 q 859 736 781 736 q 1040 683 968 736 q 1145 543 1112 630 q 1179 370 1179 455 q 1177 329 1179 357 l 657 329 q 681 187 659 231 q 754 114 704 143 q 863 84 804 84 q 982 124 933 84 q 1048 237 1030 164 l 1176 220 m 657 429 l 1053 429 q 992 586 1044 536 q 858 635 941 635 q 718 581 772 635 q 657 429 663 527 m 538 361 q 319 312 484 338 q 216 277 245 300 q 176 194 176 245 q 212 113 176 146 q 316 80 248 80 q 452 119 394 80 q 528 215 510 157 q 538 361 538 250 m 557 810 l 648 1000 l 808 1000 l 659 810 l 557 810 z "},"Ǿ":{"ha":1080,"x_min":56,"x_max":1029,"o":"m 848 903 l 962 1031 l 1029 974 l 909 840 q 988 688 968 753 q 1015 496 1015 602 q 954 224 1015 344 q 780 44 892 105 q 543 -17 669 -17 q 374 9 450 -17 q 237 87 315 30 l 123 -40 l 56 17 l 176 151 q 87 323 109 252 q 64 495 64 395 q 125 768 64 648 q 297 949 186 888 q 542 1011 407 1011 q 701 987 633 1011 q 848 903 769 963 m 766 812 q 655 880 703 862 q 543 899 607 899 q 297 798 394 899 q 200 497 200 697 q 215 357 200 418 q 260 245 226 312 l 766 812 m 822 742 l 318 178 q 414 118 370 135 q 539 96 472 96 q 783 200 687 96 q 880 493 880 304 q 822 742 880 634 m 462 1055 l 552 1245 l 712 1245 l 563 1055 l 462 1055 z "},"ǿ":{"ha":848,"x_min":87,"x_max":762,"o":"m 623 677 l 690 764 l 755 717 l 683 623 q 741 517 726 565 q 762 359 762 450 q 648 60 762 156 q 424 -16 555 -16 q 233 38 316 -16 l 162 -54 l 98 -5 l 172 90 q 115 182 132 136 q 87 350 87 256 q 187 645 87 554 q 421 736 287 736 q 524 722 477 736 q 623 677 570 708 m 555 588 q 425 635 493 635 q 274 566 335 635 q 213 360 213 497 q 248 190 213 258 l 555 588 m 606 522 l 301 127 q 420 84 354 84 q 576 153 515 84 q 637 361 637 222 q 629 451 637 412 q 606 522 624 479 m 361 810 l 451 1000 l 611 1000 l 462 810 l 361 810 z "},"·":{"ha":386,"x_min":125,"x_max":264,"o":"m 125 581 l 125 720 l 264 720 l 264 581 l 125 581 z "},"Ẁ":{"ha":1311,"x_min":17,"x_max":1295,"o":"m 281 0 l 17 994 l 152 994 l 303 342 q 345 139 328 240 q 390 323 383 298 l 579 994 l 738 994 l 880 491 q 958 139 934 304 q 1007 355 977 233 l 1163 994 l 1295 994 l 1023 0 l 896 0 l 686 758 q 655 874 660 852 q 626 758 640 806 l 415 0 l 281 0 m 756 1055 l 658 1055 l 501 1245 l 665 1245 l 756 1055 z "},"ẁ":{"ha":1003,"x_min":4,"x_max":992,"o":"m 224 0 l 4 720 l 130 720 l 245 304 l 288 150 q 325 298 290 161 l 439 720 l 565 720 l 673 302 l 709 165 l 750 304 l 873 720 l 992 720 l 767 0 l 640 0 l 526 431 l 498 554 l 352 0 l 224 0 m 559 810 l 461 810 l 304 1000 l 468 1000 l 559 810 z "},"Ẃ":{"ha":1311,"x_min":17,"x_max":1295,"o":"m 281 0 l 17 994 l 152 994 l 303 342 q 345 139 328 240 q 390 323 383 298 l 579 994 l 738 994 l 880 491 q 958 139 934 304 q 1007 355 977 233 l 1163 994 l 1295 994 l 1023 0 l 896 0 l 686 758 q 655 874 660 852 q 626 758 640 806 l 415 0 l 281 0 m 591 1055 l 682 1245 l 842 1245 l 692 1055 l 591 1055 z "},"ẃ":{"ha":1003,"x_min":4,"x_max":992,"o":"m 224 0 l 4 720 l 130 720 l 245 304 l 288 150 q 325 298 290 161 l 439 720 l 565 720 l 673 302 l 709 165 l 750 304 l 873 720 l 992 720 l 767 0 l 640 0 l 526 431 l 498 554 l 352 0 l 224 0 m 395 810 l 485 1000 l 645 1000 l 496 810 l 395 810 z "},"Ẅ":{"ha":1311,"x_min":17,"x_max":1295,"o":"m 281 0 l 17 994 l 152 994 l 303 342 q 345 139 328 240 q 390 323 383 298 l 579 994 l 738 994 l 880 491 q 958 139 934 304 q 1007 355 977 233 l 1163 994 l 1295 994 l 1023 0 l 896 0 l 686 758 q 655 874 660 852 q 626 758 640 806 l 415 0 l 281 0 m 462 1055 l 462 1194 l 589 1194 l 589 1055 l 462 1055 m 715 1055 l 715 1194 l 842 1194 l 842 1055 l 715 1055 z "},"ẅ":{"ha":1003,"x_min":4,"x_max":992,"o":"m 224 0 l 4 720 l 130 720 l 245 304 l 288 150 q 325 298 290 161 l 439 720 l 565 720 l 673 302 l 709 165 l 750 304 l 873 720 l 992 720 l 767 0 l 640 0 l 526 431 l 498 554 l 352 0 l 224 0 m 319 861 l 319 1000 l 447 1000 l 447 861 l 319 861 m 572 861 l 572 1000 l 700 1000 l 700 861 l 572 861 z "},"Ỳ":{"ha":926,"x_min":4,"x_max":916,"o":"m 387 0 l 387 421 l 4 994 l 164 994 l 360 694 q 461 526 414 610 q 570 702 506 604 l 762 994 l 916 994 l 519 421 l 519 0 l 387 0 m 541 1055 l 443 1055 l 286 1245 l 450 1245 l 541 1055 z "},"ỳ":{"ha":694,"x_min":22,"x_max":682,"o":"m 86 -277 l 73 -163 q 142 -174 113 -174 q 208 -160 183 -174 q 248 -122 232 -146 q 285 -31 259 -104 q 296 -1 288 -21 l 22 720 l 154 720 l 304 303 q 356 136 333 224 q 406 300 377 220 l 560 720 l 682 720 l 408 -12 q 340 -176 364 -131 q 265 -264 307 -236 q 165 -292 223 -292 q 86 -277 130 -292 m 439 810 l 341 810 l 184 1000 l 348 1000 l 439 810 z "},"‛":{"ha":309,"x_min":94,"x_max":235,"o":"m 224 863 l 161 863 q 235 727 162 757 l 205 679 q 118 755 142 707 q 94 892 94 804 l 94 1004 l 224 1004 l 224 863 z "},"‾":{"ha":463,"x_min":-21,"x_max":484,"o":"m -21 832 l -21 932 l 484 932 l 484 832 l -21 832 z "},"₤":{"ha":772,"x_min":18,"x_max":734,"o":"m 294 416 l 482 416 l 482 316 l 291 316 q 182 130 269 218 q 277 144 234 144 q 406 127 336 144 q 568 100 522 100 q 694 138 614 100 l 734 26 q 572 -17 635 -17 q 425 13 522 -17 q 275 44 322 44 q 65 -19 163 44 l 18 98 q 172 316 150 174 l 30 316 l 30 416 l 172 416 q 144 517 169 437 l 30 517 l 30 617 l 115 617 q 100 730 100 678 q 190 937 100 862 q 410 1011 279 1011 q 607 946 523 1011 q 708 754 690 882 l 587 736 q 528 862 578 812 q 405 911 477 911 q 278 860 326 911 q 230 747 230 809 q 249 617 230 707 l 482 617 l 482 517 l 272 517 q 294 416 290 446 z "},"℮":{"ha":833,"x_min":61,"x_max":779,"o":"m 218 360 l 218 109 q 420 26 299 26 q 688 193 592 26 l 736 164 q 579 12 655 47 q 420 -23 503 -23 q 160 85 259 -23 q 61 360 61 194 q 161 635 61 528 q 420 743 260 743 q 668 647 565 743 q 779 360 771 551 l 218 360 m 622 410 l 622 612 q 418 694 535 694 q 218 611 300 694 l 218 410 l 622 410 z "},"⅛":{"ha":1158,"x_min":73,"x_max":1128,"o":"m 155 -39 l 901 1011 l 1008 1011 l 261 -39 l 155 -39 m 224 497 l 224 873 q 73 796 155 818 l 73 880 q 164 928 110 891 q 250 1006 218 965 l 323 1006 l 323 497 l 224 497 m 831 249 q 743 359 743 281 q 785 451 743 413 q 922 488 827 488 q 1063 452 1016 488 q 1110 357 1110 416 q 1015 249 1110 279 q 1128 124 1128 221 q 1072 9 1128 52 q 926 -33 1015 -33 q 778 10 833 -33 q 724 121 724 53 q 831 249 724 221 m 844 352 q 867 300 844 318 q 926 283 891 283 q 985 300 960 283 q 1010 349 1010 318 q 985 398 1010 380 q 924 417 961 417 q 865 397 887 417 q 844 352 844 378 m 825 129 q 926 43 825 43 q 1001 66 974 43 q 1028 125 1028 90 q 999 188 1028 165 q 924 211 970 211 q 850 188 876 211 q 825 129 825 164 z "},"⅜":{"ha":1158,"x_min":23,"x_max":1129,"o":"m 155 -39 l 902 1011 l 1008 1011 l 262 -39 l 155 -39 m 23 630 l 122 640 q 227 564 143 564 q 302 590 272 564 q 333 654 333 615 q 227 729 333 729 l 188 727 l 203 802 q 309 871 309 802 q 227 931 309 931 q 132 862 156 931 l 35 878 q 108 980 62 953 q 221 1006 153 1006 q 415 879 415 1006 q 321 771 415 798 q 439 643 439 742 q 383 530 439 574 q 233 485 327 485 q 23 630 52 485 m 831 249 q 743 359 743 281 q 790 454 743 420 q 922 488 836 488 q 1064 452 1017 488 q 1111 357 1111 416 q 1015 249 1111 281 q 1129 124 1129 221 q 1072 8 1129 50 q 927 -33 1014 -33 q 780 8 836 -33 q 724 121 724 50 q 831 249 724 221 m 844 352 q 868 300 844 318 q 926 283 892 283 q 985 300 960 283 q 1010 349 1010 317 q 985 398 1010 380 q 924 417 961 417 q 866 397 888 417 q 844 352 844 378 m 825 129 q 926 43 825 43 q 1002 66 975 43 q 1028 125 1028 90 q 999 188 1028 165 q 924 211 970 211 q 851 188 877 211 q 825 129 825 164 z "},"⅝":{"ha":1158,"x_min":23,"x_max":1129,"o":"m 155 -39 l 902 1011 l 1008 1011 l 262 -39 l 155 -39 m 23 628 l 121 640 q 220 569 138 569 q 303 597 272 569 q 334 668 334 625 q 306 736 334 707 q 233 765 278 765 q 138 722 186 765 l 43 739 l 96 994 l 415 994 l 415 912 l 161 912 l 138 805 q 252 841 192 841 q 382 791 329 841 q 436 668 436 741 q 373 536 436 587 q 222 485 311 485 q 90 523 142 485 q 23 628 37 562 m 831 249 q 743 359 743 281 q 790 454 743 420 q 922 488 836 488 q 1064 452 1017 488 q 1111 357 1111 416 q 1015 249 1111 281 q 1129 124 1129 221 q 1072 8 1129 50 q 927 -33 1014 -33 q 780 8 836 -33 q 724 121 724 50 q 831 249 724 221 m 844 352 q 868 300 844 318 q 926 283 892 283 q 985 300 960 283 q 1010 349 1010 317 q 985 398 1010 380 q 924 417 961 417 q 866 397 888 417 q 844 352 844 378 m 825 129 q 926 43 825 43 q 1002 66 975 43 q 1028 125 1028 90 q 999 188 1028 165 q 924 211 970 211 q 851 188 877 211 q 825 129 825 164 z "},"⅞":{"ha":1158,"x_min":50,"x_max":1128,"o":"m 138 -39 l 885 1011 l 991 1011 l 245 -39 l 138 -39 m 134 497 q 311 912 150 715 l 50 912 l 50 994 l 422 994 l 422 940 q 234 497 257 747 l 134 497 m 831 249 q 743 359 743 281 q 785 451 743 413 q 922 488 827 488 q 1063 452 1016 488 q 1110 357 1110 416 q 1015 249 1110 279 q 1128 124 1128 221 q 1071 8 1128 50 q 926 -33 1014 -33 q 780 8 836 -33 q 724 121 724 50 q 831 249 724 221 m 844 352 q 867 301 844 319 q 926 283 891 283 q 984 300 959 283 q 1010 349 1010 317 q 985 398 1010 380 q 924 417 961 417 q 865 397 887 417 q 844 352 844 378 m 825 129 q 926 43 825 43 q 1001 66 974 43 q 1028 125 1028 90 q 999 188 1028 165 q 924 211 970 211 q 850 188 876 211 q 825 129 825 164 z "},"΄":{"ha":463,"x_min":151,"x_max":401,"o":"m 151 810 l 241 1000 l 401 1000 l 252 810 l 151 810 z "},"΅":{"ha":463,"x_min":-15,"x_max":478,"o":"m 235 1022 l 361 1022 l 226 834 l 146 834 l 235 1022 m 361 964 l 478 964 l 478 834 l 361 834 l 361 964 m -15 964 l 102 964 l 102 834 l -15 834 l -15 964 z "},"Ά":{"ha":927,"x_min":-1,"x_max":930,"o":"m -1 0 l 381 994 l 523 994 l 930 0 l 780 0 l 664 301 l 248 301 l 139 0 l -1 0 m 286 408 l 623 408 l 519 684 q 449 890 470 815 q 395 700 430 794 l 286 408 m 37 804 l 127 994 l 287 994 l 138 804 l 37 804 z "},"Έ":{"ha":1089,"x_min":-60,"x_max":1014,"o":"m 272 0 l 272 994 l 991 994 l 991 877 l 404 877 l 404 572 l 954 572 l 954 456 l 404 456 l 404 117 l 1014 117 l 1014 0 l 272 0 m -60 804 l 30 994 l 190 994 l 41 804 l -60 804 z "},"Ή":{"ha":1164,"x_min":-60,"x_max":1024,"o":"m 244 0 l 244 994 l 376 994 l 376 586 l 892 586 l 892 994 l 1024 994 l 1024 0 l 892 0 l 892 469 l 376 469 l 376 0 l 244 0 m -60 804 l 31 994 l 191 994 l 41 804 l -60 804 z "},"Ί":{"ha":533,"x_min":-60,"x_max":376,"o":"m 244 0 l 244 994 l 376 994 l 376 0 l 244 0 m -60 804 l 31 994 l 191 994 l 41 804 l -60 804 z "},"Ό":{"ha":1076,"x_min":-60,"x_max":1010,"o":"m 60 484 q 193 872 60 732 q 536 1012 327 1012 q 878 870 745 1012 q 1010 496 1010 728 q 877 124 1010 265 q 535 -17 743 -17 q 272 58 385 -17 q 110 251 159 133 q 60 484 60 368 m 195 482 q 288 204 195 312 q 534 96 380 96 q 781 202 686 96 q 875 496 875 309 q 780 792 875 686 q 536 899 685 899 q 293 799 391 899 q 195 482 195 699 m -60 804 l 30 994 l 190 994 l 41 804 l -60 804 z "},"Ύ":{"ha":1188,"x_min":-60,"x_max":1169,"o":"m 641 0 l 641 421 l 258 994 l 418 994 l 614 694 q 715 526 671 606 q 823 702 760 604 l 1016 994 l 1169 994 l 772 421 l 772 0 l 641 0 m -60 804 l 30 994 l 190 994 l 41 804 l -60 804 z "},"Ώ":{"ha":1045,"x_min":-60,"x_max":980,"o":"m 73 117 l 290 117 q 83 538 83 290 q 138 780 83 673 q 291 949 192 887 q 529 1011 390 1011 q 759 954 667 1011 q 910 791 850 897 q 969 538 969 684 q 763 117 969 290 l 980 117 l 980 0 l 593 0 l 593 110 q 835 517 835 222 q 750 791 835 684 q 528 899 665 899 q 304 790 388 899 q 220 524 220 682 q 460 110 220 225 l 460 0 l 73 0 l 73 117 m -60 804 l 30 994 l 190 994 l 41 804 l -60 804 z "},"ΐ":{"ha":309,"x_min":-92,"x_max":401,"o":"m 93 0 l 93 720 l 215 720 l 215 0 l 93 0 m 158 1022 l 284 1022 l 149 834 l 69 834 l 158 1022 m 283 964 l 401 964 l 401 834 l 283 834 l 283 964 m -92 964 l 25 964 l 25 834 l -92 834 l -92 964 z "},"Α":{"ha":926,"x_min":-2,"x_max":928,"o":"m -2 0 l 380 994 l 522 994 l 928 0 l 779 0 l 663 301 l 247 301 l 138 0 l -2 0 m 285 408 l 622 408 l 518 684 q 448 890 471 809 q 394 700 429 794 l 285 408 z "},"Β":{"ha":926,"x_min":102,"x_max":852,"o":"m 102 0 l 102 994 l 475 994 q 657 964 589 994 q 765 871 726 934 q 804 740 804 808 q 770 620 804 676 q 665 529 735 564 q 804 439 755 503 q 852 288 852 375 q 823 158 852 218 q 750 66 793 98 q 641 17 707 33 q 481 0 576 0 l 102 0 m 233 576 l 448 576 q 574 588 536 576 q 649 637 624 603 q 675 724 675 672 q 651 811 675 774 q 583 863 627 849 q 432 877 539 877 l 233 877 l 233 576 m 233 117 l 481 117 q 570 122 545 117 q 646 149 616 130 q 696 204 677 168 q 716 288 716 241 q 688 385 716 344 q 609 443 659 426 q 463 459 558 459 l 233 459 l 233 117 z "},"Δ":{"ha":928,"x_min":-1,"x_max":929,"o":"m -1 0 l 380 994 l 522 994 l 929 0 l -1 0 m 181 117 l 734 117 l 519 684 q 448 890 471 811 q 395 700 430 798 l 181 117 z "},"Ε":{"ha":926,"x_min":110,"x_max":852,"o":"m 110 0 l 110 994 l 829 994 l 829 877 l 241 877 l 241 572 l 791 572 l 791 456 l 241 456 l 241 117 l 852 117 l 852 0 l 110 0 z "},"Ζ":{"ha":848,"x_min":28,"x_max":814,"o":"m 28 0 l 28 122 l 537 759 q 640 877 591 827 l 85 877 l 85 994 l 798 994 l 798 877 l 239 187 l 179 117 l 814 117 l 814 0 l 28 0 z "},"Η":{"ha":1003,"x_min":111,"x_max":891,"o":"m 111 0 l 111 994 l 243 994 l 243 586 l 760 586 l 760 994 l 891 994 l 891 0 l 760 0 l 760 469 l 243 469 l 243 0 l 111 0 z "},"Ι":{"ha":386,"x_min":130,"x_max":261,"o":"m 130 0 l 130 994 l 261 994 l 261 0 l 130 0 z "},"Κ":{"ha":926,"x_min":102,"x_max":924,"o":"m 102 0 l 102 994 l 233 994 l 233 501 l 727 994 l 905 994 l 488 591 l 924 0 l 750 0 l 396 503 l 233 345 l 233 0 l 102 0 z "},"Λ":{"ha":928,"x_min":7,"x_max":917,"o":"m 532 994 l 917 0 l 774 0 l 515 722 q 463 885 481 817 q 410 722 441 803 l 142 0 l 7 0 l 396 994 l 532 994 z "},"Μ":{"ha":1157,"x_min":103,"x_max":1052,"o":"m 103 0 l 103 994 l 301 994 l 536 290 q 584 143 569 192 q 637 302 601 197 l 875 994 l 1052 994 l 1052 0 l 925 0 l 925 832 l 636 0 l 517 0 l 230 846 l 230 0 l 103 0 z "},"Ν":{"ha":1003,"x_min":106,"x_max":889,"o":"m 106 0 l 106 994 l 241 994 l 763 214 l 763 994 l 889 994 l 889 0 l 754 0 l 232 781 l 232 0 l 106 0 z "},"Ξ":{"ha":903,"x_min":74,"x_max":829,"o":"m 92 994 l 810 994 l 810 877 l 92 877 l 92 994 m 156 555 l 747 555 l 747 439 l 156 439 l 156 555 m 74 117 l 829 117 l 829 0 l 74 0 l 74 117 z "},"Ο":{"ha":1080,"x_min":67,"x_max":1018,"o":"m 67 484 q 200 872 67 732 q 543 1012 333 1012 q 791 946 681 1012 q 960 763 902 880 q 1018 496 1018 645 q 957 225 1018 345 q 784 44 896 106 q 543 -17 672 -17 q 292 51 402 -17 q 124 236 181 119 q 67 484 67 353 m 203 482 q 299 199 203 302 q 542 96 396 96 q 786 200 690 96 q 882 496 882 304 q 841 708 882 618 q 721 849 800 799 q 544 899 642 899 q 303 803 404 899 q 203 482 203 707 z "},"Π":{"ha":1003,"x_min":111,"x_max":891,"o":"m 111 0 l 111 994 l 891 994 l 891 0 l 760 0 l 760 877 l 243 877 l 243 0 l 111 0 z "},"Ρ":{"ha":926,"x_min":107,"x_max":866,"o":"m 107 0 l 107 994 l 482 994 q 633 985 581 994 q 756 938 707 972 q 836 842 806 904 q 866 707 866 781 q 785 492 866 580 q 494 404 705 404 l 239 404 l 239 0 l 107 0 m 239 522 l 496 522 q 677 569 623 522 q 730 703 730 616 q 699 809 730 765 q 616 868 667 854 q 493 877 583 877 l 239 877 l 239 522 z "},"Σ":{"ha":859,"x_min":100,"x_max":804,"o":"m 777 994 l 777 877 l 243 877 l 582 516 l 243 117 l 804 117 l 804 0 l 100 0 l 100 137 l 425 516 l 100 862 l 100 994 l 777 994 z "},"Τ":{"ha":848,"x_min":33,"x_max":821,"o":"m 360 0 l 360 877 l 33 877 l 33 994 l 821 994 l 821 877 l 492 877 l 492 0 l 360 0 z "},"Υ":{"ha":926,"x_min":4,"x_max":916,"o":"m 387 0 l 387 421 l 4 994 l 164 994 l 360 694 q 461 526 414 610 q 570 702 506 604 l 762 994 l 916 994 l 519 421 l 519 0 l 387 0 z "},"Χ":{"ha":926,"x_min":6,"x_max":918,"o":"m 6 0 l 391 518 l 52 994 l 208 994 l 389 739 q 469 617 445 660 q 547 730 502 671 l 747 994 l 890 994 l 541 526 l 918 0 l 755 0 l 505 355 q 461 421 484 385 q 414 347 428 367 l 164 0 l 6 0 z "},"Ψ":{"ha":1160,"x_min":86,"x_max":1074,"o":"m 86 994 l 218 994 l 218 726 q 290 497 218 563 q 514 420 363 432 l 514 994 l 646 994 l 646 420 q 865 498 788 429 q 942 743 942 568 l 942 994 l 1074 994 l 1074 713 q 646 307 1074 314 l 646 0 l 514 0 l 514 307 q 188 416 290 311 q 86 702 86 521 l 86 994 z "},"Ω":{"ha":1038,"x_min":66,"x_max":973,"o":"m 66 117 l 283 117 q 77 538 77 290 q 131 780 77 673 q 284 949 185 887 q 522 1011 383 1011 q 752 954 660 1011 q 903 791 844 897 q 962 538 962 684 q 756 117 962 290 l 973 117 l 973 0 l 587 0 l 587 110 q 828 517 828 222 q 743 791 828 684 q 522 899 658 899 q 297 790 381 899 q 213 524 213 682 q 453 110 213 225 l 453 0 l 66 0 l 66 117 z "},"Ϊ":{"ha":386,"x_min":3,"x_max":383,"o":"m 130 0 l 130 994 l 261 994 l 261 0 l 130 0 m 3 1055 l 3 1194 l 130 1194 l 130 1055 l 3 1055 m 256 1055 l 256 1194 l 383 1194 l 383 1055 l 256 1055 z "},"Ϋ":{"ha":926,"x_min":4,"x_max":916,"o":"m 387 0 l 387 421 l 4 994 l 164 994 l 360 694 q 461 526 414 610 q 570 702 506 604 l 762 994 l 916 994 l 519 421 l 519 0 l 387 0 m 269 1055 l 269 1194 l 397 1194 l 397 1055 l 269 1055 m 522 1055 l 522 1194 l 650 1194 l 650 1055 l 522 1055 z "},"ά":{"ha":803,"x_min":49,"x_max":751,"o":"m 626 720 l 751 720 q 663 360 703 571 q 751 0 711 98 l 629 0 q 585 132 600 68 q 350 -16 529 -16 q 132 85 214 -16 q 49 361 49 187 q 132 638 49 541 q 352 736 215 736 q 490 702 437 736 q 590 598 544 668 q 626 720 595 622 m 372 635 q 234 565 285 635 q 183 361 183 494 q 231 158 183 232 q 366 84 279 84 q 506 157 450 84 q 562 367 562 230 q 510 568 562 500 q 372 635 457 635 m 316 810 l 406 1000 l 566 1000 l 417 810 l 316 810 z "},"έ":{"ha":619,"x_min":66,"x_max":588,"o":"m 562 639 l 475 568 q 319 631 391 631 q 232 600 259 631 q 204 531 204 568 q 245 452 204 484 q 364 420 286 420 q 398 421 374 420 l 398 319 q 366 319 376 319 q 231 282 269 319 q 193 198 193 245 q 231 117 193 150 q 321 84 269 84 q 500 173 417 84 l 588 99 q 318 -16 479 -16 q 129 48 191 -16 q 66 198 66 113 q 186 372 66 321 q 86 528 86 429 q 145 672 86 608 q 326 736 204 736 q 562 639 466 736 m 248 810 l 338 1000 l 498 1000 l 349 810 l 248 810 z "},"ή":{"ha":772,"x_min":94,"x_max":680,"o":"m 94 0 l 94 720 l 204 720 l 204 618 q 433 736 283 736 q 581 699 522 736 q 660 605 641 661 q 680 443 680 549 l 680 -276 l 557 -276 l 557 438 q 522 585 557 538 q 406 631 487 631 q 272 580 327 631 q 216 393 216 529 l 216 0 l 94 0 m 316 810 l 406 1000 l 566 1000 l 417 810 l 316 810 z "},"ί":{"ha":309,"x_min":67,"x_max":317,"o":"m 93 0 l 93 720 l 215 720 l 215 0 l 93 0 m 67 810 l 157 1000 l 317 1000 l 168 810 l 67 810 z "},"ΰ":{"ha":760,"x_min":92,"x_max":669,"o":"m 92 720 l 214 720 l 214 294 q 264 134 214 183 q 380 84 313 84 q 475 115 435 84 q 532 187 516 146 q 547 303 547 228 l 547 720 l 669 720 l 669 298 q 589 61 669 138 q 378 -16 509 -16 q 211 29 277 -16 q 118 133 144 74 q 92 294 92 192 l 92 720 m 385 1022 l 511 1022 l 375 834 l 296 834 l 385 1022 m 510 964 l 627 964 l 627 834 l 510 834 l 510 964 m 134 964 l 252 964 l 252 834 l 134 834 l 134 964 z "},"β":{"ha":799,"x_min":95,"x_max":736,"o":"m 216 92 l 216 -276 l 95 -276 l 95 682 q 126 862 95 797 q 232 969 157 926 q 399 1011 307 1011 q 606 933 536 1011 q 676 762 676 854 q 620 615 676 671 q 490 547 563 559 q 672 462 608 535 q 736 281 736 389 q 660 75 736 166 q 441 -16 585 -16 q 216 92 295 -16 m 324 586 q 506 629 449 586 q 563 755 563 673 q 514 866 563 821 q 393 911 466 911 q 284 878 330 911 q 227 804 237 844 q 216 661 216 763 l 216 388 q 233 216 216 271 q 302 117 249 161 q 426 73 356 73 q 560 131 511 73 q 609 275 609 189 q 573 401 609 345 q 483 477 536 457 q 342 497 430 497 l 324 497 l 324 586 z "},"γ":{"ha":694,"x_min":17,"x_max":677,"o":"m 17 720 l 145 720 l 347 153 l 553 720 l 677 720 l 408 0 l 408 -276 l 284 -276 l 284 0 l 17 720 z "},"ζ":{"ha":612,"x_min":49,"x_max":601,"o":"m 159 994 l 601 994 l 601 911 q 295 617 418 799 q 171 280 171 435 q 208 159 171 199 q 326 113 244 120 q 476 90 432 104 q 554 33 521 76 q 587 -71 587 -10 q 547 -192 587 -136 q 453 -270 506 -248 q 323 -292 399 -292 l 356 -180 q 470 -84 470 -167 q 452 -35 470 -56 q 407 -8 433 -14 q 307 1 380 -2 q 152 42 204 3 q 75 143 100 80 q 49 286 49 206 q 165 617 49 446 q 441 895 281 787 l 159 895 l 159 994 z "},"η":{"ha":772,"x_min":94,"x_max":680,"o":"m 94 0 l 94 720 l 204 720 l 204 618 q 433 736 283 736 q 581 699 522 736 q 660 605 641 661 q 680 443 680 549 l 680 -276 l 557 -276 l 557 438 q 522 585 557 538 q 406 631 487 631 q 272 580 327 631 q 216 393 216 529 l 216 0 l 94 0 z "},"θ":{"ha":772,"x_min":62,"x_max":711,"o":"m 62 497 q 387 1011 62 1011 q 711 497 711 1011 q 387 -16 711 -16 q 62 497 62 -16 m 189 547 l 585 547 q 524 835 578 759 q 385 911 469 911 q 189 547 196 911 m 585 448 l 189 448 q 387 84 196 84 q 585 448 578 84 z "},"ι":{"ha":309,"x_min":93,"x_max":215,"o":"m 93 0 l 93 720 l 215 720 l 215 0 l 93 0 z "},"κ":{"ha":694,"x_min":91,"x_max":694,"o":"m 91 720 l 212 720 l 212 437 l 505 720 l 666 720 l 344 421 l 694 0 l 538 0 l 257 339 l 212 298 l 212 0 l 91 0 l 91 720 z "},"λ":{"ha":694,"x_min":16,"x_max":677,"o":"m 347 538 l 145 0 l 16 0 l 283 707 l 176 994 l 305 994 l 677 0 l 548 0 l 347 538 z "},"μ":{"ha":800,"x_min":109,"x_max":690,"o":"m 690 720 l 690 0 l 581 0 l 581 85 q 511 11 546 31 q 401 -17 464 -17 q 301 5 345 -17 q 229 73 269 22 l 229 -276 l 109 -276 l 109 720 l 229 720 l 229 415 q 247 200 229 249 q 304 122 264 151 q 395 94 344 94 q 492 123 450 94 q 553 200 535 153 q 570 413 570 248 l 570 720 l 690 720 z "},"ν":{"ha":694,"x_min":18,"x_max":678,"o":"m 292 0 l 18 720 l 146 720 l 301 289 q 347 144 326 219 q 393 281 363 201 l 553 720 l 678 720 l 406 0 l 292 0 z "},"ξ":{"ha":622,"x_min":62,"x_max":597,"o":"m 524 1011 l 524 910 l 424 910 q 263 877 313 910 q 213 783 213 844 q 416 667 213 667 l 515 667 l 515 566 q 359 539 426 566 q 240 444 293 513 q 186 289 186 376 q 225 173 186 224 q 389 108 263 122 q 509 78 471 98 q 572 15 547 57 q 597 -76 597 -27 q 523 -228 597 -165 q 323 -292 449 -291 l 355 -179 q 450 -144 422 -174 q 478 -83 478 -115 q 362 -1 478 -14 q 62 285 62 31 q 124 471 62 389 q 283 595 186 554 q 143 668 186 608 q 99 792 99 729 q 177 946 99 880 q 403 1011 254 1011 l 524 1011 z "},"ο":{"ha":772,"x_min":46,"x_max":721,"o":"m 46 360 q 157 656 46 560 q 384 736 250 736 q 627 639 532 736 q 721 370 721 542 q 679 152 721 231 q 558 28 637 72 q 384 -16 478 -16 q 139 81 233 -16 q 46 360 46 178 m 172 360 q 232 153 172 222 q 384 84 292 84 q 535 153 475 84 q 595 364 595 222 q 535 567 595 498 q 384 635 474 635 q 232 567 292 635 q 172 360 172 498 z "},"ρ":{"ha":790,"x_min":89,"x_max":741,"o":"m 89 -276 l 89 335 q 170 638 89 540 q 404 736 250 736 q 649 632 557 736 q 741 361 741 528 q 653 89 741 193 q 422 -16 566 -16 q 211 68 289 -16 l 211 -276 l 89 -276 m 408 635 q 266 567 319 635 q 212 351 212 499 q 265 151 212 217 q 409 84 318 84 q 558 153 500 84 q 616 354 616 222 q 554 570 616 505 q 408 635 492 635 z "},"ς":{"ha":669,"x_min":58,"x_max":655,"o":"m 655 713 l 627 612 q 475 635 551 635 q 258 551 338 635 q 177 353 177 467 q 221 213 177 274 q 397 118 266 153 q 534 71 492 93 q 600 10 576 49 q 623 -80 623 -29 q 548 -233 623 -173 q 360 -292 473 -292 q 257 -283 315 -292 l 287 -171 q 355 -179 326 -179 q 458 -151 420 -179 q 495 -83 495 -123 q 468 -27 495 -46 q 356 11 441 -7 q 132 128 205 43 q 58 332 58 214 q 175 616 58 495 q 490 736 292 736 q 655 713 574 736 z "},"υ":{"ha":760,"x_min":92,"x_max":669,"o":"m 92 720 l 214 720 l 214 294 q 264 134 214 183 q 380 84 313 84 q 475 115 435 84 q 532 187 516 146 q 547 303 547 228 l 547 720 l 669 720 l 669 298 q 589 61 669 138 q 378 -16 509 -16 q 211 29 277 -16 q 118 133 144 74 q 92 294 92 192 l 92 720 z "},"χ":{"ha":729,"x_min":12,"x_max":716,"o":"m 33 720 l 165 720 l 363 321 l 568 720 l 703 720 l 438 229 l 716 -276 l 577 -276 l 363 140 l 148 -276 l 12 -276 l 289 225 l 33 720 z "},"ψ":{"ha":990,"x_min":83,"x_max":907,"o":"m 83 720 l 204 720 l 204 365 q 220 213 204 265 q 289 126 237 161 q 434 86 342 91 l 434 720 l 556 720 l 556 86 q 697 124 645 91 q 767 209 749 157 q 785 365 785 261 l 785 720 l 907 720 l 907 369 q 881 159 907 228 q 775 40 854 91 q 556 -16 696 -12 l 556 -276 l 434 -276 l 434 -16 q 276 9 344 -14 q 161 83 208 33 q 98 189 114 134 q 83 369 83 245 l 83 720 z "},"ω":{"ha":1084,"x_min":59,"x_max":1025,"o":"m 166 720 l 284 720 q 183 343 183 497 q 227 152 183 224 q 337 79 270 79 q 418 113 380 79 q 469 195 456 147 q 481 328 481 242 l 481 538 l 603 538 l 603 328 q 615 195 603 244 q 666 113 628 146 q 748 79 705 79 q 858 152 814 79 q 901 343 901 224 q 801 720 901 497 l 918 720 q 1025 351 1025 530 q 951 77 1025 171 q 762 -16 877 -16 q 543 146 608 -16 q 323 -16 476 -16 q 130 82 201 -16 q 59 351 59 180 q 166 720 59 530 z "},"ϊ":{"ha":309,"x_min":-32,"x_max":349,"o":"m 93 0 l 93 720 l 215 720 l 215 0 l 93 0 m -32 861 l -32 1000 l 96 1000 l 96 861 l -32 861 m 221 861 l 221 1000 l 349 1000 l 349 861 l 221 861 z "},"ϋ":{"ha":760,"x_min":92,"x_max":669,"o":"m 92 720 l 214 720 l 214 294 q 264 134 214 183 q 380 84 313 84 q 475 115 435 84 q 532 187 516 146 q 547 303 547 228 l 547 720 l 669 720 l 669 298 q 589 61 669 138 q 378 -16 509 -16 q 211 29 277 -16 q 118 133 144 74 q 92 294 92 192 l 92 720 m 204 861 l 204 1000 l 332 1000 l 332 861 l 204 861 m 457 861 l 457 1000 l 585 1000 l 585 861 l 457 861 z "},"ό":{"ha":772,"x_min":46,"x_max":721,"o":"m 46 360 q 157 656 46 560 q 384 736 250 736 q 627 639 532 736 q 721 370 721 542 q 679 152 721 231 q 558 28 637 72 q 384 -16 478 -16 q 139 81 233 -16 q 46 360 46 178 m 172 360 q 232 153 172 222 q 384 84 292 84 q 535 153 475 84 q 595 364 595 222 q 535 567 595 498 q 384 635 474 635 q 232 567 292 635 q 172 360 172 498 m 316 810 l 406 1000 l 566 1000 l 417 810 l 316 810 z "},"ύ":{"ha":760,"x_min":92,"x_max":669,"o":"m 92 720 l 214 720 l 214 294 q 264 134 214 183 q 380 84 313 84 q 475 115 435 84 q 532 187 516 146 q 547 303 547 228 l 547 720 l 669 720 l 669 298 q 589 61 669 138 q 378 -16 509 -16 q 211 29 277 -16 q 118 133 144 74 q 92 294 92 192 l 92 720 m 300 810 l 390 1000 l 550 1000 l 401 810 l 300 810 z "},"ώ":{"ha":1084,"x_min":59,"x_max":1025,"o":"m 166 720 l 284 720 q 183 343 183 497 q 227 152 183 224 q 337 79 270 79 q 418 113 380 79 q 469 195 456 147 q 481 328 481 242 l 481 538 l 603 538 l 603 328 q 615 195 603 244 q 666 113 628 146 q 748 79 705 79 q 858 152 814 79 q 901 343 901 224 q 801 720 901 497 l 918 720 q 1025 351 1025 530 q 951 77 1025 171 q 762 -16 877 -16 q 543 146 608 -16 q 323 -16 476 -16 q 130 82 201 -16 q 59 351 59 180 q 166 720 59 530 m 476 810 l 566 1000 l 726 1000 l 577 810 l 476 810 z "},"Ё":{"ha":927,"x_min":110,"x_max":852,"o":"m 110 0 l 110 994 l 829 994 l 829 877 l 241 877 l 241 572 l 791 572 l 791 456 l 241 456 l 241 117 l 852 117 l 852 0 l 110 0 m 279 1055 l 279 1194 l 406 1194 l 406 1055 l 279 1055 m 532 1055 l 532 1194 l 659 1194 l 659 1055 l 532 1055 z "},"Ђ":{"ha":1201,"x_min":34,"x_max":1145,"o":"m 34 994 l 827 994 l 827 877 l 496 877 l 496 568 q 795 635 668 635 q 1049 539 953 635 q 1145 306 1145 444 q 1066 84 1145 185 q 835 -17 987 -17 q 675 5 764 -17 l 696 117 q 804 92 748 92 q 959 151 906 92 q 1011 302 1011 211 q 950 461 1011 398 q 762 525 890 525 q 496 461 652 525 l 496 0 l 365 0 l 365 877 l 34 877 l 34 994 z "},"Ѓ":{"ha":752,"x_min":109,"x_max":752,"o":"m 109 994 l 752 994 l 752 877 l 241 877 l 241 0 l 109 0 l 109 994 m 321 1055 l 411 1245 l 571 1245 l 422 1055 l 321 1055 z "},"Є":{"ha":998,"x_min":68,"x_max":948,"o":"m 581 572 l 581 454 l 212 454 q 304 190 219 287 q 524 94 390 94 q 821 346 761 94 l 948 313 q 533 -17 862 -17 q 183 135 298 -17 q 75 508 68 286 q 126 755 75 644 q 283 939 178 867 q 536 1011 389 1011 q 794 935 690 1011 q 935 722 899 858 l 806 688 q 535 896 750 896 q 308 808 390 896 q 217 572 225 721 l 581 572 z "}}}
